<?xml version="1.0" standalone="no"?>
<!DOCTYPE svg PUBLIC "-//W3C//DTD SVG 1.1//EN" "http://www.w3.org/Graphics/SVG/1.1/DTD/svg11.dtd" >
<svg xmlns="http://www.w3.org/2000/svg" xmlns:xlink="http://www.w3.org/1999/xlink" version="1.1">
<metadata>
Created by FontForge 20201107 at Mon Aug 23 04:52:16 2021
 By 
Copyrighted (c) 1981, 1997 by and the property of Linotype-Hell AG and/or its subsidiaries. All Rights Reserved. All Cyrillic characters designed by DoubleAlex. Helvetica is a registered Trademark of Linotype-Hell AG and/or its subsidiaries.
</metadata>
<defs>
<font id="HelveticaNeue-Medium" horiz-adv-x="556" >
  <font-face 
    font-family="Helvetica Neue"
    font-weight="500"
    font-stretch="normal"
    units-per-em="1000"
    panose-1="2 0 6 3 5 0 0 2 0 4"
    ascent="800"
    descent="-200"
    x-height="516"
    cap-height="712"
    bbox="-576 -287 1987 1160"
    underline-thickness="50"
    underline-position="-300"
    unicode-range="U+000D-FE48"
  />
<missing-glyph horiz-adv-x="1000" 
 />
    <glyph glyph-name="IJ" unicode="IJ" horiz-adv-x="821" 
d="M76 0v714h125v-714h-125zM745 714v-484q0 -42 -4.5 -74t-19.5 -66t-39.5 -56t-68.5 -36.5t-103 -14.5q-108 0 -160.5 62.5t-52.5 166.5v38h125v-37q0 -64 22 -96t76 -32q58 0 79 33t21 105v491h125z" />
    <glyph glyph-name="ij" unicode="ij" horiz-adv-x="474" 
d="M63 606v108h114v-108h-114zM63 0v517h114v-517h-114zM296 606v108h114v-108h-114zM296 -39v556h114v-561q0 -80 -35 -120.5t-113 -40.5q-31 0 -51 4v90q20 -4 39 -4q29 0 37.5 17t8.5 59z" />
    <glyph glyph-name="napostrophe" unicode="&#x22;n" horiz-adv-x="574" 
d="M60 0v517h108v-76l2 -2q27 43 69 67.5t92 24.5q86 0 134.5 -45t48.5 -131v-355h-114v325q-2 61 -26 88.5t-75 27.5q-56 0 -90.5 -39t-34.5 -97v-305h-114zM-19 714v99h131v-89q0 -79 -116 -84v38q40 6 45 36h-60z" />
    <glyph glyph-name="fi" unicode="fi" 
d="M378 606v108h114v-108h-114zM9 432v85h85v43q0 90 38.5 122t104.5 32q56 0 80 -7v-89q-23 6 -53 6q-56 0 -56 -54v-53h97v-85h-97v-432h-114v432h-85zM378 0v517h114v-517h-114z" />
    <glyph glyph-name="fl" unicode="fl" 
d="M378 0v714h114v-714h-114zM9 432v85h85v43q0 90 38.5 122t104.5 32q56 0 80 -7v-89q-23 6 -53 6q-56 0 -56 -54v-53h97v-85h-97v-432h-114v432h-85z" />
    <glyph glyph-name=".notdef" horiz-adv-x="1000" 
 />
    <glyph glyph-name=".null" horiz-adv-x="0" 
 />
    <glyph glyph-name="nonmarkingreturn" horiz-adv-x="333" 
 />
    <glyph glyph-name="CR" unicode="&#xd;" horiz-adv-x="0" 
 />
    <glyph glyph-name="space" unicode=" " horiz-adv-x="278" 
 />
    <glyph glyph-name="exclam" unicode="!" horiz-adv-x="278" 
d="M200 712v-204l-32 -311h-59l-31 310v205h122zM204 127v-127h-130v127h130z" />
    <glyph glyph-name="quotedbl" unicode="&#x22;" horiz-adv-x="444" 
d="M168 405h-65l-18 291h101zM342 405h-66l-17 291h100z" />
    <glyph glyph-name="numbersign" unicode="#" 
d="M163 0h-94l36 195h-90v80h104l27 145h-89v80h104l37 196h94l-36 -196h110l36 196h94l-36 -196h89v-80h-104l-27 -145h89v-80h-104l-36 -195h-94l36 195h-110zM324 275l27 145h-110l-27 -145h110z" />
    <glyph glyph-name="dollar" unicode="$" 
d="M301 788v-72q100 -2 158.5 -52t58.5 -133v-15h-108v7q0 52 -27.5 76.5t-81.5 30.5v-220q237 -39 237 -212q0 -94 -65.5 -153t-171.5 -59v-86h-50v86q-105 0 -171.5 58t-66.5 165v9h114q-1 -5 -1 -11q0 -123 125 -134v244q-96 14 -158.5 61.5t-62.5 135.5q0 94 61.5 143.5
t159.5 58.5v72h50zM251 421v208q-53 -4 -83 -31.5t-30 -72.5q0 -47 29.5 -69t83.5 -35zM301 306v-234q56 2 90 35t34 85q0 89 -124 114z" />
    <glyph glyph-name="percent" unicode="%" horiz-adv-x="1000" 
d="M731 725l-394 -756h-78l396 756h76zM253 708q79 0 120 -48.5t41 -141.5q0 -100 -41.5 -152t-121.5 -52t-122 50.5t-42 147.5q0 94 43.5 145t122.5 51zM251 643q-76 0 -76 -136q0 -129 75 -129q76 0 76 139q0 126 -75 126zM757 380q79 0 120 -48.5t41 -141.5
q0 -100 -41.5 -152t-121.5 -52t-122 50.5t-42 147.5q0 94 43.5 145t122.5 51zM755 315q-76 0 -76 -136q0 -129 75 -129q76 0 76 139q0 126 -75 126z" />
    <glyph glyph-name="ampersand" unicode="&#x26;" horiz-adv-x="648" 
d="M580 340q-9 -106 -58 -175l140 -165h-140l-66 80q-80 -95 -200 -95q-95 0 -159 55.5t-64 150.5q0 70 45 124.5t117 87.5q-71 87 -71 157q0 69 49.5 113.5t126.5 44.5q75 0 123.5 -44.5t48.5 -113.5q0 -115 -126 -182l109 -135q18 38 25 97h100zM289 447q83 49 83 110
q0 33 -20.5 54.5t-51.5 21.5q-32 0 -53 -20t-21 -50q0 -37 59 -111zM254 330q-51 -29 -80 -59.5t-29 -76.5q0 -47 34 -80.5t83 -33.5q75 0 133 77z" />
    <glyph glyph-name="quotesingle" unicode="'" horiz-adv-x="278" 
d="M170 405h-62l-19 291h100z" />
    <glyph glyph-name="parenleft" unicode="(" horiz-adv-x="278" 
d="M285 717q-61 -116 -91 -221.5t-30 -236.5q0 -231 122 -450h-92q-73 119 -108.5 220t-35.5 228q0 254 144 460h91z" />
    <glyph glyph-name="parenright" unicode=")" horiz-adv-x="278" 
d="M227 257q0 -127 -35.5 -228t-108.5 -220h-92q122 219 122 450q0 131 -30 236.5t-91 221.5h91q144 -206 144 -460z" />
    <glyph glyph-name="asterisk" unicode="*" horiz-adv-x="370" 
d="M352 582l-113 -38l69 -94l-53 -40l-71 99l-69 -99l-55 40l69 94l-111 38l22 64l111 -42l-1 118h69l-2 -118l111 42z" />
    <glyph glyph-name="plus" unicode="+" horiz-adv-x="600" 
d="M249 0v210h-207v95h207v210h102v-210h208v-95h-208v-210h-102z" />
    <glyph glyph-name="comma" unicode="," horiz-adv-x="278" 
d="M207 135v-102q0 -78 -30 -125.5t-106 -64.5v60q62 19 65 97h-65v135h136z" />
    <glyph glyph-name="hyphen" unicode="-" horiz-adv-x="389" 
d="M341 328v-106h-293v106h293z" />
    <glyph glyph-name="period" unicode="." horiz-adv-x="278" 
d="M207 135v-135h-136v135h136z" />
    <glyph glyph-name="slash" unicode="/" horiz-adv-x="352" 
d="M370 729l-287 -746h-101l289 746h99z" />
    <glyph glyph-name="zero" unicode="0" 
d="M276 706q244 0 244 -363q0 -175 -61 -266t-179 -91q-244 0 -244 359q0 177 61 269t179 92zM277 610q-30 0 -52 -11.5t-35.5 -35t-21.5 -47t-11.5 -59.5t-4.5 -59.5t-1 -59.5q0 -135 30.5 -196t97.5 -61q26 0 46.5 10.5t33.5 25.5t22 40t13.5 45.5t7 51t3 47t0.5 42.5
q0 34 -0.5 52.5t-3.5 56t-11.5 60.5t-22 48t-36.5 37.5t-54 12.5z" />
    <glyph glyph-name="one" unicode="1" 
d="M377 704v-704h-122v484h-174v84q182 0 204 136h92z" />
    <glyph glyph-name="two" unicode="2" 
d="M501 101v-101h-478q1 47 13 86t27.5 66.5t46 56t55 47t67.5 47.5q3 2 29.5 19.5t32.5 22t27 21t27.5 26.5t18 27t15.5 34.5t4 37.5q0 55 -30.5 86.5t-82.5 31.5q-30 0 -52 -9.5t-34.5 -24.5t-20.5 -38.5t-10.5 -44.5t-3.5 -49h-111v18q0 113 63.5 179.5t171.5 66.5
q102 0 164 -57.5t62 -152.5q0 -38 -12 -72t-25.5 -55t-46.5 -49t-49 -39t-59 -40q-125 -81 -150 -141h341z" />
    <glyph glyph-name="three" unicode="3" 
d="M44 475q3 108 64 170t164 62q97 0 157 -52t60 -136q0 -51 -26.5 -89.5t-71.5 -53.5q59 -15 93 -58.5t34 -106.5q0 -100 -69 -163t-179 -63q-109 0 -176 63t-67 167v15h110q5 -147 136 -147q58 0 92 33.5t34 91.5q0 61 -39 89t-101 28q-19 0 -36 -1v86h10q31 0 53 3.5
t44.5 13t34.5 31t12 53.5q0 46 -29 74t-78 28q-112 0 -117 -138h-109z" />
    <glyph glyph-name="four" unicode="4" 
d="M522 262v-96h-89v-166h-110l-1 166h-297v113l300 427h108v-444h89zM324 262v303l-205 -303h205z" />
    <glyph glyph-name="five" unicode="5" 
d="M477 696v-99h-279l-32 -180q47 50 132 50q97 0 157 -63t60 -166q0 -111 -70 -181t-180 -70q-104 0 -168.5 57.5t-68.5 154.5h113q4 -54 39 -86t88 -32q62 0 96 39.5t34 111.5q0 70 -35 108.5t-97 38.5q-75 0 -117 -63l-100 3l67 377h361z" />
    <glyph glyph-name="six" unicode="6" 
d="M507 522h-110q-18 96 -106 96q-25 0 -46 -10t-35 -23t-25 -37.5t-16.5 -41t-11 -47.5t-6.5 -43t-4 -40q58 86 160 86q97 0 156.5 -64t59.5 -167q0 -107 -66.5 -176t-169.5 -69q-121 0 -186 91t-65 260q0 175 69 273t191 98q89 0 145 -49t66 -137zM284 371
q-56 0 -89 -38.5t-33 -102.5q0 -67 34.5 -108t90.5 -41q55 0 88.5 40t33.5 106q0 65 -34 104.5t-91 39.5z" />
    <glyph glyph-name="seven" unicode="7" 
d="M514 696v-96q-109 -109 -179 -275.5t-76 -324.5h-125q4 142 83 317.5t184 273.5h-364v105h477z" />
    <glyph glyph-name="eight" unicode="8" 
d="M160 377q-47 17 -73.5 55.5t-26.5 90.5q0 82 61.5 134t159.5 52q94 0 154 -51.5t60 -131.5q0 -107 -99 -149q64 -22 96 -62t32 -107q0 -99 -68 -159.5t-179 -60.5q-110 0 -177.5 59t-67.5 155q0 65 33.5 110.5t94.5 64.5zM280 617q-52 0 -82.5 -27.5t-30.5 -73.5t31 -74
t81 -28t80 27.5t30 74.5q0 46 -29.5 73.5t-79.5 27.5zM277 332q-58 0 -94 -34.5t-36 -89.5q0 -60 36 -95t98 -35q60 0 94 33.5t34 93.5q0 58 -36 92.5t-96 34.5z" />
    <glyph glyph-name="nine" unicode="9" 
d="M44 174h110q4 -43 33 -70t77 -27q127 0 138 245q-57 -89 -156 -89q-94 0 -155 64.5t-61 165.5q0 107 67 176.5t171 69.5q57 0 101.5 -21t71.5 -54.5t44.5 -80t24 -92.5t6.5 -97q0 -69 -12.5 -131.5t-40 -120t-80.5 -92t-125 -34.5q-89 0 -149.5 53t-64.5 135zM264 613
q-54 0 -86.5 -40.5t-32.5 -106.5q0 -65 33 -103t88 -38t89 39t34 102q0 67 -34 107t-91 40z" />
    <glyph glyph-name="colon" unicode=":" horiz-adv-x="278" 
d="M207 135v-135h-136v135h136zM207 511v-135h-136v135h136z" />
    <glyph glyph-name="semicolon" unicode=";" horiz-adv-x="278" 
d="M207 511v-135h-136v135h136zM207 135v-102q0 -78 -30 -125.5t-106 -64.5v60q62 19 65 97h-65v135h136z" />
    <glyph glyph-name="less" unicode="&#x3c;" horiz-adv-x="600" 
d="M42 208v100l517 199v-106l-388 -143l388 -143v-108z" />
    <glyph glyph-name="equal" unicode="=" horiz-adv-x="600" 
d="M42 317v96h517v-96h-517zM42 102v96h517v-96h-517z" />
    <glyph glyph-name="greater" unicode="&#x3e;" horiz-adv-x="600" 
d="M559 208l-517 -201v108l388 143l-388 143v106l517 -199v-100z" />
    <glyph glyph-name="question" unicode="?" 
d="M208 0v127h129v-127h-129zM219 197q0 65 13.5 105.5t55.5 79.5q4 4 19.5 17.5t20.5 18.5t17 17.5t16.5 20.5t11 20.5t9 25t2.5 26.5q0 44 -29 72t-75 28q-117 0 -121 -142h-115q5 111 65 175.5t173 64.5q101 0 162.5 -54.5t61.5 -143.5q0 -33 -7 -59t-25 -49t-32 -37
t-45 -40q-50 -43 -60 -62.5t-10 -83.5h-108z" />
    <glyph glyph-name="at" unicode="@" horiz-adv-x="800" 
d="M695 129l28 -38q-78 -57 -150 -82.5t-156 -25.5q-163 0 -275.5 100.5t-112.5 262.5q0 163 116.5 273t286.5 110q149 0 244 -83.5t95 -215.5q0 -105 -62.5 -184t-145.5 -79q-37 0 -60 20t-23 53q0 8 3 22q-50 -95 -139 -95q-61 0 -98.5 42.5t-37.5 110.5q0 97 60.5 169.5
t140.5 72.5q85 0 114 -71l15 55h82l-65 -219q-12 -40 -12 -61q0 -19 11 -29.5t31 -10.5q50 0 91 64.5t41 144.5q0 109 -79 177t-205 68q-150 0 -250 -96t-100 -240q0 -137 94.5 -224.5t242.5 -87.5q143 0 275 97zM493 436q0 29 -18 48t-46 19q-37 0 -67 -34.5t-44.5 -76.5
t-14.5 -77q0 -41 17.5 -65t48.5 -24q36 0 66 40.5t44 88t14 81.5z" />
    <glyph glyph-name="A" unicode="A" horiz-adv-x="667" 
d="M400 713l275 -713h-134l-68 189h-282l-70 -189h-129l275 713h133zM440 283l-106 300l-111 -300h217z" />
    <glyph glyph-name="B" unicode="B" horiz-adv-x="704" 
d="M74 712h325q112 0 171.5 -48.5t59.5 -130.5q0 -51 -28 -91.5t-74 -58.5q62 -15 98 -60t36 -113q0 -94 -62.5 -152t-162.5 -58h-363v712zM196 611v-196h170q72 0 106 22.5t34 75.5q0 60 -35.5 79t-100.5 19h-174zM196 325v-223h187q72 0 113 24t41 87q0 35 -12.5 58.5
t-36 34.5t-48.5 15t-59 4h-185z" />
    <glyph glyph-name="C" unicode="C" horiz-adv-x="722" 
d="M685 271q-10 -131 -93.5 -209.5t-216.5 -78.5q-151 0 -242 102t-91 271q0 102 39 185.5t117 135t183 51.5q113 0 197 -62.5t101 -180.5h-124q-13 64 -60 100.5t-116 36.5q-71 0 -120.5 -40t-70 -98.5t-20.5 -127.5q0 -52 12 -98t36 -84.5t65.5 -61.5t96.5 -23
q159 0 182 182h125z" />
    <glyph glyph-name="D" unicode="D" horiz-adv-x="722" 
d="M75 712h271q74 0 130 -15.5t103 -57.5q105 -94 105 -271q0 -189 -100 -289q-44 -44 -95.5 -61.5t-135.5 -17.5h-278v712zM199 606v-501h147q117 0 165 68t48 189q0 115 -54 179.5t-167 64.5h-139z" />
    <glyph glyph-name="E" unicode="E" horiz-adv-x="630" 
d="M587 712v-105h-389v-189h361v-101h-361v-210h395v-107h-519v712h513z" />
    <glyph glyph-name="F" unicode="F" horiz-adv-x="593" 
d="M568 712v-106h-367v-194h322v-101h-322v-311h-126v712h493z" />
    <glyph glyph-name="G" unicode="G" horiz-adv-x="759" 
d="M700 381v-381h-80l-19 85q-85 -102 -222 -102q-150 0 -243.5 102t-93.5 266q0 161 94 268.5t254 107.5q116 0 202.5 -65t98.5 -177h-121q-11 64 -59.5 100.5t-121.5 36.5q-103 0 -162 -72t-59 -197q0 -126 59.5 -197.5t165.5 -71.5q93 0 143.5 58t50.5 143h-192v96h305z
" />
    <glyph glyph-name="H" unicode="H" horiz-adv-x="722" 
d="M649 712v-712h-125v320h-326v-320h-125v712h125v-283h326v283h125z" />
    <glyph glyph-name="I" unicode="I" horiz-adv-x="278" 
d="M202 712v-712h-126v712h126z" />
    <glyph glyph-name="J" unicode="J" horiz-adv-x="537" 
d="M470 712v-501q0 -112 -55.5 -170t-163.5 -58q-121 0 -173.5 61t-52.5 179v27h119v-39q0 -61 22 -93.5t81 -32.5q27 0 46 8.5t29 20t15.5 32.5t6.5 37.5t1 44.5v484h125z" />
    <glyph glyph-name="K" unicode="K" horiz-adv-x="685" 
d="M671 712l-285 -284l303 -428h-155l-234 341l-102 -102v-239h-124v712h124v-323l315 323h158z" />
    <glyph glyph-name="L" unicode="L" horiz-adv-x="574" 
d="M562 108v-108h-488v712h126v-604h362z" />
    <glyph glyph-name="M" unicode="M" horiz-adv-x="889" 
d="M815 712v-712h-119v549l-198 -549h-102l-203 549v-549h-118v712h175l199 -557l192 557h174z" />
    <glyph glyph-name="N" unicode="N" horiz-adv-x="722" 
d="M652 712v-712h-129l-332 524v-524h-118v712h131l328 -525v525h120z" />
    <glyph glyph-name="O" unicode="O" horiz-adv-x="760" 
d="M382 729q151 0 245.5 -103.5t94.5 -269.5t-95 -269.5t-247 -103.5q-153 0 -247.5 103t-94.5 270q0 162 92.5 267.5t251.5 105.5zM380 624q-98 0 -157 -72.5t-59 -193.5q0 -124 58.5 -197t159.5 -73q97 0 155.5 73.5t58.5 195.5t-58.5 194.5t-157.5 72.5z" />
    <glyph glyph-name="P" unicode="P" horiz-adv-x="667" 
d="M77 712h309q115 0 181.5 -54.5t66.5 -162.5q0 -102 -62 -161.5t-169 -59.5h-201v-274h-125v712zM202 608v-233h174q136 0 136 117q0 116 -147 116h-163z" />
    <glyph glyph-name="Q" unicode="Q" horiz-adv-x="760" 
d="M713 2l-61 -68l-106 90q-65 -41 -169 -41q-151 0 -245 102.5t-94 268.5q0 165 95.5 269t247.5 104q150 0 245 -103.5t95 -266.5q0 -85 -26.5 -157t-74.5 -118zM532 159q64 81 64 197q0 121 -59 193.5t-158 72.5q-98 0 -156.5 -72.5t-58.5 -193.5q0 -124 59 -197.5
t158 -73.5q42 0 80 17l-73 62l60 68z" />
    <glyph glyph-name="R" unicode="R" horiz-adv-x="704" 
d="M74 712h337q106 0 173 -47.5t67 -150.5q0 -64 -31 -109.5t-87 -65.5q26 -6 45 -18t29.5 -26t17.5 -36t9.5 -38.5t4.5 -43.5q1 -7 2.5 -27t2 -26.5t2 -22.5t2.5 -22.5t3.5 -19t4.5 -19t5 -15t7 -14.5t9 -11h-134q-3 4 -5.5 9.5t-4.5 12t-3 12t-2.5 15t-1.5 15.5l-2 18
l-2 18q0 6 -1 21t-1 21q-5 87 -36.5 119.5t-119.5 32.5h-166v-294h-124v712zM198 610v-223h165q36 0 61 4t50.5 14.5t39 34.5t13.5 61q0 34 -12 56.5t-34.5 33.5t-46 15t-55.5 4h-181z" />
    <glyph glyph-name="S" unicode="S" horiz-adv-x="648" 
d="M587 502h-119q-11 125 -155 125q-64 0 -100 -26.5t-36 -72.5q0 -43 26.5 -59t117.5 -39q24 -7 37 -10q119 -30 162 -54q95 -51 95 -159q0 -47 -16 -85t-43 -63.5t-64 -42.5t-77 -24.5t-83 -7.5q-134 0 -217 64t-83 188h123q0 -78 51 -115.5t133 -37.5q72 0 112.5 29.5
t40.5 82.5q0 34 -21.5 55.5t-46.5 30.5t-87 25q-7 2 -11 3q-133 34 -175 56q-87 45 -93 139v14q0 95 71.5 151.5t191.5 56.5q116 0 189 -55t77 -169z" />
    <glyph glyph-name="T" unicode="T" horiz-adv-x="593" 
d="M586 712v-108h-227v-604h-125v604h-227v108h579z" />
    <glyph glyph-name="U" unicode="U" horiz-adv-x="722" 
d="M653 712v-436q0 -290 -290 -290q-151 0 -222.5 72t-71.5 220v434h125v-459q0 -164 171 -164q52 0 85.5 14t49.5 43t22 62.5t6 83.5v420h125z" />
    <glyph glyph-name="V" unicode="V" horiz-adv-x="611" 
d="M-5 712h131l180 -563l184 563h127l-244 -712h-139z" />
    <glyph glyph-name="W" unicode="W" horiz-adv-x="944" 
d="M8 712h127l130 -542l146 542h127l141 -542l134 542h127l-197 -712h-127l-144 547l-147 -547h-129z" />
    <glyph glyph-name="X" unicode="X" horiz-adv-x="648" 
d="M-6 0l254 369l-236 343h149l162 -252l169 252h140l-236 -343l253 -369h-152l-178 272l-181 -272h-144z" />
    <glyph glyph-name="Y" unicode="Y" horiz-adv-x="648" 
d="M655 712l-268 -429v-283h-123v283l-269 429h144l189 -315l187 315h140z" />
    <glyph glyph-name="Z" unicode="Z" horiz-adv-x="630" 
d="M592 712v-99l-415 -505h427v-108h-585v103l412 501h-382v108h543z" />
    <glyph glyph-name="bracketleft" unicode="[" horiz-adv-x="296" 
d="M295 720v-89h-118v-722h118v-89h-224v900h224z" />
    <glyph glyph-name="backslash" unicode="\" horiz-adv-x="352" 
d="M259 -17l-256 746h92l256 -746h-92z" />
    <glyph glyph-name="bracketright" unicode="]" horiz-adv-x="296" 
d="M1 720h224v-900h-224v89h118v722h-118v89z" />
    <glyph glyph-name="asciicircum" unicode="^" horiz-adv-x="600" 
d="M80 271l175 425h90l175 -425h-103l-119 298l-115 -298h-103z" />
    <glyph glyph-name="underscore" unicode="_" horiz-adv-x="500" 
d="M0 -125v50h500v-50h-500z" />
    <glyph glyph-name="grave" unicode="`" horiz-adv-x="241" 
d="M98 727l91 -143h-83l-142 143h134z" />
    <glyph glyph-name="a" unicode="a" 
d="M55 357q18 175 226 175q97 0 154.5 -38t57.5 -118v-262q0 -22 5.5 -30t21.5 -8q12 0 26 2v-80q-44 -11 -74 -11q-73 0 -84 62q-65 -62 -181 -62q-80 0 -127 41.5t-47 112.5q0 22 5 41t11.5 33t21 26t24 20t31 15t32 10.5t36.5 7.5t34.5 5.5t35.5 4.5q61 8 83 13.5
t30 16.5q7 8 7 37q0 78 -106 78q-56 0 -82 -21t-33 -71h-108zM383 259q-13 -7 -30 -12.5t-27.5 -7t-33 -4.5t-29.5 -4q-21 -3 -33 -5.5t-29.5 -8.5t-27 -14.5t-16.5 -23t-7 -34.5q0 -37 24.5 -57t68.5 -20q76 0 117 41q23 23 23 89v61z" />
    <glyph glyph-name="b" unicode="b" horiz-adv-x="611" 
d="M174 712v-263q57 80 169 80q103 0 165.5 -73t62.5 -194q0 -125 -64 -200.5t-170 -75.5q-117 0 -169 84v-70h-107v712h113zM314 438q-67 1 -105.5 -47.5t-38.5 -133.5q0 -83 38.5 -131t105.5 -48q64 0 103 49.5t39 132.5q0 82 -38.5 130t-103.5 48z" />
    <glyph glyph-name="c" unicode="c" 
d="M528 195q-12 -95 -76 -151.5t-161 -56.5q-116 0 -185 73.5t-69 192.5q0 128 69.5 203.5t187.5 75.5q99 0 159.5 -50t70.5 -139h-113q-10 49 -40 75t-76 26q-66 0 -104 -49.5t-38 -135.5t36.5 -134t101.5 -48q51 0 83.5 30.5t41.5 87.5h112z" />
    <glyph glyph-name="d" unicode="d" horiz-adv-x="611" 
d="M549 712v-712h-107v71q-49 -85 -165 -85q-109 0 -173.5 74t-64.5 199q0 124 63.5 197.5t170.5 73.5q109 0 164 -81v263h112zM294 438q-65 0 -102.5 -47.5t-37.5 -129.5q0 -85 38.5 -134t105.5 -49t104.5 48t37.5 133t-38.5 132t-107.5 47z" />
    <glyph glyph-name="e" unicode="e" 
d="M522 161q-19 -84 -82.5 -131t-151.5 -47q-117 0 -185.5 75.5t-68.5 193.5q0 121 70.5 200t179.5 79q113 0 179 -77.5t66 -211.5v-12h-381q2 -78 39 -120.5t103 -42.5q47 0 76.5 22.5t46.5 71.5h109zM415 306q-5 65 -40.5 102.5t-91.5 37.5t-90.5 -36t-42.5 -104h265z" />
    <glyph glyph-name="f" unicode="f" horiz-adv-x="315" 
d="M316 713v-88q-33 3 -50 3q-35 0 -47 -12.5t-12 -49.5v-50h98v-83h-97v-433h-113v433h-85v83h85v41q0 81 35 120t118 39q34 0 68 -3z" />
    <glyph glyph-name="g" unicode="g" horiz-adv-x="593" 
d="M533 516v-456q0 -133 -56.5 -197t-191.5 -64q-212 0 -231 157h114q16 -77 120 -77q71 0 103.5 36t32.5 116v61q-56 -87 -164 -87q-103 0 -163.5 69.5t-60.5 187.5q0 121 63 194.5t167 73.5q55 0 92 -20.5t69 -65.5v72h106zM286 438q-64 0 -100.5 -46t-36.5 -128
q0 -78 37.5 -124t99.5 -46q64 0 101 47.5t37 128.5q0 79 -36.5 123.5t-101.5 44.5z" />
    <glyph glyph-name="h" unicode="h" horiz-adv-x="574" 
d="M174 712v-267q57 84 163 84q84 0 131 -45.5t47 -133.5v-350h-115v313q0 59 -20.5 90t-79.5 31q-66 0 -96 -43t-30 -114v-277h-113v712h113z" />
    <glyph glyph-name="i" unicode="i" horiz-adv-x="241" 
d="M177 715v-112h-114v112h114zM177 516v-516h-114v516h114z" />
    <glyph glyph-name="j" unicode="j" horiz-adv-x="241" 
d="M181 516v-543q0 -91 -33.5 -131t-118.5 -40q-15 0 -48 3v93q26 -2 27 -2q32 0 45.5 9t13.5 38v573h114zM181 716v-113h-114v113h114z" />
    <glyph glyph-name="k" unicode="k" horiz-adv-x="537" 
d="M518 516l-198 -189l216 -327h-139l-157 249l-68 -64v-185h-111v712h111v-401l206 205h140z" />
    <glyph glyph-name="l" unicode="l" horiz-adv-x="241" 
d="M177 712v-712h-113v712h113z" />
    <glyph glyph-name="m" unicode="m" horiz-adv-x="870" 
d="M169 516v-73q64 87 162 87q51 0 88.5 -23t55.5 -65q62 88 167 88q73 0 121 -43.5t48 -120.5v-366h-114v317q0 55 -19 86t-73 31q-55 0 -84 -34.5t-29 -96.5v-303h-114v323q0 55 -16.5 83t-68.5 28q-58 0 -88 -37.5t-30 -99.5v-297h-114v516h108z" />
    <glyph glyph-name="n" unicode="n" horiz-adv-x="574" 
d="M169 516v-76q62 90 171 90q88 0 131.5 -48t43.5 -138v-344h-114v300q0 31 -3 51.5t-12.5 41.5t-30.5 31.5t-54 10.5q-126 0 -126 -157v-278h-114v516h108z" />
    <glyph glyph-name="o" unicode="o" horiz-adv-x="593" 
d="M299 531q118 0 188 -74t70 -199q0 -126 -69.5 -200t-188.5 -74q-121 0 -192 74t-71 200q0 125 71.5 199t191.5 74zM297 441q-68 0 -107 -49t-39 -134q0 -87 39 -136t108 -49q67 0 105.5 49.5t38.5 136.5q0 85 -38.5 133.5t-106.5 48.5z" />
    <glyph glyph-name="p" unicode="p" horiz-adv-x="611" 
d="M169 516v-69q52 84 168 84q107 0 171 -75t64 -200q0 -122 -62.5 -195.5t-166.5 -73.5q-110 0 -168 81v-259h-113v707h107zM314 439q-67 0 -105 -48t-38 -133q0 -84 38.5 -132t106.5 -48q65 0 103 48t38 130q0 84 -38.5 133.5t-104.5 49.5z" />
    <glyph glyph-name="q" unicode="q" horiz-adv-x="611" 
d="M549 516v-707h-112v260q-61 -82 -169 -82q-105 0 -167 72.5t-62 196.5q0 127 63.5 201t172.5 74q114 0 167 -83v68h107zM294 439q-64 0 -102 -49.5t-38 -134.5q0 -82 38 -129.5t104 -47.5q68 0 106 48.5t38 134.5q0 84 -38.5 131t-107.5 47z" />
    <glyph glyph-name="r" unicode="r" horiz-adv-x="352" 
d="M352 526v-109q-30 3 -40 3q-149 0 -149 -193v-227h-113v516h107v-103q55 115 173 115z" />
    <glyph glyph-name="s" unicode="s" horiz-adv-x="519" 
d="M469 366h-109q-10 82 -112 82q-44 0 -68 -16t-24 -44q0 -9 1.5 -16t6 -12.5t8 -9.5t12.5 -8t14.5 -6.5t18.5 -6t20.5 -5.5t24.5 -5.5t26 -5.5q39 -9 56.5 -13.5t51 -18t49.5 -28t29.5 -40t13.5 -58.5q0 -78 -61 -124t-164 -46q-110 0 -169 46t-63 134h109q9 -97 125 -97
q50 0 80.5 20.5t30.5 54.5q0 17 -7.5 29t-24.5 20.5t-32.5 13t-41.5 10.5l-6 1q-2 1 -5 1.5t-6 1.5q-110 27 -140 42q-71 34 -71 113q0 73 56 114.5t155 41.5q95 0 155.5 -41t60.5 -124z" />
    <glyph glyph-name="t" unicode="t" horiz-adv-x="333" 
d="M312 516v-83h-104v-272q0 -24 1 -33.5t6 -21t17.5 -15.5t34.5 -4q28 0 45 2v-90q-34 -4 -77 -4q-30 0 -52.5 4.5t-37.5 10.5t-25 20.5t-15.5 24t-8 33.5t-2.5 36v44v6v6v7v246h-86v83h86v155h114v-155h104z" />
    <glyph glyph-name="u" unicode="u" horiz-adv-x="574" 
d="M513 516v-516h-107v77q-65 -91 -170 -91q-85 0 -130.5 48.5t-45.5 139.5v342h114v-295q0 -27 1 -43.5t6.5 -37t16 -31.5t30 -19t47.5 -8q64 0 94 45.5t30 115.5v273h114z" />
    <glyph glyph-name="v" unicode="v" horiz-adv-x="519" 
d="M8 516h124l132 -397l127 397h118l-185 -517h-128z" />
    <glyph glyph-name="w" unicode="w" horiz-adv-x="778" 
d="M12 516h121l102 -387l97 387h115l95 -387l107 387h116l-163 -516h-117l-97 383l-96 -383h-120z" />
    <glyph glyph-name="x" unicode="x" horiz-adv-x="537" 
d="M198 271l-179 245h138l108 -159l113 159h132l-175 -239l197 -277h-137l-131 190l-127 -190h-134z" />
    <glyph glyph-name="y" unicode="y" horiz-adv-x="519" 
d="M515 516l-191 -506q-3 -7 -11 -29.5t-11 -30.5t-11.5 -28t-13.5 -28l-15 -24q-10 -16 -18.5 -23t-21 -17.5t-25.5 -15t-29.5 -8t-35.5 -3.5q-32 0 -79 6v96q36 -7 60 -7q12 0 22 3.5t18 12t14 16t11.5 21t8.5 21t8 23.5t6 20l-198 501h125l138 -380l130 380h119z" />
    <glyph glyph-name="z" unicode="z" horiz-adv-x="500" 
d="M462 516v-80l-292 -344h307v-92h-455v87l288 339h-268v90h420z" />
    <glyph glyph-name="braceleft" unicode="{" horiz-adv-x="296" 
d="M-24 300q69 11 98.5 39.5t29.5 89.5v76q0 116 52.5 163t163.5 52v-61q-63 -6 -90.5 -39t-27.5 -103v-58q0 -87 -28.5 -133t-110.5 -56q85 -13 112 -57t27 -133v-60q0 -65 27 -99.5t91 -39.5v-61q-115 6 -165.5 51t-50.5 162v59q0 74 -25 104t-103 43v61z" />
    <glyph glyph-name="bar" unicode="|" horiz-adv-x="222" 
d="M61 -214v1000h100v-1000h-100z" />
    <glyph glyph-name="braceright" unicode="}" horiz-adv-x="296" 
d="M320 239q-78 -13 -103 -43t-25 -104v-59q0 -117 -50.5 -162t-165.5 -51v61q64 5 91 39.5t27 99.5v60q0 89 27 133t112 57q-82 10 -110.5 56t-28.5 133v58q0 70 -27.5 103t-90.5 39v61q111 -5 163.5 -52t52.5 -163v-76q0 -61 29.5 -89.5t98.5 -39.5v-61z" />
    <glyph glyph-name="asciitilde" unicode="~" horiz-adv-x="600" 
d="M567 340q-8 -79 -45 -121t-98 -42q-33 0 -134 32q-7 3 -29 10.5t-36 12.5t-31.5 9.5t-28.5 4.5q-26 0 -44.5 -19.5t-22.5 -51.5h-65q7 70 42 117t100 47q30 0 135 -34q10 -3 27.5 -9t24.5 -8l20 -7q12 -4 19.5 -5.5t17 -2.5t18.5 -1q53 0 65 68h65z" />
    <glyph glyph-name="uni007F.controlDEL" horiz-adv-x="0" 
 />
    <glyph glyph-name="uni00A0" unicode="&#xa0;" horiz-adv-x="278" 
 />
    <glyph glyph-name="exclamdown" unicode="&#xa1;" horiz-adv-x="278" 
d="M206 531v-125h-134v125h134zM202 21v-204h-125v204l33 311h59z" />
    <glyph glyph-name="cent" unicode="&#xa2;" 
d="M268 -104v90q-105 0 -168 77.5t-63 189.5q0 125 64.5 201.5t166.5 76.5v90h43v-90q85 0 146 -51t67 -136h-114q-5 43 -32.5 70t-66.5 27v-365q91 16 103 118h114q-18 -98 -72.5 -153t-144.5 -55v-90h-43zM268 76v365q-61 -6 -89 -61t-28 -127q0 -67 29 -117.5t88 -59.5z
" />
    <glyph glyph-name="sterling" unicode="&#xa3;" 
d="M218 383h146v-63h-118v-1q12 -36 12 -69q0 -42 -23 -79.5t-77 -81.5q55 25 101 25q33 0 76 -12q51 -15 74 -15q55 0 94 39l51 -85q-55 -55 -151 -55q-32 0 -115 24q-57 17 -95 17q-42 0 -103 -39l-54 81q109 74 109 168q0 35 -23 83h-89v63h58q-16 21 -29 63.5t-13 69.5
q0 91 66.5 148t173.5 57q115 0 178.5 -63t63.5 -176h-113q-5 141 -129 141q-52 0 -85.5 -32t-33.5 -81q0 -8 1.5 -17t3 -16t5.5 -17.5t6 -15.5t8 -16.5t7.5 -14.5t8.5 -16t8 -14z" />
    <glyph glyph-name="currency" unicode="&#xa4;" 
d="M34 160l66 66q-37 60 -37 120q0 66 37 120l-66 66l58 58l66 -66q49 37 120 37q62 0 121 -37l65 66l58 -58l-66 -66q37 -49 37 -121q0 -61 -37 -119l66 -66l-58 -58l-66 66q-50 -37 -119 -37q-67 0 -121 37l-66 -66zM278 474q-53 0 -90.5 -37.5t-37.5 -90.5t37.5 -90.5
t90.5 -37.5t90.5 37.5t37.5 90.5t-37.5 90.5t-90.5 37.5z" />
    <glyph glyph-name="yen" unicode="&#xa5;" 
d="M221 0v165h-137v65h137v68h-137v65h98l-187 351h127l156 -320l159 320h124l-188 -351h99v-65h-137v-68h137v-65h-137v-165h-114z" />
    <glyph glyph-name="brokenbar" unicode="&#xa6;" horiz-adv-x="222" 
d="M61 -89v250h100v-250h-100zM61 411v250h100v-250h-100z" />
    <glyph glyph-name="section" unicode="&#xa7;" 
d="M479 541h-105q-3 46 -27 70t-66 24q-38 0 -61 -19.5t-23 -51.5q0 -10 3 -19t6.5 -16t12.5 -15.5t16 -14t23 -15t27 -15.5t34 -18.5t38 -20.5q87 -48 114 -71q60 -51 60 -119q0 -49 -27 -88t-76 -59q55 -44 55 -115q0 -74 -56.5 -121t-144.5 -47q-97 0 -153 51t-58 140
h107q11 -100 105 -100q39 0 63.5 20.5t24.5 53.5q0 38 -37 65.5t-159 92.5q-47 24 -75 44t-51.5 56.5t-23.5 82.5q0 51 28.5 90t76.5 53q-44 45 -44 102q0 72 55 117.5t142 45.5q89 0 142.5 -50t53.5 -133zM189 405q-28 -8 -45.5 -30.5t-17.5 -49.5q0 -46 59 -78l181 -102
q27 9 44.5 31.5t17.5 47.5q0 44 -56 76z" />
    <glyph glyph-name="dieresis" unicode="&#xa8;" horiz-adv-x="241" 
d="M91 602h-114v108h114v-108zM149 710h114v-108h-114v108z" />
    <glyph glyph-name="copyright" unicode="&#xa9;" horiz-adv-x="800" 
d="M400 729q154 0 263.5 -109.5t109.5 -263.5t-109.5 -263.5t-263.5 -109.5t-263.5 109.5t-109.5 263.5t109.5 263.5t263.5 109.5zM400 680q-134 0 -229 -95t-95 -229t95 -229t229 -95t229 95t95 229t-95 229t-229 95zM585 288q-7 -65 -56.5 -107.5t-118.5 -42.5
q-89 0 -147.5 62.5t-58.5 156.5q0 96 55.5 158t141.5 62q74 0 126 -44t56 -111h-76q-8 42 -35.5 66t-68.5 24q-53 0 -85 -42t-32 -110q0 -72 33 -114.5t89 -42.5q82 0 101 85h76z" />
    <glyph glyph-name="ordfeminine" unicode="&#xaa;" horiz-adv-x="380" 
d="M331 621v-151q0 -12 3 -17.5t14 -4.5h7q6 0 9 1v-68q-22 -8 -47 -8q-53 0 -62 49q-14 -21 -49.5 -35t-67.5 -14q-51 0 -86.5 24.5t-35.5 68.5q0 27 11 45.5t34 29t40.5 15.5t49.5 10q70 11 83 20q10 7 10 18q0 29 -16 37t-44 8q-66 0 -70 -42h-85q6 57 50.5 82t109.5 25
q58 0 100 -23.5t42 -69.5zM244 491v44q-11 -6 -37.5 -10.5t-48 -7.5t-38.5 -14.5t-17 -31.5q0 -33 56 -33q85 0 85 53z" />
    <glyph glyph-name="guillemotleft" unicode="&#xab;" horiz-adv-x="463" 
d="M402 441v-104l-95 -72l95 -74v-103l-155 121v110zM207 441v-102l-97 -73l97 -75v-104l-157 124v108z" />
    <glyph glyph-name="logicalnot" unicode="&#xac;" horiz-adv-x="600" 
d="M42 317v96h517v-311h-98v215h-419z" />
    <glyph glyph-name="uni00AD" unicode="&#xad;" horiz-adv-x="389" 
d="M49 218v108h291v-108h-291z" />
    <glyph glyph-name="registered" unicode="&#xae;" horiz-adv-x="400" 
d="M199 729q77 0 132 -54.5t55 -131.5q1 -77 -54.5 -132t-132.5 -55t-131.5 55t-54.5 132t54.5 131.5t131.5 54.5zM199 697q-64 0 -109 -45t-45 -109t45 -109.5t109 -45.5t109 45.5t45 109.5t-45 109t-109 45zM122 646h73q91 0 91 -60q0 -36 -37 -49q19 -7 26 -21.5t8 -46.5
q0 -15 5 -28h-46q-4 12 -4 28q-1 31 -10 40t-38 9h-22v-77h-46v205zM168 554h25q46 0 46 28q0 27 -46 27h-25v-55z" />
    <glyph glyph-name="macron" unicode="&#xaf;" horiz-adv-x="241" 
d="M265 624h-288v65h288v-65z" />
    <glyph glyph-name="degree" unicode="&#xb0;" horiz-adv-x="400" 
d="M200 706q67 0 114 -47t47 -114t-47 -114t-114 -47t-114 47t-47 114t47 114t114 47zM200 624q-33 0 -56 -23t-23 -56q0 -32 23 -55.5t56 -23.5t56 23.5t23 55.5q0 33 -23 56t-56 23z" />
    <glyph glyph-name="plusminus" unicode="&#xb1;" horiz-adv-x="600" 
d="M249 115v158h-207v96h207v162h102v-162h208v-96h-208v-158h-102zM42 -16v95h517v-95h-517z" />
    <glyph glyph-name="twosuperior" unicode="&#xb2;" horiz-adv-x="360" 
d="M336 343v-70h-315q1 108 100 171q8 6 44 28.5t49 33t28.5 32t16.5 44.5q0 31 -21 46.5t-52 15.5q-67 0 -73 -93h-87q0 76 44 119.5t120 43.5q68 0 112 -32.5t44 -97.5q0 -76 -102 -141q-11 -7 -38 -24t-39 -25t-25.5 -22.5t-18.5 -28.5h213z" />
    <glyph glyph-name="threesuperior" unicode="&#xb3;" horiz-adv-x="360" 
d="M146 475v58q42 -2 71.5 13t29.5 48q0 24 -21 37t-48 13q-33 0 -54 -21.5t-19 -54.5h-80q3 69 44 107.5t110 38.5q63 0 105.5 -28.5t42.5 -87.5q0 -68 -64 -90v-2q38 -7 60 -35t22 -70q0 -64 -47 -100.5t-118 -36.5q-159 0 -164 155h80q-2 -36 20.5 -60.5t63.5 -24.5
q36 0 60.5 19.5t24.5 51.5q0 76 -119 70z" />
    <glyph glyph-name="acute" unicode="&#xb4;" horiz-adv-x="241" 
d="M45 589l90 143h135l-142 -143h-83z" />
    <glyph glyph-name="mu" unicode="&#xb5;" horiz-adv-x="574" 
d="M56 -191v707h114v-229q0 -106 15 -145q24 -66 96 -66q33 0 56.5 14t36.5 34t20 50.5t9 55.5t2 57v229h114v-516h-97v71q-29 -42 -61.5 -62t-81.5 -20q-44 0 -71.5 19t-37.5 37v-236h-114z" />
    <glyph glyph-name="paragraph" unicode="&#xb6;" horiz-adv-x="600" 
d="M569 635h-54v-817h-93v817h-111v-817h-94v431q-94 7 -147 66.5t-53 155.5q0 111 70 176t190 65h292v-77z" />
    <glyph glyph-name="periodcentered" unicode="&#xb7;" horiz-adv-x="278" 
d="M207 358v-135h-136v135h136z" />
    <glyph glyph-name="cedilla" unicode="&#xb8;" horiz-adv-x="241" 
d="M9 -200l18 40q35 -16 65 -16q61 0 61 41q0 18 -13.5 28t-32.5 10q-23 0 -39 -10l-22 19l66 88h48l-46 -59l1 -1q11 4 33 4q33 0 59 -19.5t26 -55.5q0 -46 -36 -69t-85 -23q-61 0 -103 23z" />
    <glyph glyph-name="onesuperior" unicode="&#xb9;" horiz-adv-x="360" 
d="M36 577v58q120 0 138 70h70v-432h-87v304h-121z" />
    <glyph glyph-name="ordmasculine" unicode="&#xba;" horiz-adv-x="380" 
d="M371 543q0 -79 -46 -124.5t-132 -45.5t-132 45.5t-46 124.5t46 125t132 46t132 -46t46 -125zM284 543q0 42 -24 74t-67 32q-44 0 -67.5 -32t-23.5 -74t24 -73.5t67 -31.5q44 0 66 31t25 74z" />
    <glyph glyph-name="guillemotright" unicode="&#xbb;" horiz-adv-x="463" 
d="M256 442l157 -125v-108l-157 -121v102l96 72l-96 76v104zM61 441l154 -122v-109l-154 -120v101l95 72l-95 74v104z" />
    <glyph glyph-name="onequarter" unicode="&#xbc;" horiz-adv-x="834" 
d="M141 -24l419 748h78l-418 -748h-79zM37 577v58q120 0 138 70h70v-432h-87v304h-121zM632 172v158h-2l-117 -158h119zM719 97v-97h-87v97h-195v81l185 250h97v-256h47v-75h-47z" />
    <glyph glyph-name="onehalf" unicode="&#xbd;" horiz-adv-x="834" 
d="M788 70v-70h-315q0 47 17.5 84t44 58t57.5 41t57.5 35t44 38.5t17.5 52.5q0 31 -20.5 49t-52.5 18q-67 0 -73 -98h-87q0 79 43 123.5t121 44.5q68 0 112 -34.5t44 -100.5q0 -46 -26.5 -77t-75.5 -64q-6 -4 -22 -13.5t-23 -13.5t-20 -12.5t-20 -14.5t-15.5 -14t-13 -16
t-7.5 -16h213zM36 577v58q120 0 138 70h70v-432h-87v304h-121zM137 -24l419 748h78l-418 -748h-79z" />
    <glyph glyph-name="threequarters" unicode="&#xbe;" horiz-adv-x="834" 
d="M146 474v58q41 -2 71 13.5t30 48.5q0 24 -21 37t-48 13q-33 0 -54 -21.5t-19 -54.5h-80q3 69 44 107.5t110 38.5q63 0 105.5 -28.5t42.5 -87.5q0 -68 -64 -90v-2q38 -7 60 -35t22 -70q0 -64 -47 -100.5t-118 -36.5q-159 0 -164 155h80q-2 -36 20.5 -60.5t63.5 -24.5
q36 0 60.5 19.5t24.5 51.5q0 75 -119 69zM196 -24l419 748h78l-418 -748h-79zM669 172v158h-2l-117 -158h119zM756 97v-97h-87v97h-195v81l183 250h99v-256h47v-75h-47z" />
    <glyph glyph-name="questiondown" unicode="&#xbf;" 
d="M210 531h134v-125h-134v125zM393 39h114q0 -107 -65 -173t-175 -66q-94 0 -156 53t-62 144q0 44 14.5 77.5t29 48.5t44.5 40q33 28 47.5 43t27.5 48t13 78h108q0 -83 -17.5 -125t-60.5 -78q-4 -4 -15.5 -13.5t-15.5 -13t-13 -12.5t-13 -14t-9.5 -14.5t-8 -17.5
t-4.5 -19.5t-2 -23.5q0 -51 32 -78.5t66 -27.5q60 0 90.5 39t30.5 105z" />
    <glyph glyph-name="Agrave" unicode="&#xc0;" horiz-adv-x="667" 
d="M400 713l275 -713h-134l-68 189h-282l-70 -189h-129l275 713h133zM440 283l-106 300l-111 -300h217zM298 921l91 -143h-83l-142 143h134z" />
    <glyph glyph-name="Aacute" unicode="&#xc1;" horiz-adv-x="667" 
d="M400 713l275 -713h-134l-68 189h-282l-70 -189h-129l275 713h133zM440 283l-106 300l-111 -300h217zM274 783l90 143h135l-142 -143h-83z" />
    <glyph glyph-name="Acircumflex" unicode="&#xc2;" horiz-adv-x="667" 
d="M400 713l275 -713h-134l-68 189h-282l-70 -189h-129l275 713h133zM440 283l-106 300l-111 -300h217zM332 873l-70 -90h-92l107 143h111l108 -143h-93z" />
    <glyph glyph-name="Atilde" unicode="&#xc3;" horiz-adv-x="667" 
d="M400 713l275 -713h-134l-68 189h-282l-70 -189h-129l275 713h133zM440 283l-106 300l-111 -300h217zM455 914h56q-9 -55 -33 -81q-28 -34 -78 -34q-31 0 -74 19q-43 18 -68 18q-35 0 -43 -41h-57q7 44 34.5 78.5t69.5 34.5q33 0 81 -20q42 -18 62 -18q39 0 50 44z" />
    <glyph glyph-name="Adieresis" unicode="&#xc4;" horiz-adv-x="667" 
d="M400 713l275 -713h-134l-68 189h-282l-70 -189h-129l275 713h133zM440 283l-106 300l-111 -300h217zM304 796h-114v108h114v-108zM362 904h114v-108h-114v108z" />
    <glyph glyph-name="Aring" unicode="&#xc5;" horiz-adv-x="667" 
d="M400 713l275 -713h-134l-68 189h-282l-70 -189h-129l275 713h133zM440 283l-106 300l-111 -300h217zM272 854q0 -26 17.5 -43.5t42.5 -17.5q26 0 43 17.5t17 43.5q0 27 -17 44t-43 17q-25 0 -42.5 -17t-17.5 -44zM332 751q-44 0 -74 29t-30 74t30.5 74t73.5 29t73.5 -29
t30.5 -74t-30.5 -74t-73.5 -29z" />
    <glyph glyph-name="AE" unicode="&#xc6;" horiz-adv-x="963" 
d="M-7 0l355 714h576v-108h-348v-187h326v-102h-326v-209h354v-108h-473v183h-239l-86 -183h-139zM421 606l-157 -328h193v328h-36z" />
    <glyph glyph-name="Ccedilla" unicode="&#xc7;" horiz-adv-x="722" 
d="M562 272h122q-8 -128 -89.5 -207t-207.5 -81l-32 -42v-2q8 3 33 3q33 0 59 -19.5t26 -54.5q0 -47 -35.5 -68.5t-85.5 -21.5q-65 0 -103 21l18 40q48 -16 65 -16q61 0 61 41q0 18 -13.5 28t-32.5 10q-23 0 -39 -10l-22 19l55 73q-139 14 -221 119.5t-82 252.5
q0 158 93.5 266t248.5 108q124 0 207.5 -65.5t95.5 -178.5h-125q-36 142 -178 142q-107 0 -162 -79.5t-55 -192.5t55 -192.5t162 -79.5q80 0 126.5 52t55.5 135z" />
    <glyph glyph-name="Egrave" unicode="&#xc8;" horiz-adv-x="630" 
d="M587 712v-105h-389v-189h361v-101h-361v-210h395v-107h-519v712h513zM316 921l91 -143h-83l-142 143h134z" />
    <glyph glyph-name="Eacute" unicode="&#xc9;" horiz-adv-x="630" 
d="M587 712v-105h-389v-189h361v-101h-361v-210h395v-107h-519v712h513zM277 783l90 143h135l-142 -143h-83z" />
    <glyph glyph-name="Ecircumflex" unicode="&#xca;" horiz-adv-x="630" 
d="M587 712v-105h-389v-189h361v-101h-361v-210h395v-107h-519v712h513zM333 873l-70 -90h-92l107 143h111l108 -143h-93z" />
    <glyph glyph-name="Edieresis" unicode="&#xcb;" horiz-adv-x="630" 
d="M587 712v-105h-389v-189h361v-101h-361v-210h395v-107h-519v712h513zM307 796h-114v108h114v-108zM365 904h114v-108h-114v108z" />
    <glyph glyph-name="Igrave" unicode="&#xcc;" horiz-adv-x="278" 
d="M202 712v-712h-126v712h126zM103 921l91 -143h-83l-142 143h134z" />
    <glyph glyph-name="Iacute" unicode="&#xcd;" horiz-adv-x="278" 
d="M202 712v-712h-126v712h126zM77 783l90 143h135l-142 -143h-83z" />
    <glyph glyph-name="Icircumflex" unicode="&#xce;" horiz-adv-x="278" 
d="M202 712v-712h-126v712h126zM138 873l-70 -90h-92l107 143h111l108 -143h-93z" />
    <glyph glyph-name="Idieresis" unicode="&#xcf;" horiz-adv-x="278" 
d="M202 712v-712h-126v712h126zM110 796h-114v108h114v-108zM168 904h114v-108h-114v108z" />
    <glyph glyph-name="Eth" unicode="&#xd0;" horiz-adv-x="722" 
d="M201 612v-193h195v-102h-195v-215h123q71 0 119.5 19t73.5 55.5t35 79.5t10 101t-10 101t-35 79.5t-73.5 55.5t-119.5 19h-123zM76 0v317h-67v102h67v295h296q157 0 236 -99.5t79 -257.5t-79 -257.5t-236 -99.5h-296z" />
    <glyph glyph-name="Ntilde" unicode="&#xd1;" horiz-adv-x="722" 
d="M652 712v-712h-129l-332 524v-524h-118v712h131l328 -525v525h120zM482 914h56q-9 -55 -33 -81q-28 -34 -78 -34q-31 0 -74 19q-43 18 -68 18q-35 0 -43 -41h-57q7 44 34.5 78.5t69.5 34.5q33 0 81 -20q42 -18 62 -18q39 0 50 44z" />
    <glyph glyph-name="Ograve" unicode="&#xd2;" horiz-adv-x="760" 
d="M382 729q151 0 245.5 -103.5t94.5 -269.5t-95 -269.5t-247 -103.5q-153 0 -247.5 103t-94.5 270q0 162 92.5 267.5t251.5 105.5zM380 624q-98 0 -157 -72.5t-59 -193.5q0 -124 58.5 -197t159.5 -73q97 0 155.5 73.5t58.5 195.5t-58.5 194.5t-157.5 72.5zM316 921l91 -143
h-83l-142 143h134z" />
    <glyph glyph-name="Oacute" unicode="&#xd3;" horiz-adv-x="760" 
d="M382 729q151 0 245.5 -103.5t94.5 -269.5t-95 -269.5t-247 -103.5q-153 0 -247.5 103t-94.5 270q0 162 92.5 267.5t251.5 105.5zM380 624q-98 0 -157 -72.5t-59 -193.5q0 -124 58.5 -197t159.5 -73q97 0 155.5 73.5t58.5 195.5t-58.5 194.5t-157.5 72.5zM333 783l90 143
h135l-142 -143h-83z" />
    <glyph glyph-name="Ocircumflex" unicode="&#xd4;" horiz-adv-x="760" 
d="M382 729q151 0 245.5 -103.5t94.5 -269.5t-95 -269.5t-247 -103.5q-153 0 -247.5 103t-94.5 270q0 162 92.5 267.5t251.5 105.5zM380 624q-98 0 -157 -72.5t-59 -193.5q0 -124 58.5 -197t159.5 -73q97 0 155.5 73.5t58.5 195.5t-58.5 194.5t-157.5 72.5zM382 873l-70 -90
h-92l107 143h111l108 -143h-93z" />
    <glyph glyph-name="Otilde" unicode="&#xd5;" horiz-adv-x="760" 
d="M382 729q151 0 245.5 -103.5t94.5 -269.5t-95 -269.5t-247 -103.5q-153 0 -247.5 103t-94.5 270q0 162 92.5 267.5t251.5 105.5zM380 624q-98 0 -157 -72.5t-59 -193.5q0 -124 58.5 -197t159.5 -73q97 0 155.5 73.5t58.5 195.5t-58.5 194.5t-157.5 72.5zM505 914h56
q-9 -55 -33 -81q-28 -34 -78 -34q-31 0 -74 19q-43 18 -68 18q-35 0 -43 -41h-57q7 44 34.5 78.5t69.5 34.5q33 0 81 -20q42 -18 62 -18q39 0 50 44z" />
    <glyph glyph-name="Odieresis" unicode="&#xd6;" horiz-adv-x="760" 
d="M382 729q151 0 245.5 -103.5t94.5 -269.5t-95 -269.5t-247 -103.5q-153 0 -247.5 103t-94.5 270q0 162 92.5 267.5t251.5 105.5zM380 624q-98 0 -157 -72.5t-59 -193.5q0 -124 58.5 -197t159.5 -73q97 0 155.5 73.5t58.5 195.5t-58.5 194.5t-157.5 72.5zM352 796h-114
v108h114v-108zM410 904h114v-108h-114v108z" />
    <glyph glyph-name="multiply" unicode="&#xd7;" horiz-adv-x="600" 
d="M229 253l-174 174l86 56l158 -159l160 159l86 -56l-175 -174l175 -174l-86 -56l-160 160l-158 -160l-86 56z" />
    <glyph glyph-name="Oslash" unicode="&#xd8;" horiz-adv-x="760" 
d="M677 734l43 -36l-79 -89q81 -106 81 -252q0 -159 -93.5 -266.5t-248.5 -107.5q-132 0 -222 82l-76 -85l-42 36l79 90q-81 104 -81 251q0 158 93.5 266t248.5 108q133 0 222 -81zM560 518l-328 -370q58 -63 148 -63q107 0 162 79.5t55 192.5q0 97 -37 161zM199 196
l329 370q-53 63 -148 63q-107 0 -162 -79.5t-55 -192.5q0 -93 36 -161z" />
    <glyph glyph-name="Ugrave" unicode="&#xd9;" horiz-adv-x="722" 
d="M653 712v-436q0 -290 -290 -290q-151 0 -222.5 72t-71.5 220v434h125v-459q0 -164 171 -164q52 0 85.5 14t49.5 43t22 62.5t6 83.5v420h125zM317 921l91 -143h-83l-142 143h134z" />
    <glyph glyph-name="Uacute" unicode="&#xda;" horiz-adv-x="722" 
d="M653 712v-436q0 -290 -290 -290q-151 0 -222.5 72t-71.5 220v434h125v-459q0 -164 171 -164q52 0 85.5 14t49.5 43t22 62.5t6 83.5v420h125zM308 783l90 143h135l-142 -143h-83z" />
    <glyph glyph-name="Ucircumflex" unicode="&#xdb;" horiz-adv-x="722" 
d="M653 712v-436q0 -290 -290 -290q-151 0 -222.5 72t-71.5 220v434h125v-459q0 -164 171 -164q52 0 85.5 14t49.5 43t22 62.5t6 83.5v420h125zM362 873l-70 -90h-92l107 143h111l108 -143h-93z" />
    <glyph glyph-name="Udieresis" unicode="&#xdc;" horiz-adv-x="722" 
d="M653 712v-436q0 -290 -290 -290q-151 0 -222.5 72t-71.5 220v434h125v-459q0 -164 171 -164q52 0 85.5 14t49.5 43t22 62.5t6 83.5v420h125zM331 796h-114v108h114v-108zM389 904h114v-108h-114v108z" />
    <glyph glyph-name="Yacute" unicode="&#xdd;" horiz-adv-x="648" 
d="M655 712l-268 -429v-283h-123v283l-269 429h144l189 -315l187 315h140zM283 783l90 143h135l-142 -143h-83z" />
    <glyph glyph-name="Thorn" unicode="&#xde;" horiz-adv-x="667" 
d="M201 504v-236h183q50 0 87.5 28t37.5 90q0 118 -123 118h-185zM76 0v714h125v-108h190q72 0 123 -21t75.5 -57t34.5 -70.5t10 -72.5t-10 -72.5t-34.5 -69.5t-75.5 -56t-123 -21h-190v-166h-125z" />
    <glyph glyph-name="germandbls" unicode="&#xdf;" horiz-adv-x="574" 
d="M63 0v523q0 96 61 152t158 56q86 0 149.5 -49t63.5 -131q0 -53 -26 -94.5t-76 -56.5v-2q61 -8 97.5 -57.5t36.5 -113.5q0 -106 -62.5 -173.5t-166.5 -67.5q-28 0 -56 3v90q11 -3 39 -3q42 0 70 14t40.5 39.5t17 49t4.5 53.5q0 66 -55 98q-39 25 -115 25v75q70 0 99 26
q39 31 39 84q0 101 -101 101q-43 0 -73 -29t-30 -101v-511h-114z" />
    <glyph glyph-name="agrave" unicode="&#xe0;" 
d="M55 357q18 175 226 175q97 0 154.5 -38t57.5 -118v-262q0 -22 5.5 -30t21.5 -8q12 0 26 2v-80q-44 -11 -74 -11q-73 0 -84 62q-65 -62 -181 -62q-80 0 -127 41.5t-47 112.5q0 22 5 41t11.5 33t21 26t24 20t31 15t32 10.5t36.5 7.5t34.5 5.5t35.5 4.5q61 8 83 13.5
t30 16.5q7 8 7 37q0 78 -106 78q-56 0 -82 -21t-33 -71h-108zM383 259q-13 -7 -30 -12.5t-27.5 -7t-33 -4.5t-29.5 -4q-21 -3 -33 -5.5t-29.5 -8.5t-27 -14.5t-16.5 -23t-7 -34.5q0 -37 24.5 -57t68.5 -20q76 0 117 41q23 23 23 89v61zM256 727l91 -143h-83l-142 143h134z
" />
    <glyph glyph-name="aacute" unicode="&#xe1;" 
d="M55 357q18 175 226 175q97 0 154.5 -38t57.5 -118v-262q0 -22 5.5 -30t21.5 -8q12 0 26 2v-80q-44 -11 -74 -11q-73 0 -84 62q-65 -62 -181 -62q-80 0 -127 41.5t-47 112.5q0 22 5 41t11.5 33t21 26t24 20t31 15t32 10.5t36.5 7.5t34.5 5.5t35.5 4.5q61 8 83 13.5
t30 16.5q7 8 7 37q0 78 -106 78q-56 0 -82 -21t-33 -71h-108zM383 259q-13 -7 -30 -12.5t-27.5 -7t-33 -4.5t-29.5 -4q-21 -3 -33 -5.5t-29.5 -8.5t-27 -14.5t-16.5 -23t-7 -34.5q0 -37 24.5 -57t68.5 -20q76 0 117 41q23 23 23 89v61zM224 589l90 143h135l-142 -143h-83z
" />
    <glyph glyph-name="acircumflex" unicode="&#xe2;" 
d="M55 357q18 175 226 175q97 0 154.5 -38t57.5 -118v-262q0 -22 5.5 -30t21.5 -8q12 0 26 2v-80q-44 -11 -74 -11q-73 0 -84 62q-65 -62 -181 -62q-80 0 -127 41.5t-47 112.5q0 22 5 41t11.5 33t21 26t24 20t31 15t32 10.5t36.5 7.5t34.5 5.5t35.5 4.5q61 8 83 13.5
t30 16.5q7 8 7 37q0 78 -106 78q-56 0 -82 -21t-33 -71h-108zM383 259q-13 -7 -30 -12.5t-27.5 -7t-33 -4.5t-29.5 -4q-21 -3 -33 -5.5t-29.5 -8.5t-27 -14.5t-16.5 -23t-7 -34.5q0 -37 24.5 -57t68.5 -20q76 0 117 41q23 23 23 89v61zM284 679l-70 -90h-92l107 143h111
l108 -143h-93z" />
    <glyph glyph-name="atilde" unicode="&#xe3;" 
d="M55 357q18 175 226 175q97 0 154.5 -38t57.5 -118v-262q0 -22 5.5 -30t21.5 -8q12 0 26 2v-80q-44 -11 -74 -11q-73 0 -84 62q-65 -62 -181 -62q-80 0 -127 41.5t-47 112.5q0 22 5 41t11.5 33t21 26t24 20t31 15t32 10.5t36.5 7.5t34.5 5.5t35.5 4.5q61 8 83 13.5
t30 16.5q7 8 7 37q0 78 -106 78q-56 0 -82 -21t-33 -71h-108zM383 259q-13 -7 -30 -12.5t-27.5 -7t-33 -4.5t-29.5 -4q-21 -3 -33 -5.5t-29.5 -8.5t-27 -14.5t-16.5 -23t-7 -34.5q0 -37 24.5 -57t68.5 -20q76 0 117 41q23 23 23 89v61zM405 720h56q-9 -55 -33 -81
q-28 -34 -78 -34q-31 0 -74 19q-43 18 -68 18q-35 0 -43 -41h-57q7 44 34.5 78.5t69.5 34.5q33 0 81 -20q42 -18 62 -18q39 0 50 44z" />
    <glyph glyph-name="adieresis" unicode="&#xe4;" 
d="M55 357q18 175 226 175q97 0 154.5 -38t57.5 -118v-262q0 -22 5.5 -30t21.5 -8q12 0 26 2v-80q-44 -11 -74 -11q-73 0 -84 62q-65 -62 -181 -62q-80 0 -127 41.5t-47 112.5q0 22 5 41t11.5 33t21 26t24 20t31 15t32 10.5t36.5 7.5t34.5 5.5t35.5 4.5q61 8 83 13.5
t30 16.5q7 8 7 37q0 78 -106 78q-56 0 -82 -21t-33 -71h-108zM383 259q-13 -7 -30 -12.5t-27.5 -7t-33 -4.5t-29.5 -4q-21 -3 -33 -5.5t-29.5 -8.5t-27 -14.5t-16.5 -23t-7 -34.5q0 -37 24.5 -57t68.5 -20q76 0 117 41q23 23 23 89v61zM253 602h-114v108h114v-108zM311 710
h114v-108h-114v108z" />
    <glyph glyph-name="aring" unicode="&#xe5;" 
d="M55 357q18 175 226 175q97 0 154.5 -38t57.5 -118v-262q0 -22 5.5 -30t21.5 -8q12 0 26 2v-80q-44 -11 -74 -11q-73 0 -84 62q-65 -62 -181 -62q-80 0 -127 41.5t-47 112.5q0 22 5 41t11.5 33t21 26t24 20t31 15t32 10.5t36.5 7.5t34.5 5.5t35.5 4.5q61 8 83 13.5
t30 16.5q7 8 7 37q0 78 -106 78q-56 0 -82 -21t-33 -71h-108zM383 259q-13 -7 -30 -12.5t-27.5 -7t-33 -4.5t-29.5 -4q-21 -3 -33 -5.5t-29.5 -8.5t-27 -14.5t-16.5 -23t-7 -34.5q0 -37 24.5 -57t68.5 -20q76 0 117 41q23 23 23 89v61zM222 674q0 -26 17.5 -43.5t42.5 -17.5
q26 0 43 17.5t17 43.5q0 27 -17 44t-43 17q-25 0 -42.5 -17t-17.5 -44zM282 571q-44 0 -74 29t-30 74t30.5 74t73.5 29t73.5 -29t30.5 -74t-30.5 -74t-73.5 -29z" />
    <glyph glyph-name="ae" unicode="&#xe6;" horiz-adv-x="889" 
d="M744 163h114q-22 -83 -84.5 -130t-149.5 -47q-136 0 -190 95q-63 -95 -215 -95q-82 0 -134.5 39t-52.5 112q0 46 16.5 77.5t48.5 48t61 23.5t73 12q16 3 39 6t36.5 5t29.5 6.5t24 10.5t14 17.5t6 27.5q0 70 -101 70q-50 0 -80 -20.5t-34 -61.5h-114q6 92 71 132t161 40
q126 0 175 -70q54 70 164 70q128 0 188.5 -83.5t51.5 -218.5h-375q0 -65 34 -109t101 -44q92 0 122 87zM379 180v77q-10 -10 -30.5 -15t-58 -8.5t-50.5 -5.5q-44 -7 -69 -26t-25 -60q0 -36 30.5 -51t73.5 -15q51 0 90 28t39 76zM487 304h261q1 63 -34 100t-97 37
q-58 0 -92 -39t-38 -98z" />
    <glyph glyph-name="ccedilla" unicode="&#xe7;" 
d="M173 -200l18 40q35 -16 65 -16q61 0 61 41q0 18 -13.5 28t-32.5 10q-23 0 -39 -10l-22 19l56 75q-50 3 -88 19q-69 31 -106 95.5t-37 151.5q0 123 66 200.5t189 77.5q95 0 160 -48t73 -139h-114q-7 47 -38 72t-80 25q-25 0 -47.5 -8t-45 -27t-36 -58.5t-13.5 -94.5
q0 -73 34 -125t103 -52q50 0 82.5 31t40.5 87h114q-17 -102 -77 -155q-50 -44 -132 -52l-36 -46l1 -1q11 4 33 4q33 0 59 -19.5t26 -55.5q0 -46 -36 -69t-85 -23q-61 0 -103 23z" />
    <glyph glyph-name="egrave" unicode="&#xe8;" 
d="M522 161q-19 -84 -82.5 -131t-151.5 -47q-117 0 -185.5 75.5t-68.5 193.5q0 121 70.5 200t179.5 79q113 0 179 -77.5t66 -211.5v-12h-381q2 -78 39 -120.5t103 -42.5q47 0 76.5 22.5t46.5 71.5h109zM415 306q-5 65 -40.5 102.5t-91.5 37.5t-90.5 -36t-42.5 -104h265z
M244 727l91 -143h-83l-142 143h134z" />
    <glyph glyph-name="eacute" unicode="&#xe9;" 
d="M522 161q-19 -84 -82.5 -131t-151.5 -47q-117 0 -185.5 75.5t-68.5 193.5q0 121 70.5 200t179.5 79q113 0 179 -77.5t66 -211.5v-12h-381q2 -78 39 -120.5t103 -42.5q47 0 76.5 22.5t46.5 71.5h109zM415 306q-5 65 -40.5 102.5t-91.5 37.5t-90.5 -36t-42.5 -104h265z
M239 589l90 143h135l-142 -143h-83z" />
    <glyph glyph-name="ecircumflex" unicode="&#xea;" 
d="M522 161q-19 -84 -82.5 -131t-151.5 -47q-117 0 -185.5 75.5t-68.5 193.5q0 121 70.5 200t179.5 79q113 0 179 -77.5t66 -211.5v-12h-381q2 -78 39 -120.5t103 -42.5q47 0 76.5 22.5t46.5 71.5h109zM415 306q-5 65 -40.5 102.5t-91.5 37.5t-90.5 -36t-42.5 -104h265z
M286 679l-70 -90h-92l107 143h111l108 -143h-93z" />
    <glyph glyph-name="edieresis" unicode="&#xeb;" 
d="M522 161q-19 -84 -82.5 -131t-151.5 -47q-117 0 -185.5 75.5t-68.5 193.5q0 121 70.5 200t179.5 79q113 0 179 -77.5t66 -211.5v-12h-381q2 -78 39 -120.5t103 -42.5q47 0 76.5 22.5t46.5 71.5h109zM415 306q-5 65 -40.5 102.5t-91.5 37.5t-90.5 -36t-42.5 -104h265z
M256 602h-114v108h114v-108zM314 710h114v-108h-114v108z" />
    <glyph glyph-name="igrave" unicode="&#xec;" horiz-adv-x="241" 
d="M177 0h-114v517h114v-517zM79 727l91 -143h-83l-142 143h134z" />
    <glyph glyph-name="iacute" unicode="&#xed;" horiz-adv-x="241" 
d="M177 0h-114v517h114v-517zM63 589l90 143h135l-142 -143h-83z" />
    <glyph glyph-name="icircumflex" unicode="&#xee;" horiz-adv-x="241" 
d="M177 0h-114v517h114v-517zM120 679l-70 -90h-92l107 143h111l108 -143h-93z" />
    <glyph glyph-name="idieresis" unicode="&#xef;" horiz-adv-x="241" 
d="M177 0h-114v517h114v-517zM92 602h-114v108h114v-108zM150 710h114v-108h-114v108z" />
    <glyph glyph-name="eth" unicode="&#xf0;" horiz-adv-x="593" 
d="M194 541l-50 49l96 46q-72 30 -85 34l76 61q52 -17 104 -50l105 50l49 -49l-94 -45q155 -129 155 -328q0 -144 -65.5 -233.5t-203.5 -89.5q-112 0 -175.5 73.5t-63.5 192.5q0 103 61.5 178.5t161.5 75.5q81 0 143 -44h2q-29 64 -108 131zM299 416q-75 0 -109 -47.5
t-34 -123.5q0 -73 33.5 -121t98.5 -48q66 0 107 51t41 118q0 71 -35 121t-102 50z" />
    <glyph glyph-name="ntilde" unicode="&#xf1;" horiz-adv-x="574" 
d="M169 516v-76q62 90 171 90q88 0 131.5 -48t43.5 -138v-344h-114v300q0 31 -3 51.5t-12.5 41.5t-30.5 31.5t-54 10.5q-126 0 -126 -157v-278h-114v516h108zM407 720h56q-9 -55 -33 -81q-28 -34 -78 -34q-31 0 -74 19q-43 18 -68 18q-35 0 -43 -41h-57q7 44 34.5 78.5
t69.5 34.5q33 0 81 -20q42 -18 62 -18q39 0 50 44z" />
    <glyph glyph-name="ograve" unicode="&#xf2;" horiz-adv-x="593" 
d="M299 531q118 0 188 -74t70 -199q0 -126 -69.5 -200t-188.5 -74q-121 0 -192 74t-71 200q0 125 71.5 199t191.5 74zM297 441q-68 0 -107 -49t-39 -134q0 -87 39 -136t108 -49q67 0 105.5 49.5t38.5 136.5q0 85 -38.5 133.5t-106.5 48.5zM251 727l91 -143h-83l-142 143h134
z" />
    <glyph glyph-name="oacute" unicode="&#xf3;" horiz-adv-x="593" 
d="M299 531q118 0 188 -74t70 -199q0 -126 -69.5 -200t-188.5 -74q-121 0 -192 74t-71 200q0 125 71.5 199t191.5 74zM297 441q-68 0 -107 -49t-39 -134q0 -87 39 -136t108 -49q67 0 105.5 49.5t38.5 136.5q0 85 -38.5 133.5t-106.5 48.5zM240 589l90 143h135l-142 -143h-83
z" />
    <glyph glyph-name="ocircumflex" unicode="&#xf4;" horiz-adv-x="593" 
d="M299 531q118 0 188 -74t70 -199q0 -126 -69.5 -200t-188.5 -74q-121 0 -192 74t-71 200q0 125 71.5 199t191.5 74zM297 441q-68 0 -107 -49t-39 -134q0 -87 39 -136t108 -49q67 0 105.5 49.5t38.5 136.5q0 85 -38.5 133.5t-106.5 48.5zM298 679l-70 -90h-92l107 143h111
l108 -143h-93z" />
    <glyph glyph-name="otilde" unicode="&#xf5;" horiz-adv-x="593" 
d="M299 531q118 0 188 -74t70 -199q0 -126 -69.5 -200t-188.5 -74q-121 0 -192 74t-71 200q0 125 71.5 199t191.5 74zM297 441q-68 0 -107 -49t-39 -134q0 -87 39 -136t108 -49q67 0 105.5 49.5t38.5 136.5q0 85 -38.5 133.5t-106.5 48.5zM420 720h56q-9 -55 -33 -81
q-28 -34 -78 -34q-31 0 -74 19q-43 18 -68 18q-35 0 -43 -41h-57q7 44 34.5 78.5t69.5 34.5q33 0 81 -20q42 -18 62 -18q39 0 50 44z" />
    <glyph glyph-name="odieresis" unicode="&#xf6;" horiz-adv-x="593" 
d="M299 531q118 0 188 -74t70 -199q0 -126 -69.5 -200t-188.5 -74q-121 0 -192 74t-71 200q0 125 71.5 199t191.5 74zM297 441q-68 0 -107 -49t-39 -134q0 -87 39 -136t108 -49q67 0 105.5 49.5t38.5 136.5q0 85 -38.5 133.5t-106.5 48.5zM270 602h-114v108h114v-108z
M328 710h114v-108h-114v108z" />
    <glyph glyph-name="divide" unicode="&#xf7;" horiz-adv-x="600" 
d="M42 210v95h517v-95h-517zM241 9v130h118v-130h-118zM241 376v130h118v-130h-118z" />
    <glyph glyph-name="oslash" unicode="&#xf8;" horiz-adv-x="593" 
d="M173 155l223 244q-37 42 -99 42q-72 0 -109.5 -54t-37.5 -128q0 -59 23 -104zM64 -28l-32 28l65 72q-61 73 -61 187q0 120 70 196t191 76q102 0 170 -55l63 69l32 -28l-65 -71q61 -74 61 -187q0 -122 -70 -197.5t-191 -75.5q-102 0 -169 56zM421 362l-223 -244
q37 -42 99 -42q72 0 109.5 54t37.5 129q0 58 -23 103z" />
    <glyph glyph-name="ugrave" unicode="&#xf9;" horiz-adv-x="574" 
d="M513 516v-516h-107v77q-65 -91 -170 -91q-85 0 -130.5 48.5t-45.5 139.5v342h114v-295q0 -27 1 -43.5t6.5 -37t16 -31.5t30 -19t47.5 -8q64 0 94 45.5t30 115.5v273h114zM240 727l91 -143h-83l-142 143h134z" />
    <glyph glyph-name="uacute" unicode="&#xfa;" horiz-adv-x="574" 
d="M513 516v-516h-107v77q-65 -91 -170 -91q-85 0 -130.5 48.5t-45.5 139.5v342h114v-295q0 -27 1 -43.5t6.5 -37t16 -31.5t30 -19t47.5 -8q64 0 94 45.5t30 115.5v273h114zM241 589l90 143h135l-142 -143h-83z" />
    <glyph glyph-name="ucircumflex" unicode="&#xfb;" horiz-adv-x="574" 
d="M513 516v-516h-107v77q-65 -91 -170 -91q-85 0 -130.5 48.5t-45.5 139.5v342h114v-295q0 -27 1 -43.5t6.5 -37t16 -31.5t30 -19t47.5 -8q64 0 94 45.5t30 115.5v273h114zM287 679l-70 -90h-92l107 143h111l108 -143h-93z" />
    <glyph glyph-name="udieresis" unicode="&#xfc;" horiz-adv-x="574" 
d="M513 516v-516h-107v77q-65 -91 -170 -91q-85 0 -130.5 48.5t-45.5 139.5v342h114v-295q0 -27 1 -43.5t6.5 -37t16 -31.5t30 -19t47.5 -8q64 0 94 45.5t30 115.5v273h114zM257 602h-114v108h114v-108zM315 710h114v-108h-114v108z" />
    <glyph glyph-name="yacute" unicode="&#xfd;" horiz-adv-x="519" 
d="M515 516l-191 -506q-3 -7 -11 -29.5t-11 -30.5t-11.5 -28t-13.5 -28l-15 -24q-10 -16 -18.5 -23t-21 -17.5t-25.5 -15t-29.5 -8t-35.5 -3.5q-32 0 -79 6v96q36 -7 60 -7q12 0 22 3.5t18 12t14 16t11.5 21t8.5 21t8 23.5t6 20l-198 501h125l138 -380l130 380h119zM221 589
l90 143h135l-142 -143h-83z" />
    <glyph glyph-name="thorn" unicode="&#xfe;" horiz-adv-x="611" 
d="M461 258q0 75 -38 129t-105 54q-71 0 -108 -49t-37 -134q0 -80 39 -131t106 -51q72 0 107.5 53t35.5 129zM63 -191v905h114v-264h2q24 37 66.5 59t87.5 22q117 0 179.5 -77.5t62.5 -197.5q0 -113 -57.5 -191.5t-165.5 -78.5q-53 0 -101 20t-72 61h-2v-258h-114z" />
    <glyph glyph-name="ydieresis" unicode="&#xff;" horiz-adv-x="519" 
d="M515 516l-191 -506q-3 -7 -11 -29.5t-11 -30.5t-11.5 -28t-13.5 -28l-15 -24q-10 -16 -18.5 -23t-21 -17.5t-25.5 -15t-29.5 -8t-35.5 -3.5q-32 0 -79 6v96q36 -7 60 -7q12 0 22 3.5t18 12t14 16t11.5 21t8.5 21t8 23.5t6 20l-198 501h125l138 -380l130 380h119zM236 602
h-114v108h114v-108zM294 710h114v-108h-114v108z" />
    <glyph glyph-name="Amacron" unicode="&#x100;" horiz-adv-x="667" 
d="M400 713l275 -713h-134l-68 189h-282l-70 -189h-129l275 713h133zM440 283l-106 300l-111 -300h217zM477 818h-288v65h288v-65z" />
    <glyph glyph-name="amacron" unicode="&#x101;" 
d="M55 357q18 175 226 175q97 0 154.5 -38t57.5 -118v-262q0 -22 5.5 -30t21.5 -8q12 0 26 2v-80q-44 -11 -74 -11q-73 0 -84 62q-65 -62 -181 -62q-80 0 -127 41.5t-47 112.5q0 22 5 41t11.5 33t21 26t24 20t31 15t32 10.5t36.5 7.5t34.5 5.5t35.5 4.5q61 8 83 13.5
t30 16.5q7 8 7 37q0 78 -106 78q-56 0 -82 -21t-33 -71h-108zM383 259q-13 -7 -30 -12.5t-27.5 -7t-33 -4.5t-29.5 -4q-21 -3 -33 -5.5t-29.5 -8.5t-27 -14.5t-16.5 -23t-7 -34.5q0 -37 24.5 -57t68.5 -20q76 0 117 41q23 23 23 89v61zM425 624h-288v65h288v-65z" />
    <glyph glyph-name="Abreve" unicode="&#x102;" horiz-adv-x="667" 
d="M400 713l275 -713h-134l-68 189h-282l-70 -189h-129l275 713h133zM440 283l-106 300l-111 -300h217zM172 925h58q15 -76 107 -76q39 0 66 19.5t35 56.5h57q-8 -70 -51.5 -105.5t-114.5 -35.5q-69 0 -110 36t-47 105z" />
    <glyph glyph-name="abreve" unicode="&#x103;" 
d="M55 357q18 175 226 175q97 0 154.5 -38t57.5 -118v-262q0 -22 5.5 -30t21.5 -8q12 0 26 2v-80q-44 -11 -74 -11q-73 0 -84 62q-65 -62 -181 -62q-80 0 -127 41.5t-47 112.5q0 22 5 41t11.5 33t21 26t24 20t31 15t32 10.5t36.5 7.5t34.5 5.5t35.5 4.5q61 8 83 13.5
t30 16.5q7 8 7 37q0 78 -106 78q-56 0 -82 -21t-33 -71h-108zM383 259q-13 -7 -30 -12.5t-27.5 -7t-33 -4.5t-29.5 -4q-21 -3 -33 -5.5t-29.5 -8.5t-27 -14.5t-16.5 -23t-7 -34.5q0 -37 24.5 -57t68.5 -20q76 0 117 41q23 23 23 89v61zM119 731h58q15 -76 107 -76
q39 0 66 19.5t35 56.5h57q-8 -70 -51.5 -105.5t-114.5 -35.5q-69 0 -110 36t-47 105z" />
    <glyph glyph-name="Aogonek" unicode="&#x104;" horiz-adv-x="667" 
d="M675 0h-80q-54 -43 -74 -71t-20 -58q0 -20 11.5 -32t27.5 -12q31 0 52 34l41 -9q-20 -75 -105 -75q-12 0 -24.5 2.5t-32 10t-32 27.5t-12.5 50q0 65 114 133l-67 189h-285l-67 -189h-129l274 714h133zM331 591l-108 -307h218l-107 307h-3z" />
    <glyph glyph-name="aogonek" unicode="&#x105;" 
d="M493 381v-266q0 -21 6 -30t21 -9h12q4 0 16 2v-79q-37 -13 -72 -13h-1q-5 -4 -14.5 -12.5t-14.5 -12.5q-47 -47 -47 -90q0 -20 11.5 -32t27.5 -12q31 0 52 34l41 -9q-20 -75 -105 -75q-12 0 -24.5 2.5t-32 10t-32 27.5t-12.5 50q0 43 49 87q17 17 55 40q-8 4 -11 6
q-22 13 -30 49q-32 -31 -81 -47t-98 -16q-75 0 -126 39.5t-51 111.5q0 46 16.5 77.5t48.5 48t61 23.5t73 12q18 4 47 7t44.5 6t32 9.5t24 18.5t7.5 32q0 70 -107 70q-50 0 -80 -20.5t-34 -61.5h-114q6 92 71.5 132t163.5 40q85 0 146 -37t61 -113zM379 174v85
q-16 -10 -37 -15.5t-55.5 -9.5t-47.5 -6q-43 -7 -68 -26t-25 -60q0 -35 33 -50.5t72 -15.5q46 0 87 24.5t41 73.5z" />
    <glyph glyph-name="Cacute" unicode="&#x106;" horiz-adv-x="722" 
d="M685 271q-10 -131 -93.5 -209.5t-216.5 -78.5q-151 0 -242 102t-91 271q0 102 39 185.5t117 135t183 51.5q113 0 197 -62.5t101 -180.5h-124q-13 64 -60 100.5t-116 36.5q-71 0 -120.5 -40t-70 -98.5t-20.5 -127.5q0 -52 12 -98t36 -84.5t65.5 -61.5t96.5 -23
q159 0 182 182h125zM329 783l90 143h135l-142 -143h-83z" />
    <glyph glyph-name="cacute" unicode="&#x107;" 
d="M528 195q-12 -95 -76 -151.5t-161 -56.5q-116 0 -185 73.5t-69 192.5q0 128 69.5 203.5t187.5 75.5q99 0 159.5 -50t70.5 -139h-113q-10 49 -40 75t-76 26q-66 0 -104 -49.5t-38 -135.5t36.5 -134t101.5 -48q51 0 83.5 30.5t41.5 87.5h112zM241 589l90 143h135l-142 -143
h-83z" />
    <glyph glyph-name="Ccircumflex" unicode="&#x108;" horiz-adv-x="722" 
d="M685 271q-10 -131 -93.5 -209.5t-216.5 -78.5q-151 0 -242 102t-91 271q0 102 39 185.5t117 135t183 51.5q113 0 197 -62.5t101 -180.5h-124q-13 64 -60 100.5t-116 36.5q-71 0 -120.5 -40t-70 -98.5t-20.5 -127.5q0 -52 12 -98t36 -84.5t65.5 -61.5t96.5 -23
q159 0 182 182h125zM381 873l-70 -90h-92l107 143h111l108 -143h-93z" />
    <glyph glyph-name="ccircumflex" unicode="&#x109;" 
d="M528 195q-12 -95 -76 -151.5t-161 -56.5q-116 0 -185 73.5t-69 192.5q0 128 69.5 203.5t187.5 75.5q99 0 159.5 -50t70.5 -139h-113q-10 49 -40 75t-76 26q-66 0 -104 -49.5t-38 -135.5t36.5 -134t101.5 -48q51 0 83.5 30.5t41.5 87.5h112zM291 679l-70 -90h-92l107 143
h111l108 -143h-93z" />
    <glyph glyph-name="Cdotaccent" unicode="&#x10a;" horiz-adv-x="722" 
d="M685 271q-10 -131 -93.5 -209.5t-216.5 -78.5q-151 0 -242 102t-91 271q0 102 39 185.5t117 135t183 51.5q113 0 197 -62.5t101 -180.5h-124q-13 64 -60 100.5t-116 36.5q-71 0 -120.5 -40t-70 -98.5t-20.5 -127.5q0 -52 12 -98t36 -84.5t65.5 -61.5t96.5 -23
q159 0 182 182h125zM436 796h-114v108h114v-108z" />
    <glyph glyph-name="cdotaccent" unicode="&#x10b;" 
d="M528 195q-12 -95 -76 -151.5t-161 -56.5q-116 0 -185 73.5t-69 192.5q0 128 69.5 203.5t187.5 75.5q99 0 159.5 -50t70.5 -139h-113q-10 49 -40 75t-76 26q-66 0 -104 -49.5t-38 -135.5t36.5 -134t101.5 -48q51 0 83.5 30.5t41.5 87.5h112zM345 602h-114v108h114v-108z
" />
    <glyph glyph-name="Ccaron" unicode="&#x10c;" horiz-adv-x="722" 
d="M685 271q-10 -131 -93.5 -209.5t-216.5 -78.5q-151 0 -242 102t-91 271q0 102 39 185.5t117 135t183 51.5q113 0 197 -62.5t101 -180.5h-124q-13 64 -60 100.5t-116 36.5q-71 0 -120.5 -40t-70 -98.5t-20.5 -127.5q0 -52 12 -98t36 -84.5t65.5 -61.5t96.5 -23
q159 0 182 182h125zM541 926l-108 -143h-111l-107 143h92l70 -89l71 89h93z" />
    <glyph glyph-name="ccaron" unicode="&#x10d;" 
d="M528 195q-12 -95 -76 -151.5t-161 -56.5q-116 0 -185 73.5t-69 192.5q0 128 69.5 203.5t187.5 75.5q99 0 159.5 -50t70.5 -139h-113q-10 49 -40 75t-76 26q-66 0 -104 -49.5t-38 -135.5t36.5 -134t101.5 -48q51 0 83.5 30.5t41.5 87.5h112zM453 732l-108 -143h-111
l-107 143h92l70 -89l71 89h93z" />
    <glyph glyph-name="Dcaron" unicode="&#x10e;" horiz-adv-x="722" 
d="M75 712h271q74 0 130 -15.5t103 -57.5q105 -94 105 -271q0 -189 -100 -289q-44 -44 -95.5 -61.5t-135.5 -17.5h-278v712zM199 606v-501h147q117 0 165 68t48 189q0 115 -54 179.5t-167 64.5h-139zM490 926l-108 -143h-111l-107 143h92l70 -89l71 89h93z" />
    <glyph glyph-name="dcaron" unicode="&#x10f;" horiz-adv-x="687" 
d="M547 714v-714h-108v70h-2q-43 -84 -160 -84q-118 0 -180 77t-62 199q0 132 65.5 200.5t158.5 68.5q52 0 99.5 -20.5t72.5 -60.5h2v264h114zM149 253q0 -73 36.5 -125t106.5 -52q71 0 108 54t37 129q0 86 -38.5 134t-104.5 48q-74 0 -109.5 -55t-35.5 -133zM596 571
l32 143h125l-81 -143h-76z" />
    <glyph glyph-name="Dcroat" unicode="&#x110;" horiz-adv-x="722" 
d="M201 612v-193h195v-102h-195v-215h123q71 0 119.5 19t73.5 55.5t35 79.5t10 101t-10 101t-35 79.5t-73.5 55.5t-119.5 19h-123zM76 0v317h-67v102h67v295h296q157 0 236 -99.5t79 -257.5t-79 -257.5t-236 -99.5h-296z" />
    <glyph glyph-name="dcroat" unicode="&#x111;" horiz-adv-x="620" 
d="M547 584v-584h-108v70h-2q-43 -84 -160 -84q-118 0 -180 77t-62 199q0 132 65.5 200.5t158.5 68.5q52 0 99.5 -20.5t72.5 -60.5h2v134h-153v65h153v65h114v-65h79v-65h-79zM149 253q0 -73 36.5 -125t106.5 -52q71 0 108 54t37 129q0 86 -38.5 134t-104.5 48
q-74 0 -109.5 -55t-35.5 -133z" />
    <glyph glyph-name="Emacron" unicode="&#x112;" horiz-adv-x="630" 
d="M587 712v-105h-389v-189h361v-101h-361v-210h395v-107h-519v712h513zM478 818h-288v65h288v-65z" />
    <glyph glyph-name="emacron" unicode="&#x113;" 
d="M522 161q-19 -84 -82.5 -131t-151.5 -47q-117 0 -185.5 75.5t-68.5 193.5q0 121 70.5 200t179.5 79q113 0 179 -77.5t66 -211.5v-12h-381q2 -78 39 -120.5t103 -42.5q47 0 76.5 22.5t46.5 71.5h109zM415 306q-5 65 -40.5 102.5t-91.5 37.5t-90.5 -36t-42.5 -104h265z
M429 624h-288v65h288v-65z" />
    <glyph glyph-name="Ebreve" unicode="&#x114;" horiz-adv-x="630" 
d="M587 712v-105h-389v-189h361v-101h-361v-210h395v-107h-519v712h513zM169 925h58q15 -76 107 -76q39 0 66 19.5t35 56.5h57q-8 -70 -51.5 -105.5t-114.5 -35.5q-69 0 -110 36t-47 105z" />
    <glyph glyph-name="ebreve" unicode="&#x115;" 
d="M522 161q-19 -84 -82.5 -131t-151.5 -47q-117 0 -185.5 75.5t-68.5 193.5q0 121 70.5 200t179.5 79q113 0 179 -77.5t66 -211.5v-12h-381q2 -78 39 -120.5t103 -42.5q47 0 76.5 22.5t46.5 71.5h109zM415 306q-5 65 -40.5 102.5t-91.5 37.5t-90.5 -36t-42.5 -104h265z
M122 731h58q15 -76 107 -76q39 0 66 19.5t35 56.5h57q-8 -70 -51.5 -105.5t-114.5 -35.5q-69 0 -110 36t-47 105z" />
    <glyph glyph-name="Edotaccent" unicode="&#x116;" horiz-adv-x="630" 
d="M587 712v-105h-389v-189h361v-101h-361v-210h395v-107h-519v712h513zM390 796h-114v108h114v-108z" />
    <glyph glyph-name="edotaccent" unicode="&#x117;" 
d="M522 161q-19 -84 -82.5 -131t-151.5 -47q-117 0 -185.5 75.5t-68.5 193.5q0 121 70.5 200t179.5 79q113 0 179 -77.5t66 -211.5v-12h-381q2 -78 39 -120.5t103 -42.5q47 0 76.5 22.5t46.5 71.5h109zM415 306q-5 65 -40.5 102.5t-91.5 37.5t-90.5 -36t-42.5 -104h265z
M344 602h-114v108h114v-108z" />
    <glyph glyph-name="Eogonek" unicode="&#x118;" horiz-adv-x="630" 
d="M597 0h-38q-54 -43 -74 -71t-20 -58q0 -20 11.5 -32t27.5 -12q31 0 52 34l41 -9q-20 -75 -105 -75q-12 0 -24.5 2.5t-32 10t-32 27.5t-12.5 50q0 65 114 133h-429v714h514v-108h-389v-187h360v-102h-360v-209h396v-108z" />
    <glyph glyph-name="eogonek" unicode="&#x119;" 
d="M529 229h-380q0 -65 35.5 -109t103.5 -44q96 0 126 86h108q-13 -62 -54 -104.5t-100 -59.5q-20 -6 -35 -8q-26 -22 -33 -29q-47 -47 -47 -90q0 -20 11.5 -32t27.5 -12q31 0 52 34l41 -9q-20 -75 -105 -75q-12 0 -24.5 2.5t-32 10t-32 27.5t-12.5 50q0 43 49 87
q16 15 42 33q-47 1 -90 19q-70 30 -107.5 95.5t-37.5 156.5q0 114 69 193.5t181 79.5q119 0 189 -91t55 -211zM149 304h266q-4 57 -39 97t-91 40q-58 0 -96 -39t-40 -98z" />
    <glyph glyph-name="Ecaron" unicode="&#x11a;" horiz-adv-x="630" 
d="M587 712v-105h-389v-189h361v-101h-361v-210h395v-107h-519v712h513zM495 926l-108 -143h-111l-107 143h92l70 -89l71 89h93z" />
    <glyph glyph-name="ecaron" unicode="&#x11b;" 
d="M522 161q-19 -84 -82.5 -131t-151.5 -47q-117 0 -185.5 75.5t-68.5 193.5q0 121 70.5 200t179.5 79q113 0 179 -77.5t66 -211.5v-12h-381q2 -78 39 -120.5t103 -42.5q47 0 76.5 22.5t46.5 71.5h109zM415 306q-5 65 -40.5 102.5t-91.5 37.5t-90.5 -36t-42.5 -104h265z
M446 732l-108 -143h-111l-107 143h92l70 -89l71 89h93z" />
    <glyph glyph-name="Gcircumflex" unicode="&#x11c;" horiz-adv-x="759" 
d="M700 381v-381h-80l-19 85q-85 -102 -222 -102q-150 0 -243.5 102t-93.5 266q0 161 94 268.5t254 107.5q116 0 202.5 -65t98.5 -177h-121q-11 64 -59.5 100.5t-121.5 36.5q-103 0 -162 -72t-59 -197q0 -126 59.5 -197.5t165.5 -71.5q93 0 143.5 58t50.5 143h-192v96h305z
M388 873l-70 -90h-92l107 143h111l108 -143h-93z" />
    <glyph glyph-name="gcircumflex" unicode="&#x11d;" horiz-adv-x="593" 
d="M533 516v-456q0 -133 -56.5 -197t-191.5 -64q-212 0 -231 157h114q16 -77 120 -77q71 0 103.5 36t32.5 116v61q-56 -87 -164 -87q-103 0 -163.5 69.5t-60.5 187.5q0 121 63 194.5t167 73.5q55 0 92 -20.5t69 -65.5v72h106zM286 438q-64 0 -100.5 -46t-36.5 -128
q0 -78 37.5 -124t99.5 -46q64 0 101 47.5t37 128.5q0 79 -36.5 123.5t-101.5 44.5zM303 679l-70 -90h-92l107 143h111l108 -143h-93z" />
    <glyph glyph-name="Gbreve" unicode="&#x11e;" horiz-adv-x="759" 
d="M700 381v-381h-80l-19 85q-85 -102 -222 -102q-150 0 -243.5 102t-93.5 266q0 161 94 268.5t254 107.5q116 0 202.5 -65t98.5 -177h-121q-11 64 -59.5 100.5t-121.5 36.5q-103 0 -162 -72t-59 -197q0 -126 59.5 -197.5t165.5 -71.5q93 0 143.5 58t50.5 143h-192v96h305z
M228 925h58q15 -76 107 -76q39 0 66 19.5t35 56.5h57q-8 -70 -51.5 -105.5t-114.5 -35.5q-69 0 -110 36t-47 105z" />
    <glyph glyph-name="gbreve" unicode="&#x11f;" horiz-adv-x="593" 
d="M533 516v-456q0 -133 -56.5 -197t-191.5 -64q-212 0 -231 157h114q16 -77 120 -77q71 0 103.5 36t32.5 116v61q-56 -87 -164 -87q-103 0 -163.5 69.5t-60.5 187.5q0 121 63 194.5t167 73.5q55 0 92 -20.5t69 -65.5v72h106zM286 438q-64 0 -100.5 -46t-36.5 -128
q0 -78 37.5 -124t99.5 -46q64 0 101 47.5t37 128.5q0 79 -36.5 123.5t-101.5 44.5zM132 731h58q15 -76 107 -76q39 0 66 19.5t35 56.5h57q-8 -70 -51.5 -105.5t-114.5 -35.5q-69 0 -110 36t-47 105z" />
    <glyph glyph-name="Gdotaccent" unicode="&#x120;" horiz-adv-x="759" 
d="M700 381v-381h-80l-19 85q-85 -102 -222 -102q-150 0 -243.5 102t-93.5 266q0 161 94 268.5t254 107.5q116 0 202.5 -65t98.5 -177h-121q-11 64 -59.5 100.5t-121.5 36.5q-103 0 -162 -72t-59 -197q0 -126 59.5 -197.5t165.5 -71.5q93 0 143.5 58t50.5 143h-192v96h305z
M443 796h-114v108h114v-108z" />
    <glyph glyph-name="gdotaccent" unicode="&#x121;" horiz-adv-x="593" 
d="M533 516v-456q0 -133 -56.5 -197t-191.5 -64q-212 0 -231 157h114q16 -77 120 -77q71 0 103.5 36t32.5 116v61q-56 -87 -164 -87q-103 0 -163.5 69.5t-60.5 187.5q0 121 63 194.5t167 73.5q55 0 92 -20.5t69 -65.5v72h106zM286 438q-64 0 -100.5 -46t-36.5 -128
q0 -78 37.5 -124t99.5 -46q64 0 101 47.5t37 128.5q0 79 -36.5 123.5t-101.5 44.5zM351 602h-114v108h114v-108z" />
    <glyph glyph-name="Gcommaaccent" unicode="&#x122;" horiz-adv-x="759" 
d="M699 376v-376h-80l-19 84q-49 -56 -98.5 -78.5t-116.5 -22.5q-155 0 -248.5 107.5t-93.5 266.5q0 158 93.5 266t248.5 108q121 0 206.5 -64t99.5 -180h-122q-9 67 -61 104.5t-123 37.5q-107 0 -162 -79.5t-55 -192.5t55 -192.5t162 -79.5q95 -2 146.5 50.5t53.5 145.5
h-190v95h304zM320 -149v99h131v-89q0 -79 -116 -84v38q40 6 45 36h-60z" />
    <glyph glyph-name="gcommaaccent" unicode="&#x123;" horiz-adv-x="593" 
d="M538 517v-490q0 -116 -65 -174t-189 -58q-57 0 -104.5 14t-84.5 52t-42 95h114q10 -45 41.5 -60.5t82.5 -15.5q133 0 133 132v79h-2q-24 -43 -65.5 -67t-89.5 -24q-79 0 -132.5 38t-76.5 97.5t-23 136.5q0 109 63.5 184t170.5 75q111 0 153 -85h2v71h114zM285 90
q70 0 104.5 52.5t34.5 127.5q0 73 -34.5 122t-104.5 49t-103 -53t-33 -127q0 -70 34.5 -120.5t101.5 -50.5zM361 714v-99h-131v89q0 79 116 84v-38q-40 -6 -45 -36h60z" />
    <glyph glyph-name="Hcircumflex" unicode="&#x124;" horiz-adv-x="722" 
d="M649 712v-712h-125v320h-326v-320h-125v712h125v-283h326v283h125zM362 873l-70 -90h-92l107 143h111l108 -143h-93z" />
    <glyph glyph-name="hcircumflex" unicode="&#x125;" horiz-adv-x="574" 
d="M174 712v-267q57 84 163 84q84 0 131 -45.5t47 -133.5v-350h-115v313q0 59 -20.5 90t-79.5 31q-66 0 -96 -43t-30 -114v-277h-113v712h113zM286 873l-70 -90h-92l107 143h111l108 -143h-93z" />
    <glyph glyph-name="Hbar" unicode="&#x126;" horiz-adv-x="722" 
d="M73 0v714h125v-172h325v172h125v-714h-125v297h-325v-297h-125zM198 405h325v72h-325v-72z" />
    <glyph glyph-name="hbar" unicode="&#x127;" horiz-adv-x="584" 
d="M70 649v65h114v-65h126v-65h-126v-135h2q22 36 63.5 59t91.5 23q86 0 134.5 -45t48.5 -131v-355h-114v325q-2 61 -26 88.5t-75 27.5q-56 0 -90.5 -39t-34.5 -97v-305h-114v584h-76v65h76z" />
    <glyph glyph-name="Itilde" unicode="&#x128;" horiz-adv-x="278" 
d="M202 712v-712h-126v712h126zM260 914h56q-9 -55 -33 -81q-28 -34 -78 -34q-31 0 -74 19q-43 18 -68 18q-35 0 -43 -41h-57q7 44 34.5 78.5t69.5 34.5q33 0 81 -20q42 -18 62 -18q39 0 50 44z" />
    <glyph glyph-name="itilde" unicode="&#x129;" horiz-adv-x="241" 
d="M177 0h-114v517h114v-517zM242 720h56q-9 -55 -33 -81q-28 -34 -78 -34q-31 0 -74 19q-43 18 -68 18q-35 0 -43 -41h-57q7 44 34.5 78.5t69.5 34.5q33 0 81 -20q42 -18 62 -18q39 0 50 44z" />
    <glyph glyph-name="Imacron" unicode="&#x12a;" horiz-adv-x="278" 
d="M202 712v-712h-126v712h126zM282 818h-288v65h288v-65z" />
    <glyph glyph-name="imacron" unicode="&#x12b;" horiz-adv-x="241" 
d="M177 0h-114v517h114v-517zM263 624h-288v65h288v-65z" />
    <glyph glyph-name="Ibreve" unicode="&#x12c;" horiz-adv-x="278" 
d="M76 714h125v-714h-125v714zM35 905q8 -42 37.5 -59t69.5 -17q38 0 65.5 19t35.5 57h57q-8 -71 -52.5 -106t-113.5 -35t-110 36t-47 105h58z" />
    <glyph glyph-name="ibreve" unicode="&#x12d;" horiz-adv-x="241" 
d="M63 0v517h114v-517h-114zM17 708q8 -42 37.5 -59t69.5 -17q38 0 65.5 19t35.5 57h57q-8 -71 -52.5 -106t-113.5 -35t-110 36t-47 105h58z" />
    <glyph glyph-name="Iogonek" unicode="&#x12e;" horiz-adv-x="278" 
d="M201 714v-714q-49 -43 -66.5 -71t-17.5 -58q0 -20 10 -32t25 -12q27 0 47 34l37 -9q-20 -75 -95 -75q-10 0 -21.5 2.5t-29 10t-29 27.5t-11.5 50q0 65 103 133h-77v714h125z" />
    <glyph glyph-name="iogonek" unicode="&#x12f;" horiz-adv-x="241" 
d="M177 0h-1q-49 -44 -67 -71.5t-18 -57.5q0 -19 10.5 -31.5t24.5 -12.5q28 0 47 34l37 -9q-9 -40 -35.5 -57.5t-58.5 -17.5q-8 0 -16.5 1t-23 6.5t-25.5 14t-19 26.5t-8 42q0 65 103 133h-64v517h114v-517zM63 606v108h114v-108h-114z" />
    <glyph glyph-name="Idotaccent" unicode="&#x130;" horiz-adv-x="278" 
d="M202 712v-712h-126v712h126zM196 796h-114v108h114v-108z" />
    <glyph glyph-name="dotlessi" unicode="&#x131;" horiz-adv-x="241" 
d="M177 0h-114v517h114v-517z" />
    <glyph glyph-name="Jcircumflex" unicode="&#x134;" horiz-adv-x="537" 
d="M470 712v-501q0 -112 -55.5 -170t-163.5 -58q-121 0 -173.5 61t-52.5 179v27h119v-39q0 -61 22 -93.5t81 -32.5q27 0 46 8.5t29 20t15.5 32.5t6.5 37.5t1 44.5v484h125zM393 873l-70 -90h-92l107 143h111l108 -143h-93z" />
    <glyph glyph-name="jcircumflex" unicode="&#x135;" horiz-adv-x="241" 
d="M63 -39v556h114v-561q0 -80 -35 -120.5t-113 -40.5q-31 0 -51 4v90q20 -4 39 -4q29 0 37.5 17t8.5 59zM119 679l-70 -90h-92l107 143h111l108 -143h-93z" />
    <glyph glyph-name="Kcommaaccent" unicode="&#x136;" horiz-adv-x="685" 
d="M76 0v714h125v-325l318 325h154l-285 -285l305 -429h-156l-234 341l-102 -101v-240h-125zM276 -149v99h131v-89q0 -79 -116 -84v38q40 6 45 36h-60z" />
    <glyph glyph-name="kcommaaccent" unicode="&#x137;" horiz-adv-x="537" 
d="M63 0v714h114v-406l206 209h140l-198 -190l217 -327h-139l-158 251l-68 -66v-185h-114zM214 -149v99h131v-89q0 -79 -116 -84v38q40 6 45 36h-60z" />
    <glyph glyph-name="uni0138.kGreenlandic" unicode="&#x138;" horiz-adv-x="537" 
d="M63 517h114v-209l206 209h140l-198 -190l217 -327h-139l-158 251l-68 -66v-185h-114v517z" />
    <glyph glyph-name="Lacute" unicode="&#x139;" horiz-adv-x="574" 
d="M562 108v-108h-488v712h126v-604h362zM96 783l90 143h135l-142 -143h-83z" />
    <glyph glyph-name="lacute" unicode="&#x13a;" horiz-adv-x="241" 
d="M177 712v-712h-113v712h113zM63 783l90 143h135l-142 -143h-83z" />
    <glyph glyph-name="Lcommaaccent" unicode="&#x13b;" horiz-adv-x="574" 
d="M76 0v714h125v-606h363v-108h-488zM256 -149v99h131v-89q0 -79 -116 -84v38q40 6 45 36h-60z" />
    <glyph glyph-name="lcommaaccent" unicode="&#x13c;" horiz-adv-x="241" 
d="M63 0v714h114v-714h-114zM54 -149v99h131v-89q0 -79 -116 -84v38q40 6 45 36h-60z" />
    <glyph glyph-name="Lcaron" unicode="&#x13d;" horiz-adv-x="574" 
d="M76 0v714h125v-606h363v-108h-488zM296 571l32 143h125l-81 -143h-76z" />
    <glyph glyph-name="lcaron" unicode="&#x13e;" horiz-adv-x="319" 
d="M63 0v714h114v-714h-114zM228 571l32 143h125l-81 -143h-76z" />
    <glyph glyph-name="Ldot" unicode="&#x13f;" horiz-adv-x="574" 
d="M562 108v-108h-488v712h126v-604h362zM436 409h-114v108h114v-108z" />
    <glyph glyph-name="ldot" unicode="&#x140;" horiz-adv-x="363" 
d="M63 0v714h114v-714h-114zM345 409h-114v108h114v-108z" />
    <glyph glyph-name="Lslash" unicode="&#x141;" horiz-adv-x="574" 
d="M76 317v397h125v-306l200 142v-93l-200 -142v-207h363v-108h-488v227l-76 -54v90z" />
    <glyph glyph-name="lslash" unicode="&#x142;" horiz-adv-x="241" 
d="M63 0v319l-68 -53v71l68 53v324h114v-235l68 54v-72l-68 -54v-407h-114z" />
    <glyph glyph-name="Nacute" unicode="&#x143;" horiz-adv-x="722" 
d="M652 712v-712h-129l-332 524v-524h-118v712h131l328 -525v525h120zM309 783l90 143h135l-142 -143h-83z" />
    <glyph glyph-name="nacute" unicode="&#x144;" horiz-adv-x="574" 
d="M169 516v-76q62 90 171 90q88 0 131.5 -48t43.5 -138v-344h-114v300q0 31 -3 51.5t-12.5 41.5t-30.5 31.5t-54 10.5q-126 0 -126 -157v-278h-114v516h108zM230 589l90 143h135l-142 -143h-83z" />
    <glyph glyph-name="Ncommaaccent" unicode="&#x145;" horiz-adv-x="722" 
d="M71 0v714h132l326 -526h2v526h119v-714h-132l-325 525h-3v-525h-119zM285 -149v99h131v-89q0 -79 -116 -84v38q40 6 45 36h-60z" />
    <glyph glyph-name="ncommaaccent" unicode="&#x146;" horiz-adv-x="574" 
d="M60 0v517h108v-76l2 -2q27 43 69 67.5t92 24.5q86 0 134.5 -45t48.5 -131v-355h-114v325q-2 61 -26 88.5t-75 27.5q-56 0 -90.5 -39t-34.5 -97v-305h-114zM220 -149v99h131v-89q0 -79 -116 -84v38q40 6 45 36h-60z" />
    <glyph glyph-name="Ncaron" unicode="&#x147;" horiz-adv-x="722" 
d="M652 712v-712h-129l-332 524v-524h-118v712h131l328 -525v525h120zM521 926l-108 -143h-111l-107 143h92l70 -89l71 89h93z" />
    <glyph glyph-name="ncaron" unicode="&#x148;" horiz-adv-x="574" 
d="M169 516v-76q62 90 171 90q88 0 131.5 -48t43.5 -138v-344h-114v300q0 31 -3 51.5t-12.5 41.5t-30.5 31.5t-54 10.5q-126 0 -126 -157v-278h-114v516h108zM452 732l-108 -143h-111l-107 143h92l70 -89l71 89h93z" />
    <glyph glyph-name="uni014A.Eng" unicode="&#x14a;" horiz-adv-x="722" 
d="M71 714h132l326 -526h2v526h119v-758q0 -78 -38 -119.5t-119 -41.5q-35 0 -55 4v90q11 -2 23 -3t20 -1q31 0 40.5 19t9.5 57v21l-338 543h-3v-525h-119v714z" />
    <glyph glyph-name="uni014B.eng" unicode="&#x14b;" horiz-adv-x="574" 
d="M60 517h108v-76l2 -2q26 43 68 67.5t93 24.5q85 0 134 -44t49 -132v-399q0 -77 -34 -119t-114 -42q-17 0 -28.5 1t-22.5 3v90q20 -4 39 -4q31 0 38.5 19t7.5 57v364q0 61 -25 88.5t-76 27.5q-29 0 -52 -10.5t-39 -29t-25 -43.5t-9 -53v-305h-114v517z" />
    <glyph glyph-name="Omacron" unicode="&#x14c;" horiz-adv-x="760" 
d="M382 729q151 0 245.5 -103.5t94.5 -269.5t-95 -269.5t-247 -103.5q-153 0 -247.5 103t-94.5 270q0 162 92.5 267.5t251.5 105.5zM380 624q-98 0 -157 -72.5t-59 -193.5q0 -124 58.5 -197t159.5 -73q97 0 155.5 73.5t58.5 195.5t-58.5 194.5t-157.5 72.5zM527 818h-288v65
h288v-65z" />
    <glyph glyph-name="omacron" unicode="&#x14d;" horiz-adv-x="593" 
d="M299 531q118 0 188 -74t70 -199q0 -126 -69.5 -200t-188.5 -74q-121 0 -192 74t-71 200q0 125 71.5 199t191.5 74zM297 441q-68 0 -107 -49t-39 -134q0 -87 39 -136t108 -49q67 0 105.5 49.5t38.5 136.5q0 85 -38.5 133.5t-106.5 48.5zM444 624h-288v65h288v-65z" />
    <glyph glyph-name="Obreve" unicode="&#x14e;" horiz-adv-x="760" 
d="M382 729q151 0 245.5 -103.5t94.5 -269.5t-95 -269.5t-247 -103.5q-153 0 -247.5 103t-94.5 270q0 162 92.5 267.5t251.5 105.5zM380 624q-98 0 -157 -72.5t-59 -193.5q0 -124 58.5 -197t159.5 -73q97 0 155.5 73.5t58.5 195.5t-58.5 194.5t-157.5 72.5zM217 925h58
q15 -76 107 -76q39 0 66 19.5t35 56.5h57q-8 -70 -51.5 -105.5t-114.5 -35.5q-69 0 -110 36t-47 105z" />
    <glyph glyph-name="obreve" unicode="&#x14f;" horiz-adv-x="593" 
d="M299 531q118 0 188 -74t70 -199q0 -126 -69.5 -200t-188.5 -74q-121 0 -192 74t-71 200q0 125 71.5 199t191.5 74zM297 441q-68 0 -107 -49t-39 -134q0 -87 39 -136t108 -49q67 0 105.5 49.5t38.5 136.5q0 85 -38.5 133.5t-106.5 48.5zM137 731h58q15 -76 107 -76
q39 0 66 19.5t35 56.5h57q-8 -70 -51.5 -105.5t-114.5 -35.5q-69 0 -110 36t-47 105z" />
    <glyph glyph-name="Ohungarumlaut" unicode="&#x150;" horiz-adv-x="760" 
d="M382 729q151 0 245.5 -103.5t94.5 -269.5t-95 -269.5t-247 -103.5q-153 0 -247.5 103t-94.5 270q0 162 92.5 267.5t251.5 105.5zM380 624q-98 0 -157 -72.5t-59 -193.5q0 -124 58.5 -197t159.5 -73q97 0 155.5 73.5t58.5 195.5t-58.5 194.5t-157.5 72.5zM435 783l90 143
h136l-144 -143h-82zM236 783l90 143h136l-144 -143h-82z" />
    <glyph glyph-name="ohungarumlaut" unicode="&#x151;" horiz-adv-x="593" 
d="M299 531q118 0 188 -74t70 -199q0 -126 -69.5 -200t-188.5 -74q-121 0 -192 74t-71 200q0 125 71.5 199t191.5 74zM297 441q-68 0 -107 -49t-39 -134q0 -87 39 -136t108 -49q67 0 105.5 49.5t38.5 136.5q0 85 -38.5 133.5t-106.5 48.5zM348 589l90 143h136l-144 -143h-82
zM149 589l90 143h136l-144 -143h-82z" />
    <glyph glyph-name="OE" unicode="&#x152;" horiz-adv-x="1093" 
d="M671 606v-187h343v-102h-343v-209h381v-108h-495v64q-69 -81 -188 -81q-102 0 -178 52t-113 135t-37 184q0 158 91 267.5t245 109.5q115 0 180 -74v57h488v-108h-374zM552 219v266q0 60 -44.5 102t-126.5 42q-72 0 -122 -41.5t-71.5 -101.5t-21.5 -130t21.5 -129.5
t71.5 -100.5t122 -41q77 0 124 42t47 92z" />
    <glyph glyph-name="oe" unicode="&#x153;" horiz-adv-x="907" 
d="M281 441q-67 0 -99.5 -53.5t-32.5 -125.5q0 -79 30.5 -132.5t101.5 -53.5t101.5 53.5t30.5 132.5q0 72 -32.5 125.5t-99.5 53.5zM635 441q-56 0 -92 -40t-38 -97h264q-8 137 -134 137zM883 229h-378q0 -67 35 -110t100 -43q45 0 80 23t43 65h114q-21 -87 -82.5 -132.5
t-152.5 -45.5q-138 0 -185 95q-51 -95 -184 -95q-115 0 -176.5 78t-61.5 196q0 115 66.5 193t180.5 78q132 0 181 -87q56 87 181 87q65 0 113 -24t74.5 -67t39 -95.5t12.5 -115.5z" />
    <glyph glyph-name="Racute" unicode="&#x154;" horiz-adv-x="704" 
d="M74 712h337q106 0 173 -47.5t67 -150.5q0 -64 -31 -109.5t-87 -65.5q26 -6 45 -18t29.5 -26t17.5 -36t9.5 -38.5t4.5 -43.5q1 -7 2.5 -27t2 -26.5t2 -22.5t2.5 -22.5t3.5 -19t4.5 -19t5 -15t7 -14.5t9 -11h-134q-3 4 -5.5 9.5t-4.5 12t-3 12t-2.5 15t-1.5 15.5l-2 18
l-2 18q0 6 -1 21t-1 21q-5 87 -36.5 119.5t-119.5 32.5h-166v-294h-124v712zM198 610v-223h165q36 0 61 4t50.5 14.5t39 34.5t13.5 61q0 34 -12 56.5t-34.5 33.5t-46 15t-55.5 4h-181zM286 783l90 143h135l-142 -143h-83z" />
    <glyph glyph-name="racute" unicode="&#x155;" horiz-adv-x="352" 
d="M352 526v-109q-30 3 -40 3q-149 0 -149 -193v-227h-113v516h107v-103q55 115 173 115zM82 589l90 143h135l-142 -143h-83z" />
    <glyph glyph-name="Rcommaaccent" unicode="&#x156;" horiz-adv-x="704" 
d="M76 0v714h341q116 0 176 -50.5t60 -142.5q0 -48 -14 -84t-37 -55.5t-37.5 -27.5t-29.5 -13v-2q41 -5 73.5 -40.5t32.5 -110.5q0 -146 39 -188h-134q-19 31 -19 105q0 103 -29.5 146t-112.5 43h-184v-294h-125zM201 612v-223h205q122 0 122 114q0 63 -33.5 86t-90.5 23
h-203zM289 -149v99h131v-89q0 -79 -116 -84v38q40 6 45 36h-60z" />
    <glyph glyph-name="rcommaaccent" unicode="&#x157;" horiz-adv-x="352" 
d="M60 0v517h107v-100h2q10 43 55.5 78.5t95.5 35.5q10 0 43 -3v-110q-27 5 -49 5q-60 0 -100 -47t-40 -130v-246h-114zM51 -149v99h131v-89q0 -79 -116 -84v38q40 6 45 36h-60z" />
    <glyph glyph-name="Rcaron" unicode="&#x158;" horiz-adv-x="704" 
d="M74 712h337q106 0 173 -47.5t67 -150.5q0 -64 -31 -109.5t-87 -65.5q26 -6 45 -18t29.5 -26t17.5 -36t9.5 -38.5t4.5 -43.5q1 -7 2.5 -27t2 -26.5t2 -22.5t2.5 -22.5t3.5 -19t4.5 -19t5 -15t7 -14.5t9 -11h-134q-3 4 -5.5 9.5t-4.5 12t-3 12t-2.5 15t-1.5 15.5l-2 18
l-2 18q0 6 -1 21t-1 21q-5 87 -36.5 119.5t-119.5 32.5h-166v-294h-124v712zM198 610v-223h165q36 0 61 4t50.5 14.5t39 34.5t13.5 61q0 34 -12 56.5t-34.5 33.5t-46 15t-55.5 4h-181zM499 926l-108 -143h-111l-107 143h92l70 -89l71 89h93z" />
    <glyph glyph-name="rcaron" unicode="&#x159;" horiz-adv-x="352" 
d="M352 526v-109q-30 3 -40 3q-149 0 -149 -193v-227h-113v516h107v-103q55 115 173 115zM374 732l-108 -143h-111l-107 143h92l70 -89l71 89h93z" />
    <glyph glyph-name="Sacute" unicode="&#x15a;" horiz-adv-x="648" 
d="M587 502h-119q-11 125 -155 125q-64 0 -100 -26.5t-36 -72.5q0 -43 26.5 -59t117.5 -39q24 -7 37 -10q119 -30 162 -54q95 -51 95 -159q0 -47 -16 -85t-43 -63.5t-64 -42.5t-77 -24.5t-83 -7.5q-134 0 -217 64t-83 188h123q0 -78 51 -115.5t133 -37.5q72 0 112.5 29.5
t40.5 82.5q0 34 -21.5 55.5t-46.5 30.5t-87 25q-7 2 -11 3q-133 34 -175 56q-87 45 -93 139v14q0 95 71.5 151.5t191.5 56.5q116 0 189 -55t77 -169zM276 783l90 143h135l-142 -143h-83z" />
    <glyph glyph-name="sacute" unicode="&#x15b;" horiz-adv-x="519" 
d="M469 366h-109q-10 82 -112 82q-44 0 -68 -16t-24 -44q0 -9 1.5 -16t6 -12.5t8 -9.5t12.5 -8t14.5 -6.5t18.5 -6t20.5 -5.5t24.5 -5.5t26 -5.5q39 -9 56.5 -13.5t51 -18t49.5 -28t29.5 -40t13.5 -58.5q0 -78 -61 -124t-164 -46q-110 0 -169 46t-63 134h109q9 -97 125 -97
q50 0 80.5 20.5t30.5 54.5q0 17 -7.5 29t-24.5 20.5t-32.5 13t-41.5 10.5l-6 1q-2 1 -5 1.5t-6 1.5q-110 27 -140 42q-71 34 -71 113q0 73 56 114.5t155 41.5q95 0 155.5 -41t60.5 -124zM192 589l90 143h135l-142 -143h-83z" />
    <glyph glyph-name="Scircumflex" unicode="&#x15c;" horiz-adv-x="648" 
d="M587 502h-119q-11 125 -155 125q-64 0 -100 -26.5t-36 -72.5q0 -43 26.5 -59t117.5 -39q24 -7 37 -10q119 -30 162 -54q95 -51 95 -159q0 -47 -16 -85t-43 -63.5t-64 -42.5t-77 -24.5t-83 -7.5q-134 0 -217 64t-83 188h123q0 -78 51 -115.5t133 -37.5q72 0 112.5 29.5
t40.5 82.5q0 34 -21.5 55.5t-46.5 30.5t-87 25q-7 2 -11 3q-133 34 -175 56q-87 45 -93 139v14q0 95 71.5 151.5t191.5 56.5q116 0 189 -55t77 -169zM330 873l-70 -90h-92l107 143h111l108 -143h-93z" />
    <glyph glyph-name="scircumflex" unicode="&#x15d;" horiz-adv-x="519" 
d="M469 366h-109q-10 82 -112 82q-44 0 -68 -16t-24 -44q0 -9 1.5 -16t6 -12.5t8 -9.5t12.5 -8t14.5 -6.5t18.5 -6t20.5 -5.5t24.5 -5.5t26 -5.5q39 -9 56.5 -13.5t51 -18t49.5 -28t29.5 -40t13.5 -58.5q0 -78 -61 -124t-164 -46q-110 0 -169 46t-63 134h109q9 -97 125 -97
q50 0 80.5 20.5t30.5 54.5q0 17 -7.5 29t-24.5 20.5t-32.5 13t-41.5 10.5l-6 1q-2 1 -5 1.5t-6 1.5q-110 27 -140 42q-71 34 -71 113q0 73 56 114.5t155 41.5q95 0 155.5 -41t60.5 -124zM266 679l-70 -90h-92l107 143h111l108 -143h-93z" />
    <glyph glyph-name="Scedilla" unicode="&#x15e;" horiz-adv-x="648" 
d="M200 -200l18 40q35 -16 65 -16q61 0 61 41q0 18 -13.5 28t-32.5 10q-23 0 -39 -10l-22 19l54 73q-41 3 -75 13q-83 23 -132.5 83.5t-50.5 156.5h125q0 -78 50 -115.5t131 -37.5q77 0 114 31.5t37 76.5q0 66 -59 88q-23 9 -51.5 17t-78 20.5t-83.5 21.5q-158 41 -158 181
q0 101 77.5 155.5t183.5 54.5q117 0 195.5 -60.5t78.5 -167.5h-125q-10 126 -154 126q-52 0 -91.5 -22t-39.5 -71q0 -67 85 -92q1 0 47 -12t94.5 -25t64.5 -18q67 -21 103 -71.5t36 -110.5q0 -85 -50 -139t-130 -72q-46 -11 -98 -13l-32 -42l1 -1q11 4 33 4q33 0 59 -19.5
t26 -55.5q0 -46 -36 -69t-85 -23q-61 0 -103 23z" />
    <glyph glyph-name="scedilla" unicode="&#x15f;" horiz-adv-x="519" 
d="M138 -200l18 40q35 -16 65 -16q61 0 61 41q0 18 -13.5 28t-32.5 10q-23 0 -39 -10l-22 19l56 75q-36 3 -61 10q-64 17 -100.5 60t-37.5 109h114q9 -90 117 -90q20 0 37.5 2.5t37 9t30.5 21t10 35.5q-1 13 -5.5 23t-15 17.5t-20.5 12.5t-28 10t-30 8t-35 7.5t-35 7.5
q-36 8 -62 17.5t-51.5 26t-39 44t-13.5 65.5q0 40 20 70.5t53 46.5t69 23.5t74 7.5q87 0 147 -38.5t69 -120.5h-119q-14 69 -105 69q-21 0 -40 -3.5t-36.5 -16t-17.5 -33.5q0 -12 4 -21.5t15 -16.5t20 -12t28.5 -10.5t30 -8t35.5 -7.5l35 -7q37 -8 62.5 -17.5t51.5 -26.5
t39.5 -43.5t13.5 -63.5q0 -64 -42 -104t-108 -55q-26 -6 -64 -8l-35 -46l1 -1q11 4 33 4q33 0 59 -19.5t26 -55.5q0 -46 -36 -69t-85 -23q-61 0 -103 23z" />
    <glyph glyph-name="Scaron" unicode="&#x160;" horiz-adv-x="648" 
d="M587 502h-119q-11 125 -155 125q-64 0 -100 -26.5t-36 -72.5q0 -43 26.5 -59t117.5 -39q24 -7 37 -10q119 -30 162 -54q95 -51 95 -159q0 -47 -16 -85t-43 -63.5t-64 -42.5t-77 -24.5t-83 -7.5q-134 0 -217 64t-83 188h123q0 -78 51 -115.5t133 -37.5q72 0 112.5 29.5
t40.5 82.5q0 34 -21.5 55.5t-46.5 30.5t-87 25q-7 2 -11 3q-133 34 -175 56q-87 45 -93 139v14q0 95 71.5 151.5t191.5 56.5q116 0 189 -55t77 -169zM491 926l-108 -143h-111l-107 143h92l70 -89l71 89h93z" />
    <glyph glyph-name="scaron" unicode="&#x161;" horiz-adv-x="519" 
d="M469 366h-109q-10 82 -112 82q-44 0 -68 -16t-24 -44q0 -9 1.5 -16t6 -12.5t8 -9.5t12.5 -8t14.5 -6.5t18.5 -6t20.5 -5.5t24.5 -5.5t26 -5.5q39 -9 56.5 -13.5t51 -18t49.5 -28t29.5 -40t13.5 -58.5q0 -78 -61 -124t-164 -46q-110 0 -169 46t-63 134h109q9 -97 125 -97
q50 0 80.5 20.5t30.5 54.5q0 17 -7.5 29t-24.5 20.5t-32.5 13t-41.5 10.5l-6 1q-2 1 -5 1.5t-6 1.5q-110 27 -140 42q-71 34 -71 113q0 73 56 114.5t155 41.5q95 0 155.5 -41t60.5 -124zM427 732l-108 -143h-111l-107 143h92l70 -89l71 89h93z" />
    <glyph glyph-name="Tcommaaccent" unicode="&#x162;" horiz-adv-x="593" 
d="M8 606v108h578v-108h-227v-606h-125v606h-226zM230 -149v99h131v-89q0 -79 -116 -84v38q40 6 45 36h-60z" />
    <glyph glyph-name="tcommaaccent" unicode="&#x163;" horiz-adv-x="333" 
d="M8 432v85h86v155h114v-155h103v-85h-103v-276q0 -40 9.5 -55.5t45.5 -15.5q32 0 48 4v-88q-50 -6 -74 -6q-84 0 -112.5 30.5t-30.5 101.5v305h-86zM139 -149v99h131v-89q0 -79 -116 -84v38q40 6 45 36h-60z" />
    <glyph glyph-name="Tcaron" unicode="&#x164;" horiz-adv-x="593" 
d="M586 712v-108h-227v-604h-125v604h-227v108h579zM461 926l-108 -143h-111l-107 143h92l70 -89l71 89h93z" />
    <glyph glyph-name="tcaron" unicode="&#x165;" horiz-adv-x="391" 
d="M300 571l32 143h125l-81 -143h-76zM8 432v85h86v155h114v-155h103v-85h-103v-276q0 -40 9.5 -55.5t45.5 -15.5q32 0 48 4v-88q-50 -6 -74 -6q-84 0 -112.5 30.5t-30.5 101.5v305h-86z" />
    <glyph glyph-name="Tbar" unicode="&#x166;" horiz-adv-x="593" 
d="M8 606v108h578v-108h-227v-138h164v-65h-164v-403h-125v403h-159v65h159v138h-226z" />
    <glyph glyph-name="tbar" unicode="&#x167;" horiz-adv-x="333" 
d="M8 432v85h86v155h114v-155h103v-85h-103v-86h112v-65h-112v-125q0 -40 9.5 -55.5t45.5 -15.5q32 0 48 4v-88q-50 -6 -74 -6q-84 0 -112.5 30.5t-30.5 101.5v154h-94v65h94v86h-86z" />
    <glyph glyph-name="Utilde" unicode="&#x168;" horiz-adv-x="722" 
d="M653 712v-436q0 -290 -290 -290q-151 0 -222.5 72t-71.5 220v434h125v-459q0 -164 171 -164q52 0 85.5 14t49.5 43t22 62.5t6 83.5v420h125zM484 914h56q-9 -55 -33 -81q-28 -34 -78 -34q-31 0 -74 19q-43 18 -68 18q-35 0 -43 -41h-57q7 44 34.5 78.5t69.5 34.5
q33 0 81 -20q42 -18 62 -18q39 0 50 44z" />
    <glyph glyph-name="utilde" unicode="&#x169;" horiz-adv-x="574" 
d="M513 516v-516h-107v77q-65 -91 -170 -91q-85 0 -130.5 48.5t-45.5 139.5v342h114v-295q0 -27 1 -43.5t6.5 -37t16 -31.5t30 -19t47.5 -8q64 0 94 45.5t30 115.5v273h114zM409 720h56q-9 -55 -33 -81q-28 -34 -78 -34q-31 0 -74 19q-43 18 -68 18q-35 0 -43 -41h-57
q7 44 34.5 78.5t69.5 34.5q33 0 81 -20q42 -18 62 -18q39 0 50 44z" />
    <glyph glyph-name="Umacron" unicode="&#x16a;" horiz-adv-x="722" 
d="M653 712v-436q0 -290 -290 -290q-151 0 -222.5 72t-71.5 220v434h125v-459q0 -164 171 -164q52 0 85.5 14t49.5 43t22 62.5t6 83.5v420h125zM506 818h-288v65h288v-65z" />
    <glyph glyph-name="umacron" unicode="&#x16b;" horiz-adv-x="574" 
d="M513 516v-516h-107v77q-65 -91 -170 -91q-85 0 -130.5 48.5t-45.5 139.5v342h114v-295q0 -27 1 -43.5t6.5 -37t16 -31.5t30 -19t47.5 -8q64 0 94 45.5t30 115.5v273h114zM436 624h-288v65h288v-65z" />
    <glyph glyph-name="Ubreve" unicode="&#x16c;" horiz-adv-x="722" 
d="M653 712v-436q0 -290 -290 -290q-151 0 -222.5 72t-71.5 220v434h125v-459q0 -164 171 -164q52 0 85.5 14t49.5 43t22 62.5t6 83.5v420h125zM201 925h58q15 -76 107 -76q39 0 66 19.5t35 56.5h57q-8 -70 -51.5 -105.5t-114.5 -35.5q-69 0 -110 36t-47 105z" />
    <glyph glyph-name="ubreve" unicode="&#x16d;" horiz-adv-x="574" 
d="M513 516v-516h-107v77q-65 -91 -170 -91q-85 0 -130.5 48.5t-45.5 139.5v342h114v-295q0 -27 1 -43.5t6.5 -37t16 -31.5t30 -19t47.5 -8q64 0 94 45.5t30 115.5v273h114zM131 731h58q15 -76 107 -76q39 0 66 19.5t35 56.5h57q-8 -70 -51.5 -105.5t-114.5 -35.5
q-69 0 -110 36t-47 105z" />
    <glyph glyph-name="Uring" unicode="&#x16e;" horiz-adv-x="722" 
d="M653 712v-436q0 -290 -290 -290q-151 0 -222.5 72t-71.5 220v434h125v-459q0 -164 171 -164q52 0 85.5 14t49.5 43t22 62.5t6 83.5v420h125zM303 854q0 -26 17.5 -43.5t42.5 -17.5q26 0 43 17.5t17 43.5q0 27 -17 44t-43 17q-25 0 -42.5 -17t-17.5 -44zM363 751
q-44 0 -74 29t-30 74t30.5 74t73.5 29t73.5 -29t30.5 -74t-30.5 -74t-73.5 -29z" />
    <glyph glyph-name="uring" unicode="&#x16f;" horiz-adv-x="574" 
d="M513 516v-516h-107v77q-65 -91 -170 -91q-85 0 -130.5 48.5t-45.5 139.5v342h114v-295q0 -27 1 -43.5t6.5 -37t16 -31.5t30 -19t47.5 -8q64 0 94 45.5t30 115.5v273h114zM232 674q0 -26 17.5 -43.5t42.5 -17.5q26 0 43 17.5t17 43.5q0 27 -17 44t-43 17q-25 0 -42.5 -17
t-17.5 -44zM292 571q-44 0 -74 29t-30 74t30.5 74t73.5 29t73.5 -29t30.5 -74t-30.5 -74t-73.5 -29z" />
    <glyph glyph-name="Uhungarumlaut" unicode="&#x170;" horiz-adv-x="722" 
d="M653 712v-436q0 -290 -290 -290q-151 0 -222.5 72t-71.5 220v434h125v-459q0 -164 171 -164q52 0 85.5 14t49.5 43t22 62.5t6 83.5v420h125zM419 783l90 143h136l-144 -143h-82zM220 783l90 143h136l-144 -143h-82z" />
    <glyph glyph-name="uhungarumlaut" unicode="&#x171;" horiz-adv-x="574" 
d="M513 516v-516h-107v77q-65 -91 -170 -91q-85 0 -130.5 48.5t-45.5 139.5v342h114v-295q0 -27 1 -43.5t6.5 -37t16 -31.5t30 -19t47.5 -8q64 0 94 45.5t30 115.5v273h114zM344 589l90 143h136l-144 -143h-82zM145 589l90 143h136l-144 -143h-82z" />
    <glyph glyph-name="Uogonek" unicode="&#x172;" horiz-adv-x="722" 
d="M68 257v457h125v-416q0 -36 2 -59t11 -54.5t26 -49.5t49.5 -31t79.5 -13t79.5 13t49.5 31t26 49.5t11 54.5t2 59v416h125v-457q0 -101 -45.5 -166t-127.5 -91q-37 -12 -81 -15q-15 -13 -27 -24q-47 -47 -47 -90q0 -20 11.5 -32t27.5 -12q31 0 52 34l41 -9
q-20 -75 -105 -75q-12 0 -24.5 2.5t-32 10t-32 27.5t-12.5 50q0 43 49 87q13 12 38 30q-49 1 -98 16q-82 26 -127.5 91t-45.5 166z" />
    <glyph glyph-name="uogonek" unicode="&#x173;" horiz-adv-x="574" 
d="M514 0h-61q-52 -44 -70.5 -71.5t-18.5 -57.5q0 -20 11 -32t26 -12q29 0 49 34l39 -9q-9 -40 -37.5 -57.5t-61.5 -17.5q-11 0 -23.5 2.5t-30.5 10t-30 27.5t-12 50q0 65 108 133v72h-2q-21 -38 -62.5 -62t-84.5 -24q-101 0 -147 50t-46 153v328h114v-317q0 -66 25 -95
t74 -29q127 0 127 141v300h114v-517z" />
    <glyph glyph-name="Wcircumflex" unicode="&#x174;" horiz-adv-x="944" 
d="M8 712h127l130 -542l146 542h127l141 -542l134 542h127l-197 -712h-127l-144 547l-147 -547h-129zM472 873l-70 -90h-92l107 143h111l108 -143h-93z" />
    <glyph glyph-name="wcircumflex" unicode="&#x175;" horiz-adv-x="778" 
d="M12 516h121l102 -387l97 387h115l95 -387l107 387h116l-163 -516h-117l-97 383l-96 -383h-120zM394 679l-70 -90h-92l107 143h111l108 -143h-93z" />
    <glyph glyph-name="Ycircumflex" unicode="&#x176;" horiz-adv-x="648" 
d="M655 712l-268 -429v-283h-123v283l-269 429h144l189 -315l187 315h140zM330 873l-70 -90h-92l107 143h111l108 -143h-93z" />
    <glyph glyph-name="ycircumflex" unicode="&#x177;" horiz-adv-x="519" 
d="M515 516l-191 -506q-3 -7 -11 -29.5t-11 -30.5t-11.5 -28t-13.5 -28l-15 -24q-10 -16 -18.5 -23t-21 -17.5t-25.5 -15t-29.5 -8t-35.5 -3.5q-32 0 -79 6v96q36 -7 60 -7q12 0 22 3.5t18 12t14 16t11.5 21t8.5 21t8 23.5t6 20l-198 501h125l138 -380l130 380h119zM263 679
l-70 -90h-92l107 143h111l108 -143h-93z" />
    <glyph glyph-name="Ydieresis" unicode="&#x178;" horiz-adv-x="648" 
d="M655 712l-268 -429v-283h-123v283l-269 429h144l189 -315l187 315h140zM300 796h-114v108h114v-108zM358 904h114v-108h-114v108z" />
    <glyph glyph-name="Zacute" unicode="&#x179;" horiz-adv-x="630" 
d="M592 712v-99l-415 -505h427v-108h-585v103l412 501h-382v108h543zM270 783l90 143h135l-142 -143h-83z" />
    <glyph glyph-name="zacute" unicode="&#x17a;" horiz-adv-x="500" 
d="M462 516v-80l-292 -344h307v-92h-455v87l288 339h-268v90h420zM205 589l90 143h135l-142 -143h-83z" />
    <glyph glyph-name="Zdotaccent" unicode="&#x17b;" horiz-adv-x="630" 
d="M592 712v-99l-415 -505h427v-108h-585v103l412 501h-382v108h543zM380 796h-114v108h114v-108z" />
    <glyph glyph-name="zdotaccent" unicode="&#x17c;" horiz-adv-x="500" 
d="M462 516v-80l-292 -344h307v-92h-455v87l288 339h-268v90h420zM309 602h-114v108h114v-108z" />
    <glyph glyph-name="Zcaron" unicode="&#x17d;" horiz-adv-x="630" 
d="M592 712v-99l-415 -505h427v-108h-585v103l412 501h-382v108h543zM486 926l-108 -143h-111l-107 143h92l70 -89l71 89h93z" />
    <glyph glyph-name="zcaron" unicode="&#x17e;" horiz-adv-x="500" 
d="M462 516v-80l-292 -344h307v-92h-455v87l288 339h-268v90h420zM416 732l-108 -143h-111l-107 143h92l70 -89l71 89h93z" />
    <glyph glyph-name="uni017F.longs" unicode="&#x17f;" horiz-adv-x="315" 
d="M9 517h85v43q0 49 12 79.5t32 47t45.5 22t53.5 5.5q56 0 80 -7v-89q-11 3 -23.5 4.5t-29.5 1.5q-23 0 -39.5 -11t-16.5 -43v-570h-114v432h-85v85z" />
    <glyph glyph-name="uni018F.Schwa" unicode="&#x18f;" horiz-adv-x="760" 
d="M380 731q80 0 143.5 -30t107.5 -81t67.5 -119t23.5 -144q0 -77 -23.5 -145t-67.5 -119t-107.5 -80.5t-143.5 -29.5t-143.5 29.5t-107.5 80.5t-67.5 119t-23.5 145q0 12 0.5 24t1.5 23h554q-5 45 -20 85.5t-41.5 71.5t-64 49.5t-88.5 18.5q-74 0 -121 -37t-70 -94h-129
q17 51 46.5 93.5t70 73.5t92 48.5t111.5 17.5zM380 85q49 0 85.5 17t62.5 46t42 67t22 81h-425q6 -43 22 -81t42 -67t63 -46t86 -17z" />
    <glyph glyph-name="florin" unicode="&#x192;" 
d="M440 438l-15 -80h-101l-62 -330q-20 -110 -59.5 -153.5t-143.5 -43.5q-14 0 -59 3l15 89q16 -1 39 -1q14 0 26 3t19.5 6t14.5 12t10.5 13t7.5 18t5.5 18t4.5 22t4 22l62 322h-92l15 80h92l20 108q17 91 61 130t132 39q27 0 65 -3l-17 -89q-21 2 -40 2q-39 0 -57 -18.5
t-29 -69.5l-20 -99h102z" />
    <glyph glyph-name="uni01A0.OHorn" unicode="&#x1a0;" horiz-adv-x="854" 
d="M818 707l65 -113l-77 -44q-24 -14 -49 -23t-48 -9h-9q-4 0 -9 1q31 -76 31 -162q0 -77 -23.5 -145t-67.5 -119t-107.5 -80.5t-143.5 -29.5t-143.5 29.5t-107.5 80.5t-67.5 119t-23.5 145q0 76 23.5 144t67.5 119t107.5 81t143.5 30q94 0 164 -40t114 -107q10 -9 30 -9
q14 0 32.5 6.5t44.5 20.5l-33 56zM380 629q-57 0 -98.5 -23t-67.5 -61.5t-38.5 -87.5t-12.5 -100t12.5 -100t38.5 -87.5t67.5 -61.5t98.5 -23t98.5 23t67.5 61.5t38.5 87.5t12.5 100t-12.5 100t-38.5 87.5t-67.5 61.5t-98.5 23z" />
    <glyph glyph-name="uni01A1.oHorn" unicode="&#x1a1;" horiz-adv-x="685" 
d="M649 557l65 -113l-77 -44q-24 -14 -49 -23t-48 -9q18 -50 18 -109q0 -60 -17.5 -110t-51 -86t-82 -56.5t-110.5 -20.5t-110.5 20.5t-82 56.5t-51 86t-17.5 110q0 59 17.5 109t51 86t82 56.5t110.5 20.5q73 0 127.5 -28t86.5 -78q20 0 39.5 6.5t45.5 20.5l-33 56zM297 76
q38 0 66 16t46 42t26.5 58.5t8.5 66.5q0 33 -8.5 66t-26.5 58.5t-46 41.5t-66 16t-66 -16t-46 -41.5t-26.5 -58.5t-8.5 -66q0 -34 8.5 -66.5t26.5 -58.5t46 -42t66 -16z" />
    <glyph glyph-name="uni01A2.OI" unicode="&#x1a2;" horiz-adv-x="855" 
d="M783 -191h-125v803h-96v-612h-209q-83 0 -142.5 28t-97.5 76.5t-56.5 113.5t-18.5 139t18.5 139t56.5 113.5t97.5 76.5t142.5 28h430v-905zM437 612h-36q-74 0 -120 -19.5t-72.5 -54t-36 -81t-9.5 -100.5t9.5 -100.5t36 -81t72.5 -54t120 -19.5h36v510z" />
    <glyph glyph-name="uni01A3.oi" unicode="&#x1a3;" horiz-adv-x="701" 
d="M289 0q-66 0 -114 20.5t-78.5 55.5t-45.5 82t-15 100q0 54 15 101t45.5 82t78.5 55.5t114 20.5h348v-708h-114v634h-71v-443h-163zM151 258q0 -39 7.5 -72.5t27 -58.5t54 -39t89.5 -14h9v369h-9q-55 0 -89.5 -14t-54 -39t-27 -59t-7.5 -73z" />
    <glyph glyph-name="uni01AF.UHorn" unicode="&#x1af;" horiz-adv-x="826" 
d="M790 707l65 -113l-77 -44q-23 -13 -47.5 -22.5t-50.5 -9.5q-14 0 -26 3v-264q0 -69 -21 -120t-59.5 -85.5t-92.5 -51.5t-120 -17t-120 17t-92.5 51.5t-59.5 85.5t-21 120v457h125v-416q0 -36 3.5 -73t20 -66.5t50 -48.5t94.5 -19t94.5 19t50 48.5t20 66.5t3.5 73v416h125
v-139q18 0 37.5 6.5t45.5 20.5l-33 56z" />
    <glyph glyph-name="uni01B0.uHorn" unicode="&#x1b0;" horiz-adv-x="678" 
d="M642 557l65 -113l-77 -44q-24 -14 -49 -23t-48 -9q-5 0 -9.5 0.5t-9.5 1.5v-370h-112v72h-2q-21 -39 -62.5 -62.5t-84.5 -23.5q-102 0 -147.5 50.5t-45.5 152.5v328h114v-317q0 -68 26 -96t73 -28q36 0 60 11t39 29.5t21.5 44.5t6.5 56v300h114v-92q14 0 32 6.5t43 20.5
l-33 56z" />
    <glyph glyph-name="uni01B5.ZStroke" unicode="&#x1b5;" horiz-adv-x="630" 
d="M65 410h212l162 196h-384v108h543v-95l-170 -209h117v-108h-205l-158 -194h426v-108h-585v102l165 200h-123v108z" />
    <glyph glyph-name="uni01B6.zStroke" unicode="&#x1b6;" horiz-adv-x="500" 
d="M51 310h160l97 117h-266v90h420v-80l-109 -127h92v-92h-170l-109 -128h311v-90h-455v80l113 138h-84v92z" />
    <glyph glyph-name="clickdental" unicode="&#x1c0;" horiz-adv-x="222" 
d="M60 786h102v-1000h-102v1000z" />
    <glyph glyph-name="clicklateral" unicode="&#x1c1;" horiz-adv-x="444" 
d="M60 786h102v-1000h-102v1000zM282 786h102v-1000h-102v1000z" />
    <glyph glyph-name="clickretroflex" unicode="&#x1c3;" horiz-adv-x="278" 
d="M72 125h134v-125h-134v125zM77 714h125v-206l-33 -309h-59l-33 309v206z" />
    <glyph glyph-name="DZcaron" unicode="&#x1c4;" horiz-adv-x="1352" 
d="M76 714h296q82 0 142 -28t98 -76.5t56.5 -113.5t18.5 -139t-18.5 -139t-56.5 -113.5t-98 -76.5t-142 -28h-296v714zM201 102h123q73 0 119.5 19.5t73 54t36 81t9.5 100.5t-9.5 100.5t-36 81t-73 54t-119.5 19.5h-123v-510zM777 714h543v-95l-416 -511h426v-108h-585v102
l416 504h-384v108zM1092 764h-111l-107 143h92l70 -89l71 89h93z" />
    <glyph glyph-name="Dzcaron" unicode="&#x1c5;" horiz-adv-x="1222" 
d="M76 714h296q82 0 142 -28t98 -76.5t56.5 -113.5t18.5 -139t-18.5 -139t-56.5 -113.5t-98 -76.5t-142 -28h-296v714zM201 102h123q73 0 119.5 19.5t73 54t36 81t9.5 100.5t-9.5 100.5t-36 81t-73 54t-119.5 19.5h-123v-510zM764 517h420v-80l-296 -347h311v-90h-455v80
l286 347h-266v90zM1026 567h-111l-107 143h92l70 -89l71 89h93z" />
    <glyph glyph-name="dzcaron" unicode="&#x1c6;" horiz-adv-x="1111" 
d="M547 0h-108v70h-2q-23 -45 -67 -64.5t-93 -19.5q-61 0 -106.5 21.5t-75.5 58.5t-45 87.5t-15 108.5q0 70 19 121t50.5 84t72 48.5t82.5 15.5q24 0 49 -4.5t48 -14.5t42.5 -25.5t32.5 -36.5h2v264h114v-714zM149 253q0 -33 8.5 -65t26 -57t44.5 -40t64 -15q38 0 65.5 16
t45 42t26 58.5t8.5 66.5q0 86 -38.5 134t-104.5 48q-40 0 -67.5 -16.5t-45 -43t-25 -60t-7.5 -68.5zM653 517h420v-80l-296 -347h311v-90h-455v80l286 347h-266v90zM915 567h-111l-107 143h92l70 -89l71 89h93z" />
    <glyph glyph-name="LJ" unicode="&#x1c7;" horiz-adv-x="1111" 
d="M76 714h125v-606h363v-108h-488v714zM1035 230q0 -47 -8 -91t-32.5 -79t-71 -56t-123.5 -21q-57 0 -97 17.5t-66 48t-38 72.5t-12 91v38h125v-37q0 -61 20.5 -94.5t77.5 -33.5q30 0 49.5 9t31 26.5t15.5 43.5t4 59v491h125v-484z" />
    <glyph glyph-name="Lj" unicode="&#x1c8;" horiz-adv-x="815" 
d="M76 714h125v-606h363v-108h-488v714zM637 714h114v-108h-114v108zM637 517h114v-561q0 -77 -34 -119t-114 -42q-17 0 -28.5 1t-22.5 3v90q11 -2 21 -3t18 -1q31 0 38.5 19t7.5 57v556z" />
    <glyph glyph-name="lj" unicode="&#x1c9;" horiz-adv-x="482" 
d="M63 714h114v-714h-114v714zM304 714h114v-108h-114v108zM304 517h114v-561q0 -77 -34 -119t-114 -42q-17 0 -28.5 1t-22.5 3v90q11 -2 21 -3t18 -1q31 0 38.5 19t7.5 57v556z" />
    <glyph glyph-name="NJ" unicode="&#x1ca;" horiz-adv-x="1259" 
d="M71 714h132l326 -526h2v526h119v-714h-132l-325 525h-3v-525h-119v714zM1183 230q0 -47 -8 -91t-32.5 -79t-71 -56t-123.5 -21q-57 0 -97 17.5t-66 48t-38 72.5t-12 91v38h125v-37q0 -61 20.5 -94.5t77.5 -33.5q30 0 49.5 9t31 26.5t15.5 43.5t4 59v491h125v-484z" />
    <glyph glyph-name="Nj" unicode="&#x1cb;" horiz-adv-x="963" 
d="M71 714h132l326 -526h2v526h119v-714h-132l-325 525h-3v-525h-119v714zM785 714h114v-108h-114v108zM785 517h114v-561q0 -77 -34 -119t-114 -42q-17 0 -28.5 1t-22.5 3v90q11 -2 21 -3t18 -1q31 0 38.5 19t7.5 57v556z" />
    <glyph glyph-name="nj" unicode="&#x1cc;" horiz-adv-x="815" 
d="M60 517h108v-76l2 -2q26 43 68 67.5t93 24.5q85 0 134 -44t49 -132v-355h-114v325q-2 61 -26 88.5t-75 27.5q-29 0 -52 -10.5t-39 -29t-25 -43.5t-9 -53v-305h-114v517zM637 714h114v-108h-114v108zM637 517h114v-561q0 -77 -34 -119t-114 -42q-17 0 -28.5 1t-22.5 3v90
q11 -2 21 -3t18 -1q31 0 38.5 19t7.5 57v556z" />
    <glyph glyph-name="Acaron" unicode="&#x1cd;" horiz-adv-x="667" 
d="M267 714h133l275 -714h-134l-67 189h-285l-67 -189h-129zM223 284h218l-107 307h-3zM389 764h-111l-107 143h92l70 -89l71 89h93z" />
    <glyph glyph-name="acaron" unicode="&#x1ce;" 
d="M493 115q0 -21 5.5 -30t21.5 -9h12q7 0 16 2v-79q-6 -2 -15.5 -4.5t-19.5 -4.5t-20 -3t-17 -1q-35 0 -58 14t-30 49q-34 -33 -83.5 -48t-95.5 -15q-35 0 -67 9.5t-56.5 28t-39 47t-14.5 66.5q0 48 17.5 78t46 47t64 24.5t71.5 11.5q31 6 59 8.5t49.5 8.5t34 18.5
t12.5 37.5q0 22 -10.5 36t-26 21.5t-34.5 10t-36 2.5q-48 0 -79 -20t-35 -62h-114q3 50 24 83t53.5 53t73.5 28t84 8q38 0 75 -8t66.5 -26t47.5 -46.5t18 -69.5v-266zM379 259q-26 -17 -64 -20.5t-76 -10.5q-18 -3 -35 -8.5t-30 -15t-20.5 -25t-7.5 -37.5q0 -19 11 -32
t26.5 -20.5t34 -10.5t33.5 -3q19 0 41 5t41.5 17t32.5 30.5t13 45.5v85zM345 581h-111l-107 143h92l70 -89l71 89h93z" />
    <glyph glyph-name="Icaron" unicode="&#x1cf;" horiz-adv-x="278" 
d="M76 714h125v-714h-125v714zM193 764h-111l-107 143h92l70 -89l71 89h93z" />
    <glyph glyph-name="icaron" unicode="&#x1d0;" horiz-adv-x="241" 
d="M63 0v517h114v-517h-114zM175 567h-111l-107 143h92l70 -89l71 89h93z" />
    <glyph glyph-name="Ocaron" unicode="&#x1d1;" horiz-adv-x="760" 
d="M380 629q-57 0 -98.5 -23t-67.5 -61.5t-38.5 -87.5t-12.5 -100t12.5 -100t38.5 -87.5t67.5 -61.5t98.5 -23t98.5 23t67.5 61.5t38.5 87.5t12.5 100t-12.5 100t-38.5 87.5t-67.5 61.5t-98.5 23zM380 731q80 0 143.5 -30t107.5 -81t67.5 -119t23.5 -144q0 -77 -23.5 -145
t-67.5 -119t-107.5 -80.5t-143.5 -29.5t-143.5 29.5t-107.5 80.5t-67.5 119t-23.5 145q0 76 23.5 144t67.5 119t107.5 81t143.5 30zM435 781h-111l-107 143h92l70 -89l71 89h93z" />
    <glyph glyph-name="ocaron" unicode="&#x1d2;" horiz-adv-x="593" 
d="M297 -14q-62 0 -110.5 20.5t-82 56.5t-51 86t-17.5 110q0 59 17.5 109t51 86t82 56.5t110.5 20.5t110.5 -20.5t82 -56.5t51 -86t17.5 -109q0 -60 -17.5 -110t-51 -86t-82 -56.5t-110.5 -20.5zM297 76q38 0 66 16t46 42t26.5 58.5t8.5 66.5q0 33 -8.5 66t-26.5 58.5
t-46 41.5t-66 16t-66 -16t-46 -41.5t-26.5 -58.5t-8.5 -66q0 -34 8.5 -66.5t26.5 -58.5t46 -42t66 -16zM352 581h-111l-107 143h92l70 -89l71 89h93z" />
    <glyph glyph-name="Ucaron" unicode="&#x1d3;" horiz-adv-x="722" 
d="M68 714h125v-416q0 -36 3.5 -73t20 -66.5t50 -48.5t94.5 -19t94.5 19t50 48.5t20 66.5t3.5 73v416h125v-457q0 -69 -21 -120t-59.5 -85.5t-92.5 -51.5t-120 -17t-120 17t-92.5 51.5t-59.5 85.5t-21 120v457zM416 764h-111l-107 143h92l70 -89l71 89h93z" />
    <glyph glyph-name="ucaron" unicode="&#x1d4;" horiz-adv-x="574" 
d="M514 0h-112v72h-2q-21 -39 -62.5 -62.5t-84.5 -23.5q-102 0 -147.5 50.5t-45.5 152.5v328h114v-317q0 -68 26 -96t73 -28q36 0 60 11t39 29.5t21.5 44.5t6.5 56v300h114v-517zM342 567h-111l-107 143h92l70 -89l71 89h93z" />
    <glyph glyph-name="Udieresismacron" unicode="&#x1d5;" horiz-adv-x="722" 
d="M68 714h125v-416q0 -36 3.5 -73t20 -66.5t50 -48.5t94.5 -19t94.5 19t50 48.5t20 66.5t3.5 73v416h125v-457q0 -69 -21 -120t-59.5 -85.5t-92.5 -51.5t-120 -17t-120 17t-92.5 51.5t-59.5 85.5t-21 120v457zM218 764v108h114v-108h-114zM504 872v-108h-114v108h114z
M217 922v65h288v-65h-288z" />
    <glyph glyph-name="udieresismacron" unicode="&#x1d6;" horiz-adv-x="574" 
d="M514 0h-112v72h-2q-21 -39 -62.5 -62.5t-84.5 -23.5q-102 0 -147.5 50.5t-45.5 152.5v328h114v-317q0 -68 26 -96t73 -28q36 0 60 11t39 29.5t21.5 44.5t6.5 56v300h114v-517zM144 567v108h114v-108h-114zM430 675v-108h-114v108h114zM143 725v65h288v-65h-288z" />
    <glyph glyph-name="Udieresisacute" unicode="&#x1d7;" horiz-adv-x="722" 
d="M68 714h125v-416q0 -36 3.5 -73t20 -66.5t50 -48.5t94.5 -19t94.5 19t50 48.5t20 66.5t3.5 73v416h125v-457q0 -69 -21 -120t-59.5 -85.5t-92.5 -51.5t-120 -17t-120 17t-92.5 51.5t-59.5 85.5t-21 120v457zM218 764v108h114v-108h-114zM504 872v-108h-114v108h114z
M401 1065h135l-142 -143h-83z" />
    <glyph glyph-name="udieresisacute" unicode="&#x1d8;" horiz-adv-x="574" 
d="M514 0h-112v72h-2q-21 -39 -62.5 -62.5t-84.5 -23.5q-102 0 -147.5 50.5t-45.5 152.5v328h114v-317q0 -68 26 -96t73 -28q36 0 60 11t39 29.5t21.5 44.5t6.5 56v300h114v-517zM144 567v108h114v-108h-114zM430 675v-108h-114v108h114zM325 871h135l-142 -143h-83z" />
    <glyph glyph-name="Udieresiscaron" unicode="&#x1d9;" horiz-adv-x="722" 
d="M68 714h125v-416q0 -36 3.5 -73t20 -66.5t50 -48.5t94.5 -19t94.5 19t50 48.5t20 66.5t3.5 73v416h125v-457q0 -69 -21 -120t-59.5 -85.5t-92.5 -51.5t-120 -17t-120 17t-92.5 51.5t-59.5 85.5t-21 120v457zM218 764v108h114v-108h-114zM504 872v-108h-114v108h114z
M416 922h-111l-107 143h92l70 -89l71 89h93z" />
    <glyph glyph-name="udieresiscaron" unicode="&#x1da;" horiz-adv-x="574" 
d="M514 0h-112v72h-2q-21 -39 -62.5 -62.5t-84.5 -23.5q-102 0 -147.5 50.5t-45.5 152.5v328h114v-317q0 -68 26 -96t73 -28q36 0 60 11t39 29.5t21.5 44.5t6.5 56v300h114v-517zM144 567v108h114v-108h-114zM430 675v-108h-114v108h114zM342 725h-111l-107 143h92l70 -89
l71 89h93z" />
    <glyph glyph-name="Udieresisgrave" unicode="&#x1db;" horiz-adv-x="722" 
d="M68 714h125v-416q0 -36 3.5 -73t20 -66.5t50 -48.5t94.5 -19t94.5 19t50 48.5t20 66.5t3.5 73v416h125v-457q0 -69 -21 -120t-59.5 -85.5t-92.5 -51.5t-120 -17t-120 17t-92.5 51.5t-59.5 85.5t-21 120v457zM218 764v108h114v-108h-114zM504 872v-108h-114v108h114z
M323 1065l91 -143h-83l-142 143h134z" />
    <glyph glyph-name="udieresisgrave" unicode="&#x1dc;" horiz-adv-x="574" 
d="M514 0h-112v72h-2q-21 -39 -62.5 -62.5t-84.5 -23.5q-102 0 -147.5 50.5t-45.5 152.5v328h114v-317q0 -68 26 -96t73 -28q36 0 60 11t39 29.5t21.5 44.5t6.5 56v300h114v-517zM144 567v108h114v-108h-114zM430 675v-108h-114v108h114zM261 868l91 -143h-83l-142 143h134z
" />
    <glyph glyph-name="Adieresismacron" unicode="&#x1de;" horiz-adv-x="667" 
d="M267 714h133l275 -714h-134l-67 189h-285l-67 -189h-129zM223 284h218l-107 307h-3zM191 764v108h114v-108h-114zM477 872v-108h-114v108h114zM190 922v65h288v-65h-288z" />
    <glyph glyph-name="adieresismacron" unicode="&#x1df;" 
d="M493 115q0 -21 5.5 -30t21.5 -9h12q7 0 16 2v-79q-6 -2 -15.5 -4.5t-19.5 -4.5t-20 -3t-17 -1q-35 0 -58 14t-30 49q-34 -33 -83.5 -48t-95.5 -15q-35 0 -67 9.5t-56.5 28t-39 47t-14.5 66.5q0 48 17.5 78t46 47t64 24.5t71.5 11.5q31 6 59 8.5t49.5 8.5t34 18.5
t12.5 37.5q0 22 -10.5 36t-26 21.5t-34.5 10t-36 2.5q-48 0 -79 -20t-35 -62h-114q3 50 24 83t53.5 53t73.5 28t84 8q38 0 75 -8t66.5 -26t47.5 -46.5t18 -69.5v-266zM379 259q-26 -17 -64 -20.5t-76 -10.5q-18 -3 -35 -8.5t-30 -15t-20.5 -25t-7.5 -37.5q0 -19 11 -32
t26.5 -20.5t34 -10.5t33.5 -3q19 0 41 5t41.5 17t32.5 30.5t13 45.5v85zM147 581v108h114v-108h-114zM433 689v-108h-114v108h114zM146 739v65h288v-65h-288z" />
    <glyph glyph-name="Adotmacron" unicode="&#x1e0;" horiz-adv-x="667" 
d="M267 714h133l275 -714h-134l-67 189h-285l-67 -189h-129zM223 284h218l-107 307h-3zM277 764v108h114v-108h-114zM190 922v65h288v-65h-288z" />
    <glyph glyph-name="adotmacron" unicode="&#x1e1;" 
d="M493 115q0 -21 5.5 -30t21.5 -9h12q7 0 16 2v-79q-6 -2 -15.5 -4.5t-19.5 -4.5t-20 -3t-17 -1q-35 0 -58 14t-30 49q-34 -33 -83.5 -48t-95.5 -15q-35 0 -67 9.5t-56.5 28t-39 47t-14.5 66.5q0 48 17.5 78t46 47t64 24.5t71.5 11.5q31 6 59 8.5t49.5 8.5t34 18.5
t12.5 37.5q0 22 -10.5 36t-26 21.5t-34.5 10t-36 2.5q-48 0 -79 -20t-35 -62h-114q3 50 24 83t53.5 53t73.5 28t84 8q38 0 75 -8t66.5 -26t47.5 -46.5t18 -69.5v-266zM379 259q-26 -17 -64 -20.5t-76 -10.5q-18 -3 -35 -8.5t-30 -15t-20.5 -25t-7.5 -37.5q0 -19 11 -32
t26.5 -20.5t34 -10.5t33.5 -3q19 0 41 5t41.5 17t32.5 30.5t13 45.5v85zM233 581v108h114v-108h-114zM146 739v65h288v-65h-288z" />
    <glyph glyph-name="AEmacron" unicode="&#x1e2;" horiz-adv-x="963" 
d="M348 714h576v-108h-348v-187h326v-102h-326v-209h354v-108h-473v183h-239l-86 -183h-139zM264 278h193v328h-36zM477 776v65h288v-65h-288z" />
    <glyph glyph-name="aemacron" unicode="&#x1e3;" horiz-adv-x="889" 
d="M858 163q-22 -83 -85 -130t-149 -47q-58 0 -109 21t-81 74q-34 -51 -91.5 -73t-123.5 -22q-39 0 -73 9.5t-59.5 28t-40 47t-14.5 66.5q0 48 17.5 78t46 47t64 24.5t71.5 11.5q31 6 58 8.5t47 8.5t32 18.5t12 37.5q0 22 -9.5 36t-24 21.5t-32.5 10t-35 2.5q-48 0 -79 -20
t-35 -62h-114q3 50 24 83t53.5 53t72.5 28t82 8q24 0 49 -2.5t48 -10t43 -21.5t35 -36q29 38 73 54t91 16q66 0 113.5 -23t77 -63.5t41.5 -96t8 -119.5h-375q0 -30 7.5 -57.5t24 -48.5t42.5 -34t61 -13q46 0 77 23t45 64h114zM379 257q-9 -9 -24.5 -13t-34 -6.5t-39.5 -4.5
t-41 -5q-19 -3 -36 -8.5t-30 -15t-20.5 -25t-7.5 -37.5q0 -20 9.5 -32.5t24.5 -20t33.5 -10.5t36.5 -3q24 0 47 6.5t41 20t29.5 32.5t11.5 45v77zM748 304q1 62 -33.5 99.5t-97.5 37.5q-30 0 -53.5 -11t-40 -30t-25.5 -43.5t-11 -52.5h261zM305 581v65h288v-65h-288z" />
    <glyph glyph-name="Gcaron" unicode="&#x1e6;" horiz-adv-x="759" 
d="M699 0h-80l-19 84q-50 -57 -100 -79t-115 -22q-80 0 -143.5 29.5t-107.5 80.5t-67.5 119t-23.5 145q0 76 23.5 144t67.5 119t107.5 81t143.5 30q58 0 110.5 -15.5t93.5 -46t68 -76.5t34 -106h-122q-5 35 -21.5 61.5t-41.5 44.5t-56 27t-65 9q-57 0 -98.5 -23t-67.5 -61.5
t-38.5 -87.5t-12.5 -100t12.5 -100t38.5 -87.5t67.5 -61.5t98.5 -23q48 -1 85 12.5t62.5 39t38.5 62.5t14 82h-190v95h304v-376zM426 781h-111l-107 143h92l70 -89l71 89h93z" />
    <glyph glyph-name="gcaron" unicode="&#x1e7;" horiz-adv-x="593" 
d="M538 27q0 -117 -65.5 -174.5t-188.5 -57.5q-39 0 -78.5 8t-72 27t-54.5 50t-26 76h114q5 -24 17 -39t28.5 -23.5t36.5 -11t42 -2.5q69 0 101 34t32 98v79h-2q-24 -43 -65.5 -67t-89.5 -24q-62 0 -105.5 21.5t-72 59t-41.5 86.5t-13 105q0 52 16 99t46 82.5t73.5 56.5
t98.5 21q49 0 90 -20.5t63 -64.5h2v71h114v-490zM285 90q38 0 64.5 15.5t43 41t24 58t7.5 65.5t-8 64t-24.5 55t-43 38t-63.5 14q-38 0 -64 -16t-42 -41.5t-23 -58t-7 -64.5t8 -62.5t24.5 -54.5t42 -39t61.5 -15zM341 581h-111l-107 143h92l70 -89l71 89h93z" />
    <glyph glyph-name="Kcaron" unicode="&#x1e8;" horiz-adv-x="685" 
d="M76 714h125v-325l318 325h154l-285 -285l305 -429h-156l-234 341l-102 -101v-240h-125v714zM439 764h-111l-107 143h92l70 -89l71 89h93z" />
    <glyph glyph-name="kcaron" unicode="&#x1e9;" horiz-adv-x="537" 
d="M63 714h114v-406l206 209h140l-198 -190l217 -327h-139l-158 251l-68 -66v-185h-114v714zM357 764h-111l-107 143h92l70 -89l71 89h93z" />
    <glyph glyph-name="Oogonek" unicode="&#x1ea;" horiz-adv-x="760" 
d="M380 629q-57 0 -98.5 -23t-67.5 -61.5t-38.5 -87.5t-12.5 -100t12.5 -100t38.5 -87.5t67.5 -61.5t98.5 -23t98.5 23t67.5 61.5t38.5 87.5t12.5 100t-12.5 100t-38.5 87.5t-67.5 61.5t-98.5 23zM380 731q80 0 143.5 -30t107.5 -81t67.5 -119t23.5 -144q0 -77 -23.5 -145
t-67.5 -119t-107.5 -80.5t-143.5 -29.5t-143.5 29.5t-107.5 80.5t-67.5 119t-23.5 145q0 76 23.5 144t67.5 119t107.5 81t143.5 30zM445 -17q-28 -22 -46.5 -39.5t-29 -33t-14.5 -29t-4 -27.5q0 -20 12 -32t27 -12t27 7t25 27l41 -9q-6 -22 -17.5 -36.5t-26 -23t-30.5 -12
t-31 -3.5q-7 0 -23.5 2t-34 11t-30.5 27t-13 50q0 8 2 20t13 29t34 38t65 46h54z" />
    <glyph glyph-name="oogonek" unicode="&#x1eb;" horiz-adv-x="593" 
d="M297 -14q-62 0 -110.5 20.5t-82 56.5t-51 86t-17.5 110q0 59 17.5 109t51 86t82 56.5t110.5 20.5t110.5 -20.5t82 -56.5t51 -86t17.5 -109q0 -60 -17.5 -110t-51 -86t-82 -56.5t-110.5 -20.5zM297 76q38 0 66 16t46 42t26.5 58.5t8.5 66.5q0 33 -8.5 66t-26.5 58.5
t-46 41.5t-66 16t-66 -16t-46 -41.5t-26.5 -58.5t-8.5 -66q0 -34 8.5 -66.5t26.5 -58.5t46 -42t66 -16zM362 -14q-28 -22 -46.5 -39.5t-29 -33t-14.5 -29t-4 -27.5q0 -20 12 -32t27 -12t27 7t25 27l41 -9q-6 -22 -17.5 -36.5t-26 -23t-30.5 -12t-31 -3.5q-7 0 -23.5 2
t-34 11t-30.5 27t-13 50q0 8 2 20t13 29t34 38t65 46h54z" />
    <glyph glyph-name="Oogonekmacron" unicode="&#x1ec;" horiz-adv-x="760" 
d="M380 629q-57 0 -98.5 -23t-67.5 -61.5t-38.5 -87.5t-12.5 -100t12.5 -100t38.5 -87.5t67.5 -61.5t98.5 -23t98.5 23t67.5 61.5t38.5 87.5t12.5 100t-12.5 100t-38.5 87.5t-67.5 61.5t-98.5 23zM380 731q80 0 143.5 -30t107.5 -81t67.5 -119t23.5 -144q0 -77 -23.5 -145
t-67.5 -119t-107.5 -80.5t-143.5 -29.5t-143.5 29.5t-107.5 80.5t-67.5 119t-23.5 145q0 76 23.5 144t67.5 119t107.5 81t143.5 30zM445 -17q-28 -22 -46.5 -39.5t-29 -33t-14.5 -29t-4 -27.5q0 -20 12 -32t27 -12t27 7t25 27l41 -9q-6 -22 -17.5 -36.5t-26 -23t-30.5 -12
t-31 -3.5q-7 0 -23.5 2t-34 11t-30.5 27t-13 50q0 8 2 20t13 29t34 38t65 46h54zM236 781v65h288v-65h-288z" />
    <glyph glyph-name="oogonekmacron" unicode="&#x1ed;" horiz-adv-x="593" 
d="M297 -14q-62 0 -110.5 20.5t-82 56.5t-51 86t-17.5 110q0 59 17.5 109t51 86t82 56.5t110.5 20.5t110.5 -20.5t82 -56.5t51 -86t17.5 -109q0 -60 -17.5 -110t-51 -86t-82 -56.5t-110.5 -20.5zM297 76q38 0 66 16t46 42t26.5 58.5t8.5 66.5q0 33 -8.5 66t-26.5 58.5
t-46 41.5t-66 16t-66 -16t-46 -41.5t-26.5 -58.5t-8.5 -66q0 -34 8.5 -66.5t26.5 -58.5t46 -42t66 -16zM362 -14q-28 -22 -46.5 -39.5t-29 -33t-14.5 -29t-4 -27.5q0 -20 12 -32t27 -12t27 7t25 27l41 -9q-6 -22 -17.5 -36.5t-26 -23t-30.5 -12t-31 -3.5q-7 0 -23.5 2
t-34 11t-30.5 27t-13 50q0 8 2 20t13 29t34 38t65 46h54zM153 581v65h288v-65h-288z" />
    <glyph glyph-name="DZ" unicode="&#x1f1;" horiz-adv-x="1352" 
d="M76 714h296q82 0 142 -28t98 -76.5t56.5 -113.5t18.5 -139t-18.5 -139t-56.5 -113.5t-98 -76.5t-142 -28h-296v714zM201 102h123q73 0 119.5 19.5t73 54t36 81t9.5 100.5t-9.5 100.5t-36 81t-73 54t-119.5 19.5h-123v-510zM777 714h543v-95l-416 -511h426v-108h-585v102
l416 504h-384v108z" />
    <glyph glyph-name="Dz" unicode="&#x1f2;" horiz-adv-x="1222" 
d="M76 714h296q82 0 142 -28t98 -76.5t56.5 -113.5t18.5 -139t-18.5 -139t-56.5 -113.5t-98 -76.5t-142 -28h-296v714zM201 102h123q73 0 119.5 19.5t73 54t36 81t9.5 100.5t-9.5 100.5t-36 81t-73 54t-119.5 19.5h-123v-510zM764 517h420v-80l-296 -347h311v-90h-455v80
l286 347h-266v90z" />
    <glyph glyph-name="dz" unicode="&#x1f3;" horiz-adv-x="1111" 
d="M547 0h-108v70h-2q-23 -45 -67 -64.5t-93 -19.5q-61 0 -106.5 21.5t-75.5 58.5t-45 87.5t-15 108.5q0 70 19 121t50.5 84t72 48.5t82.5 15.5q24 0 49 -4.5t48 -14.5t42.5 -25.5t32.5 -36.5h2v264h114v-714zM149 253q0 -33 8.5 -65t26 -57t44.5 -40t64 -15q38 0 65.5 16
t45 42t26 58.5t8.5 66.5q0 86 -38.5 134t-104.5 48q-40 0 -67.5 -16.5t-45 -43t-25 -60t-7.5 -68.5zM653 517h420v-80l-296 -347h311v-90h-455v80l286 347h-266v90z" />
    <glyph glyph-name="Gacute" unicode="&#x1f4;" horiz-adv-x="759" 
d="M699 0h-80l-19 84q-50 -57 -100 -79t-115 -22q-80 0 -143.5 29.5t-107.5 80.5t-67.5 119t-23.5 145q0 76 23.5 144t67.5 119t107.5 81t143.5 30q58 0 110.5 -15.5t93.5 -46t68 -76.5t34 -106h-122q-5 35 -21.5 61.5t-41.5 44.5t-56 27t-65 9q-57 0 -98.5 -23t-67.5 -61.5
t-38.5 -87.5t-12.5 -100t12.5 -100t38.5 -87.5t67.5 -61.5t98.5 -23q48 -1 85 12.5t62.5 39t38.5 62.5t14 82h-190v95h304v-376zM426 924h135l-142 -143h-83z" />
    <glyph glyph-name="gacute" unicode="&#x1f5;" horiz-adv-x="593" 
d="M538 27q0 -117 -65.5 -174.5t-188.5 -57.5q-39 0 -78.5 8t-72 27t-54.5 50t-26 76h114q5 -24 17 -39t28.5 -23.5t36.5 -11t42 -2.5q69 0 101 34t32 98v79h-2q-24 -43 -65.5 -67t-89.5 -24q-62 0 -105.5 21.5t-72 59t-41.5 86.5t-13 105q0 52 16 99t46 82.5t73.5 56.5
t98.5 21q49 0 90 -20.5t63 -64.5h2v71h114v-490zM285 90q38 0 64.5 15.5t43 41t24 58t7.5 65.5t-8 64t-24.5 55t-43 38t-63.5 14q-38 0 -64 -16t-42 -41.5t-23 -58t-7 -64.5t8 -62.5t24.5 -54.5t42 -39t61.5 -15zM304 729h135l-142 -143h-83z" />
    <glyph glyph-name="Ngrave" unicode="&#x1f8;" horiz-adv-x="722" 
d="M71 714h132l326 -526h2v526h119v-714h-132l-325 525h-3v-525h-119v714zM348 904l91 -143h-83l-142 143h134z" />
    <glyph glyph-name="ngrave" unicode="&#x1f9;" horiz-adv-x="574" 
d="M60 517h108v-76l2 -2q26 43 68 67.5t93 24.5q85 0 134 -44t49 -132v-355h-114v325q-2 61 -26 88.5t-75 27.5q-29 0 -52 -10.5t-39 -29t-25 -43.5t-9 -53v-305h-114v517zM283 724l91 -143h-83l-142 143h134z" />
    <glyph glyph-name="Aringacute" unicode="&#x1fa;" horiz-adv-x="667" 
d="M267 714h133l275 -714h-134l-67 189h-285l-67 -189h-129zM223 284h218l-107 307h-3zM274 867q0 -26 17.5 -43.5t42.5 -17.5q26 0 43 17.5t17 43.5q0 27 -17 44t-43 17q-25 0 -42.5 -17t-17.5 -44zM334 764q-21 0 -40 7.5t-33.5 21t-22.5 32.5t-8 42t8.5 42t23 33t33 21
t39.5 7t39.5 -7t33.5 -21t23 -33t8 -42t-8 -42t-23 -32.5t-33.5 -21t-39.5 -7.5zM355 1160h135l-142 -143h-83z" />
    <glyph glyph-name="aringacute" unicode="&#x1fb;" 
d="M493 115q0 -21 5.5 -30t21.5 -9h12q7 0 16 2v-79q-6 -2 -15.5 -4.5t-19.5 -4.5t-20 -3t-17 -1q-35 0 -58 14t-30 49q-34 -33 -83.5 -48t-95.5 -15q-35 0 -67 9.5t-56.5 28t-39 47t-14.5 66.5q0 48 17.5 78t46 47t64 24.5t71.5 11.5q31 6 59 8.5t49.5 8.5t34 18.5
t12.5 37.5q0 22 -10.5 36t-26 21.5t-34.5 10t-36 2.5q-48 0 -79 -20t-35 -62h-114q3 50 24 83t53.5 53t73.5 28t84 8q38 0 75 -8t66.5 -26t47.5 -46.5t18 -69.5v-266zM379 259q-26 -17 -64 -20.5t-76 -10.5q-18 -3 -35 -8.5t-30 -15t-20.5 -25t-7.5 -37.5q0 -19 11 -32
t26.5 -20.5t34 -10.5t33.5 -3q19 0 41 5t41.5 17t32.5 30.5t13 45.5v85zM230 684q0 -26 17.5 -43.5t42.5 -17.5q26 0 43 17.5t17 43.5q0 27 -17 44t-43 17q-25 0 -42.5 -17t-17.5 -44zM290 581q-21 0 -40 7.5t-33.5 21t-22.5 32.5t-8 42t8.5 42t23 33t33 21t39.5 7t39.5 -7
t33.5 -21t23 -33t8 -42t-8 -42t-23 -32.5t-33.5 -21t-39.5 -7.5zM325 983h135l-142 -143h-83z" />
    <glyph glyph-name="AEacute" unicode="&#x1fc;" horiz-adv-x="963" 
d="M348 714h576v-108h-348v-187h326v-102h-326v-209h354v-108h-473v183h-239l-86 -183h-139zM264 278h193v328h-36zM633 919h135l-142 -143h-83z" />
    <glyph glyph-name="aeacute" unicode="&#x1fd;" horiz-adv-x="889" 
d="M858 163q-22 -83 -85 -130t-149 -47q-58 0 -109 21t-81 74q-34 -51 -91.5 -73t-123.5 -22q-39 0 -73 9.5t-59.5 28t-40 47t-14.5 66.5q0 48 17.5 78t46 47t64 24.5t71.5 11.5q31 6 58 8.5t47 8.5t32 18.5t12 37.5q0 22 -9.5 36t-24 21.5t-32.5 10t-35 2.5q-48 0 -79 -20
t-35 -62h-114q3 50 24 83t53.5 53t72.5 28t82 8q24 0 49 -2.5t48 -10t43 -21.5t35 -36q29 38 73 54t91 16q66 0 113.5 -23t77 -63.5t41.5 -96t8 -119.5h-375q0 -30 7.5 -57.5t24 -48.5t42.5 -34t61 -13q46 0 77 23t45 64h114zM379 257q-9 -9 -24.5 -13t-34 -6.5t-39.5 -4.5
t-41 -5q-19 -3 -36 -8.5t-30 -15t-20.5 -25t-7.5 -37.5q0 -20 9.5 -32.5t24.5 -20t33.5 -10.5t36.5 -3q24 0 47 6.5t41 20t29.5 32.5t11.5 45v77zM748 304q1 62 -33.5 99.5t-97.5 37.5q-30 0 -53.5 -11t-40 -30t-25.5 -43.5t-11 -52.5h261zM489 729h135l-142 -143h-83z" />
    <glyph glyph-name="Oslashacute" unicode="&#x1fe;" horiz-adv-x="760" 
d="M720 698l-79 -89q39 -51 60 -115t21 -137q0 -77 -23.5 -145t-67.5 -119t-107.5 -80.5t-143.5 -29.5q-69 0 -124.5 22t-97.5 60l-76 -85l-42 36l79 90q-39 50 -60 114t-21 137q0 76 23.5 144t67.5 119t107.5 81t143.5 30q69 0 124.5 -21.5t97.5 -59.5l75 84zM232 148
q27 -29 63.5 -46t84.5 -17q57 0 98.5 23t67.5 61.5t38.5 87.5t12.5 100q0 43 -8.5 84.5t-28.5 76.5zM528 566q-25 29 -61.5 46t-86.5 17q-57 0 -98.5 -23t-67.5 -61.5t-38.5 -87.5t-12.5 -100q0 -44 8.5 -85t27.5 -76zM441 930h135l-142 -143h-83z" />
    <glyph glyph-name="oslashacute" unicode="&#x1ff;" horiz-adv-x="593" 
d="M396 399q-18 20 -42.5 31t-56.5 11q-38 0 -66 -16t-46 -41.5t-26.5 -58.5t-8.5 -66q0 -27 5.5 -54t17.5 -50zM32 0l65 72q-61 73 -61 187q0 59 17.5 109t51 86t82 56.5t110.5 20.5q53 0 95.5 -14.5t74.5 -40.5l63 69l32 -28l-65 -71q61 -75 61 -187q0 -60 -17.5 -110
t-51 -86t-82 -56.5t-110.5 -20.5q-52 0 -94.5 14.5t-74.5 41.5l-64 -70zM198 118q18 -20 42.5 -31t56.5 -11q38 0 66 16t46 42t26.5 58.5t8.5 66.5q0 27 -5.5 53.5t-17.5 49.5zM321 741h135l-142 -143h-83z" />
    <glyph glyph-name="uni0200.ADoubleGrave" unicode="&#x200;" horiz-adv-x="667" 
d="M267 714h133l275 -714h-134l-67 189h-285l-67 -189h-129zM223 284h218l-107 307h-3zM492 786h-82l-144 143h136zM293 786h-82l-144 143h136z" />
    <glyph glyph-name="uni0201.aDoubleGrave" unicode="&#x201;" 
d="M493 115q0 -21 5.5 -30t21.5 -9h12q7 0 16 2v-79q-6 -2 -15.5 -4.5t-19.5 -4.5t-20 -3t-17 -1q-35 0 -58 14t-30 49q-34 -33 -83.5 -48t-95.5 -15q-35 0 -67 9.5t-56.5 28t-39 47t-14.5 66.5q0 48 17.5 78t46 47t64 24.5t71.5 11.5q31 6 59 8.5t49.5 8.5t34 18.5
t12.5 37.5q0 22 -10.5 36t-26 21.5t-34.5 10t-36 2.5q-48 0 -79 -20t-35 -62h-114q3 50 24 83t53.5 53t73.5 28t84 8q38 0 75 -8t66.5 -26t47.5 -46.5t18 -69.5v-266zM379 259q-26 -17 -64 -20.5t-76 -10.5q-18 -3 -35 -8.5t-30 -15t-20.5 -25t-7.5 -37.5q0 -19 11 -32
t26.5 -20.5t34 -10.5t33.5 -3q19 0 41 5t41.5 17t32.5 30.5t13 45.5v85zM443 589h-82l-144 143h136zM244 589h-82l-144 143h136z" />
    <glyph glyph-name="uni0202.AinvertedBreve" unicode="&#x202;" horiz-adv-x="667" 
d="M267 714h133l275 -714h-134l-67 189h-285l-67 -189h-129zM223 284h218l-107 307h-3zM437 787q-8 42 -37.5 59t-69.5 17q-38 0 -65.5 -19t-35.5 -57h-57q8 72 52.5 106.5t113.5 34.5t110 -36t47 -105h-58z" />
    <glyph glyph-name="uni0203.ainvertedBreve" unicode="&#x203;" 
d="M493 115q0 -21 5.5 -30t21.5 -9h12q7 0 16 2v-79q-6 -2 -15.5 -4.5t-19.5 -4.5t-20 -3t-17 -1q-35 0 -58 14t-30 49q-34 -33 -83.5 -48t-95.5 -15q-35 0 -67 9.5t-56.5 28t-39 47t-14.5 66.5q0 48 17.5 78t46 47t64 24.5t71.5 11.5q31 6 59 8.5t49.5 8.5t34 18.5
t12.5 37.5q0 22 -10.5 36t-26 21.5t-34.5 10t-36 2.5q-48 0 -79 -20t-35 -62h-114q3 50 24 83t53.5 53t73.5 28t84 8q38 0 75 -8t66.5 -26t47.5 -46.5t18 -69.5v-266zM379 259q-26 -17 -64 -20.5t-76 -10.5q-18 -3 -35 -8.5t-30 -15t-20.5 -25t-7.5 -37.5q0 -19 11 -32
t26.5 -20.5t34 -10.5t33.5 -3q19 0 41 5t41.5 17t32.5 30.5t13 45.5v85zM385 590q-8 42 -37.5 59t-69.5 17q-38 0 -65.5 -19t-35.5 -57h-57q8 72 52.5 106.5t113.5 34.5t110 -36t47 -105h-58z" />
    <glyph glyph-name="uni0204.EDoubleGrave" unicode="&#x204;" horiz-adv-x="630" 
d="M76 714h514v-108h-389v-187h360v-102h-360v-209h396v-108h-521v714zM497 786h-82l-144 143h136zM298 786h-82l-144 143h136z" />
    <glyph glyph-name="uni0205.eDoubleGrave" unicode="&#x205;" 
d="M415 304q-2 27 -11.5 52t-26 43.5t-40 30t-52.5 11.5q-30 0 -54.5 -10.5t-42 -29t-28 -43.5t-11.5 -54h266zM149 229q0 -30 8.5 -58t25.5 -49t43 -33.5t62 -12.5q50 0 80.5 21.5t45.5 64.5h108q-9 -42 -31 -75t-53 -55.5t-69.5 -34t-80.5 -11.5q-61 0 -108 20t-79.5 56
t-49 86t-16.5 110q0 55 17.5 104.5t50 87t78.5 59.5t104 22q61 0 109.5 -25.5t80.5 -67.5t46.5 -96.5t7.5 -112.5h-380zM460 589h-82l-144 143h136zM261 589h-82l-144 143h136z" />
    <glyph glyph-name="uni0206.EinvertedBreve" unicode="&#x206;" horiz-adv-x="630" 
d="M76 714h514v-108h-389v-187h360v-102h-360v-209h396v-108h-521v714zM448 787q-8 42 -37.5 59t-69.5 17q-38 0 -65.5 -19t-35.5 -57h-57q8 72 52.5 106.5t113.5 34.5t110 -36t47 -105h-58z" />
    <glyph glyph-name="uni0207.einvertedBreve" unicode="&#x207;" 
d="M415 304q-2 27 -11.5 52t-26 43.5t-40 30t-52.5 11.5q-30 0 -54.5 -10.5t-42 -29t-28 -43.5t-11.5 -54h266zM149 229q0 -30 8.5 -58t25.5 -49t43 -33.5t62 -12.5q50 0 80.5 21.5t45.5 64.5h108q-9 -42 -31 -75t-53 -55.5t-69.5 -34t-80.5 -11.5q-61 0 -108 20t-79.5 56
t-49 86t-16.5 110q0 55 17.5 104.5t50 87t78.5 59.5t104 22q61 0 109.5 -25.5t80.5 -67.5t46.5 -96.5t7.5 -112.5h-380zM381 590q-8 42 -37.5 59t-69.5 17q-38 0 -65.5 -19t-35.5 -57h-57q8 72 52.5 106.5t113.5 34.5t110 -36t47 -105h-58z" />
    <glyph glyph-name="uni0208.IDoubleGrave" unicode="&#x208;" horiz-adv-x="278" 
d="M76 714h125v-714h-125v714zM291 786h-82l-144 143h136zM92 786h-82l-144 143h136z" />
    <glyph glyph-name="uni0209.iDoubleGrave" unicode="&#x209;" horiz-adv-x="274" 
d="M96 0v517h114v-517h-114zM316 589h-82l-144 143h136zM117 589h-82l-144 143h136z" />
    <glyph glyph-name="uni020A.IinvertedBreve" unicode="&#x20a;" horiz-adv-x="278" 
d="M76 714h125v-714h-125v714zM242 787q-8 42 -37.5 59t-69.5 17q-38 0 -65.5 -19t-35.5 -57h-57q8 72 52.5 106.5t113.5 34.5t110 -36t47 -105h-58z" />
    <glyph glyph-name="uni020B.iinvertedBreve" unicode="&#x20b;" horiz-adv-x="281" 
d="M83 0v517h114v-517h-114zM244 590q-8 42 -37.5 59t-69.5 17q-38 0 -65.5 -19t-35.5 -57h-57q8 72 52.5 106.5t113.5 34.5t110 -36t47 -105h-58z" />
    <glyph glyph-name="uni020C.ODoubleGrave" unicode="&#x20c;" horiz-adv-x="760" 
d="M380 629q-57 0 -98.5 -23t-67.5 -61.5t-38.5 -87.5t-12.5 -100t12.5 -100t38.5 -87.5t67.5 -61.5t98.5 -23t98.5 23t67.5 61.5t38.5 87.5t12.5 100t-12.5 100t-38.5 87.5t-67.5 61.5t-98.5 23zM380 731q80 0 143.5 -30t107.5 -81t67.5 -119t23.5 -144q0 -77 -23.5 -145
t-67.5 -119t-107.5 -80.5t-143.5 -29.5t-143.5 29.5t-107.5 80.5t-67.5 119t-23.5 145q0 76 23.5 144t67.5 119t107.5 81t143.5 30zM542 786h-82l-144 143h136zM343 786h-82l-144 143h136z" />
    <glyph glyph-name="uni020D.oDoubleGrave" unicode="&#x20d;" horiz-adv-x="593" 
d="M297 -14q-62 0 -110.5 20.5t-82 56.5t-51 86t-17.5 110q0 59 17.5 109t51 86t82 56.5t110.5 20.5t110.5 -20.5t82 -56.5t51 -86t17.5 -109q0 -60 -17.5 -110t-51 -86t-82 -56.5t-110.5 -20.5zM297 76q38 0 66 16t46 42t26.5 58.5t8.5 66.5q0 33 -8.5 66t-26.5 58.5
t-46 41.5t-66 16t-66 -16t-46 -41.5t-26.5 -58.5t-8.5 -66q0 -34 8.5 -66.5t26.5 -58.5t46 -42t66 -16zM469 589h-82l-144 143h136zM270 589h-82l-144 143h136z" />
    <glyph glyph-name="uni020E.OinvertedBreve" unicode="&#x20e;" horiz-adv-x="760" 
d="M380 629q-57 0 -98.5 -23t-67.5 -61.5t-38.5 -87.5t-12.5 -100t12.5 -100t38.5 -87.5t67.5 -61.5t98.5 -23t98.5 23t67.5 61.5t38.5 87.5t12.5 100t-12.5 100t-38.5 87.5t-67.5 61.5t-98.5 23zM380 731q80 0 143.5 -30t107.5 -81t67.5 -119t23.5 -144q0 -77 -23.5 -145
t-67.5 -119t-107.5 -80.5t-143.5 -29.5t-143.5 29.5t-107.5 80.5t-67.5 119t-23.5 145q0 76 23.5 144t67.5 119t107.5 81t143.5 30zM483 787q-8 42 -37.5 59t-69.5 17q-38 0 -65.5 -19t-35.5 -57h-57q8 72 52.5 106.5t113.5 34.5t110 -36t47 -105h-58z" />
    <glyph glyph-name="uni020F.oinvertedBreve" unicode="&#x20f;" horiz-adv-x="593" 
d="M297 -14q-62 0 -110.5 20.5t-82 56.5t-51 86t-17.5 110q0 59 17.5 109t51 86t82 56.5t110.5 20.5t110.5 -20.5t82 -56.5t51 -86t17.5 -109q0 -60 -17.5 -110t-51 -86t-82 -56.5t-110.5 -20.5zM297 76q38 0 66 16t46 42t26.5 58.5t8.5 66.5q0 33 -8.5 66t-26.5 58.5
t-46 41.5t-66 16t-66 -16t-46 -41.5t-26.5 -58.5t-8.5 -66q0 -34 8.5 -66.5t26.5 -58.5t46 -42t66 -16zM400 590q-8 42 -37.5 59t-69.5 17q-38 0 -65.5 -19t-35.5 -57h-57q8 72 52.5 106.5t113.5 34.5t110 -36t47 -105h-58z" />
    <glyph glyph-name="uni0210.RDoubleGrave" unicode="&#x210;" horiz-adv-x="704" 
d="M76 714h341q118 0 177 -51t59 -142q0 -51 -15 -84.5t-35 -54t-39.5 -29.5t-28.5 -12v-2q16 -2 34.5 -10t34.5 -25.5t26.5 -45.5t10.5 -70q0 -63 9.5 -114.5t29.5 -73.5h-134q-14 23 -16.5 51t-2.5 54q0 49 -6 84.5t-22 59t-43.5 34.5t-70.5 11h-184v-294h-125v714z
M201 389h205q60 0 91 28.5t31 85.5q0 34 -10 55.5t-27.5 33.5t-40 16t-46.5 4h-203v-223zM524 786h-82l-144 143h136zM325 786h-82l-144 143h136z" />
    <glyph glyph-name="uni0211.rDoubleGrave" unicode="&#x211;" horiz-adv-x="352" 
d="M60 517h107v-100h2q5 21 19.5 41t35 36.5t45.5 26.5t51 10q20 0 27.5 -1t15.5 -2v-110q-12 2 -24.5 3.5t-24.5 1.5q-29 0 -54.5 -11.5t-44.5 -34t-30 -55.5t-11 -76v-246h-114v517zM378 589h-82l-144 143h136zM179 589h-82l-144 143h136z" />
    <glyph glyph-name="uni0212.RinvertedBreve" unicode="&#x212;" horiz-adv-x="704" 
d="M76 714h341q118 0 177 -51t59 -142q0 -51 -15 -84.5t-35 -54t-39.5 -29.5t-28.5 -12v-2q16 -2 34.5 -10t34.5 -25.5t26.5 -45.5t10.5 -70q0 -63 9.5 -114.5t29.5 -73.5h-134q-14 23 -16.5 51t-2.5 54q0 49 -6 84.5t-22 59t-43.5 34.5t-70.5 11h-184v-294h-125v714z
M201 389h205q60 0 91 28.5t31 85.5q0 34 -10 55.5t-27.5 33.5t-40 16t-46.5 4h-203v-223zM445 787q-8 42 -37.5 59t-69.5 17q-38 0 -65.5 -19t-35.5 -57h-57q8 72 52.5 106.5t113.5 34.5t110 -36t47 -105h-58z" />
    <glyph glyph-name="uni0213.rinvertedBreve" unicode="&#x213;" horiz-adv-x="352" 
d="M60 517h107v-100h2q5 21 19.5 41t35 36.5t45.5 26.5t51 10q20 0 27.5 -1t15.5 -2v-110q-12 2 -24.5 3.5t-24.5 1.5q-29 0 -54.5 -11.5t-44.5 -34t-30 -55.5t-11 -76v-246h-114v517zM311 590q-8 42 -37.5 59t-69.5 17q-38 0 -65.5 -19t-35.5 -57h-57q8 72 52.5 106.5
t113.5 34.5t110 -36t47 -105h-58z" />
    <glyph glyph-name="uni0214.UDoubleGrave" unicode="&#x214;" horiz-adv-x="722" 
d="M68 714h125v-416q0 -36 3.5 -73t20 -66.5t50 -48.5t94.5 -19t94.5 19t50 48.5t20 66.5t3.5 73v416h125v-457q0 -69 -21 -120t-59.5 -85.5t-92.5 -51.5t-120 -17t-120 17t-92.5 51.5t-59.5 85.5t-21 120v457zM511 786h-82l-144 143h136zM312 786h-82l-144 143h136z" />
    <glyph glyph-name="uni0215.uDoubleGrave" unicode="&#x215;" horiz-adv-x="574" 
d="M514 0h-112v72h-2q-21 -39 -62.5 -62.5t-84.5 -23.5q-102 0 -147.5 50.5t-45.5 152.5v328h114v-317q0 -68 26 -96t73 -28q36 0 60 11t39 29.5t21.5 44.5t6.5 56v300h114v-517zM449 589h-82l-144 143h136zM250 589h-82l-144 143h136z" />
    <glyph glyph-name="uni0216.UinvertedBreve" unicode="&#x216;" horiz-adv-x="722" 
d="M68 714h125v-416q0 -36 3.5 -73t20 -66.5t50 -48.5t94.5 -19t94.5 19t50 48.5t20 66.5t3.5 73v416h125v-457q0 -69 -21 -120t-59.5 -85.5t-92.5 -51.5t-120 -17t-120 17t-92.5 51.5t-59.5 85.5t-21 120v457zM464 787q-8 42 -37.5 59t-69.5 17q-38 0 -65.5 -19t-35.5 -57
h-57q8 72 52.5 106.5t113.5 34.5t110 -36t47 -105h-58z" />
    <glyph glyph-name="uni0217.uinvertedBreve" unicode="&#x217;" horiz-adv-x="574" 
d="M514 0h-112v72h-2q-21 -39 -62.5 -62.5t-84.5 -23.5q-102 0 -147.5 50.5t-45.5 152.5v328h114v-317q0 -68 26 -96t73 -28q36 0 60 11t39 29.5t21.5 44.5t6.5 56v300h114v-517zM390 590q-8 42 -37.5 59t-69.5 17q-38 0 -65.5 -19t-35.5 -57h-57q8 72 52.5 106.5
t113.5 34.5t110 -36t47 -105h-58z" />
    <glyph glyph-name="Scommaaccent" unicode="&#x218;" horiz-adv-x="648" 
d="M33 238h125q0 -78 50 -115.5t131 -37.5q77 0 114 31.5t37 76.5q0 66 -59 88q-23 9 -51.5 17t-78 20.5t-83.5 21.5q-158 41 -158 181q0 101 77.5 155.5t183.5 54.5q117 0 195.5 -60.5t78.5 -167.5h-125q-10 126 -154 126q-52 0 -91.5 -22t-39.5 -71q0 -67 85 -92
q1 0 47 -12t94.5 -25t64.5 -18q67 -21 103 -71.5t36 -110.5q0 -58 -24 -102.5t-65.5 -70t-90.5 -38.5t-104 -13q-130 0 -213 64t-85 191zM258 -149v99h131v-89q0 -79 -116 -84v38q40 6 45 36h-60z" />
    <glyph glyph-name="scommaaccent" unicode="&#x219;" horiz-adv-x="519" 
d="M32 166h114q9 -90 117 -90q20 0 37.5 2.5t37 9t30.5 21t10 35.5q-1 13 -5.5 23t-15 17.5t-20.5 12.5t-28 10t-30 8t-35 7.5t-35 7.5q-36 8 -62 17.5t-51.5 26t-39 44t-13.5 65.5q0 40 20 70.5t53 46.5t69 23.5t74 7.5q87 0 147 -38.5t69 -120.5h-119q-14 69 -105 69
q-21 0 -40 -3.5t-36.5 -16t-17.5 -33.5q0 -12 4 -21.5t15 -16.5t20 -12t28.5 -10.5t30 -8t35.5 -7.5l35 -7q37 -8 62.5 -17.5t51.5 -26.5t39.5 -43.5t13.5 -63.5q0 -58 -36.5 -97.5t-86.5 -55t-108 -15.5q-102 0 -164.5 46t-64.5 134zM191 -149v99h131v-89q0 -79 -116 -84
v38q40 6 45 36h-60z" />
    <glyph glyph-name="uni021A" unicode="&#x21a;" horiz-adv-x="593" 
d="M8 606v108h578v-108h-227v-606h-125v606h-226zM230 -149v99h131v-89q0 -79 -116 -84v38q40 6 45 36h-60z" />
    <glyph glyph-name="uni021B" unicode="&#x21b;" horiz-adv-x="333" 
d="M8 432v85h86v155h114v-155h103v-85h-103v-276q0 -40 9.5 -55.5t45.5 -15.5q32 0 48 4v-88q-50 -6 -74 -6q-84 0 -112.5 30.5t-30.5 101.5v305h-86zM139 -149v99h131v-89q0 -79 -116 -84v38q40 6 45 36h-60z" />
    <glyph glyph-name="Hcaron" unicode="&#x21e;" horiz-adv-x="722" 
d="M73 714h125v-284h325v284h125v-714h-125v322h-325v-322h-125v714zM415 764h-111l-107 143h92l70 -89l71 89h93z" />
    <glyph glyph-name="hcaron" unicode="&#x21f;" horiz-adv-x="574" 
d="M60 714h114v-265h2q21 35 62.5 58.5t92.5 23.5q85 0 134 -44t49 -132v-355h-114v325q-2 61 -26 88.5t-75 27.5q-29 0 -52 -10.5t-39 -29t-25 -43.5t-9 -53v-305h-114v714zM342 764h-111l-107 143h92l70 -89l71 89h93z" />
    <glyph glyph-name="Adotaccent" unicode="&#x226;" horiz-adv-x="667" 
d="M267 714h133l275 -714h-134l-67 189h-285l-67 -189h-129zM223 284h218l-107 307h-3zM277 764v108h114v-108h-114z" />
    <glyph glyph-name="adotaccent" unicode="&#x227;" 
d="M493 115q0 -21 5.5 -30t21.5 -9h12q7 0 16 2v-79q-6 -2 -15.5 -4.5t-19.5 -4.5t-20 -3t-17 -1q-35 0 -58 14t-30 49q-34 -33 -83.5 -48t-95.5 -15q-35 0 -67 9.5t-56.5 28t-39 47t-14.5 66.5q0 48 17.5 78t46 47t64 24.5t71.5 11.5q31 6 59 8.5t49.5 8.5t34 18.5
t12.5 37.5q0 22 -10.5 36t-26 21.5t-34.5 10t-36 2.5q-48 0 -79 -20t-35 -62h-114q3 50 24 83t53.5 53t73.5 28t84 8q38 0 75 -8t66.5 -26t47.5 -46.5t18 -69.5v-266zM379 259q-26 -17 -64 -20.5t-76 -10.5q-18 -3 -35 -8.5t-30 -15t-20.5 -25t-7.5 -37.5q0 -19 11 -32
t26.5 -20.5t34 -10.5t33.5 -3q19 0 41 5t41.5 17t32.5 30.5t13 45.5v85zM233 581v108h114v-108h-114z" />
    <glyph glyph-name="Ecedilla" unicode="&#x228;" horiz-adv-x="630" 
d="M76 714h514v-108h-389v-187h360v-102h-360v-209h396v-108h-521v714zM242 -160q18 -8 33 -12t32 -4q10 0 21 1.5t20 6t14.5 12.5t5.5 21q0 19 -14.5 28.5t-31.5 9.5q-22 0 -39 -10l-22 19l66 88h48l-46 -59l1 -1q6 2 14 3t19 1q15 0 30 -4.5t27 -14t20 -23.5t8 -33
q0 -26 -11 -43t-28 -27.5t-38.5 -16t-43.5 -5.5q-28 0 -54.5 5.5t-48.5 17.5z" />
    <glyph glyph-name="ecedilla" unicode="&#x229;" 
d="M415 304q-2 27 -11.5 52t-26 43.5t-40 30t-52.5 11.5q-30 0 -54.5 -10.5t-42 -29t-28 -43.5t-11.5 -54h266zM149 229q0 -30 8.5 -58t25.5 -49t43 -33.5t62 -12.5q50 0 80.5 21.5t45.5 64.5h108q-9 -42 -31 -75t-53 -55.5t-69.5 -34t-80.5 -11.5q-61 0 -108 20t-79.5 56
t-49 86t-16.5 110q0 55 17.5 104.5t50 87t78.5 59.5t104 22q61 0 109.5 -25.5t80.5 -67.5t46.5 -96.5t7.5 -112.5h-380zM191 -174q18 -8 33 -12t32 -4q10 0 21 1.5t20 6t14.5 12.5t5.5 21q0 19 -14.5 28.5t-31.5 9.5q-22 0 -39 -10l-22 19l66 88h48l-46 -59l1 -1q6 2 14 3
t19 1q15 0 30 -4.5t27 -14t20 -23.5t8 -33q0 -26 -11 -43t-28 -27.5t-38.5 -16t-43.5 -5.5q-28 0 -54.5 5.5t-48.5 17.5z" />
    <glyph glyph-name="Odieresismacron" unicode="&#x22a;" horiz-adv-x="760" 
d="M380 629q-57 0 -98.5 -23t-67.5 -61.5t-38.5 -87.5t-12.5 -100t12.5 -100t38.5 -87.5t67.5 -61.5t98.5 -23t98.5 23t67.5 61.5t38.5 87.5t12.5 100t-12.5 100t-38.5 87.5t-67.5 61.5t-98.5 23zM380 731q80 0 143.5 -30t107.5 -81t67.5 -119t23.5 -144q0 -77 -23.5 -145
t-67.5 -119t-107.5 -80.5t-143.5 -29.5t-143.5 29.5t-107.5 80.5t-67.5 119t-23.5 145q0 76 23.5 144t67.5 119t107.5 81t143.5 30zM237 781v108h114v-108h-114zM523 889v-108h-114v108h114zM236 939v65h288v-65h-288z" />
    <glyph glyph-name="odieresismacron" unicode="&#x22b;" horiz-adv-x="593" 
d="M297 -14q-62 0 -110.5 20.5t-82 56.5t-51 86t-17.5 110q0 59 17.5 109t51 86t82 56.5t110.5 20.5t110.5 -20.5t82 -56.5t51 -86t17.5 -109q0 -60 -17.5 -110t-51 -86t-82 -56.5t-110.5 -20.5zM297 76q38 0 66 16t46 42t26.5 58.5t8.5 66.5q0 33 -8.5 66t-26.5 58.5
t-46 41.5t-66 16t-66 -16t-46 -41.5t-26.5 -58.5t-8.5 -66q0 -34 8.5 -66.5t26.5 -58.5t46 -42t66 -16zM154 581v108h114v-108h-114zM440 689v-108h-114v108h114zM153 739v65h288v-65h-288z" />
    <glyph glyph-name="Otildemacron" unicode="&#x22c;" horiz-adv-x="760" 
d="M380 629q-57 0 -98.5 -23t-67.5 -61.5t-38.5 -87.5t-12.5 -100t12.5 -100t38.5 -87.5t67.5 -61.5t98.5 -23t98.5 23t67.5 61.5t38.5 87.5t12.5 100t-12.5 100t-38.5 87.5t-67.5 61.5t-98.5 23zM380 731q80 0 143.5 -30t107.5 -81t67.5 -119t23.5 -144q0 -77 -23.5 -145
t-67.5 -119t-107.5 -80.5t-143.5 -29.5t-143.5 29.5t-107.5 80.5t-67.5 119t-23.5 145q0 76 23.5 144t67.5 119t107.5 81t143.5 30zM557 900q-4 -24 -11.5 -45t-21.5 -36q-13 -16 -32 -25t-46 -9q-17 0 -36 5.5t-38 13.5q-23 10 -37 14t-31 4q-18 0 -28.5 -10.5t-14.5 -30.5
h-57q3 19 11 39t21 36.5t31 27t41 10.5q19 0 34.5 -3.5t46.5 -16.5q21 -9 34.5 -13.5t27.5 -4.5q22 0 33.5 12t16.5 32h56zM236 950v65h288v-65h-288z" />
    <glyph glyph-name="otildemacron" unicode="&#x22d;" horiz-adv-x="593" 
d="M297 -14q-62 0 -110.5 20.5t-82 56.5t-51 86t-17.5 110q0 59 17.5 109t51 86t82 56.5t110.5 20.5t110.5 -20.5t82 -56.5t51 -86t17.5 -109q0 -60 -17.5 -110t-51 -86t-82 -56.5t-110.5 -20.5zM297 76q38 0 66 16t46 42t26.5 58.5t8.5 66.5q0 33 -8.5 66t-26.5 58.5
t-46 41.5t-66 16t-66 -16t-46 -41.5t-26.5 -58.5t-8.5 -66q0 -34 8.5 -66.5t26.5 -58.5t46 -42t66 -16zM474 700q-4 -24 -11.5 -45t-21.5 -36q-13 -16 -32 -25t-46 -9q-17 0 -36 5.5t-38 13.5q-23 10 -37 14t-31 4q-18 0 -28.5 -10.5t-14.5 -30.5h-57q3 19 11 39t21 36.5
t31 27t41 10.5q19 0 34.5 -3.5t46.5 -16.5q21 -9 34.5 -13.5t27.5 -4.5q22 0 33.5 12t16.5 32h56zM153 750v65h288v-65h-288z" />
    <glyph glyph-name="Odotaccent" unicode="&#x22e;" horiz-adv-x="760" 
d="M380 629q-57 0 -98.5 -23t-67.5 -61.5t-38.5 -87.5t-12.5 -100t12.5 -100t38.5 -87.5t67.5 -61.5t98.5 -23t98.5 23t67.5 61.5t38.5 87.5t12.5 100t-12.5 100t-38.5 87.5t-67.5 61.5t-98.5 23zM380 731q80 0 143.5 -30t107.5 -81t67.5 -119t23.5 -144q0 -77 -23.5 -145
t-67.5 -119t-107.5 -80.5t-143.5 -29.5t-143.5 29.5t-107.5 80.5t-67.5 119t-23.5 145q0 76 23.5 144t67.5 119t107.5 81t143.5 30zM323 781v108h114v-108h-114z" />
    <glyph glyph-name="odotaccent" unicode="&#x22f;" horiz-adv-x="593" 
d="M297 -14q-62 0 -110.5 20.5t-82 56.5t-51 86t-17.5 110q0 59 17.5 109t51 86t82 56.5t110.5 20.5t110.5 -20.5t82 -56.5t51 -86t17.5 -109q0 -60 -17.5 -110t-51 -86t-82 -56.5t-110.5 -20.5zM297 76q38 0 66 16t46 42t26.5 58.5t8.5 66.5q0 33 -8.5 66t-26.5 58.5
t-46 41.5t-66 16t-66 -16t-46 -41.5t-26.5 -58.5t-8.5 -66q0 -34 8.5 -66.5t26.5 -58.5t46 -42t66 -16zM240 581v108h114v-108h-114z" />
    <glyph glyph-name="Odotaccentmacron" unicode="&#x230;" horiz-adv-x="760" 
d="M380 629q-57 0 -98.5 -23t-67.5 -61.5t-38.5 -87.5t-12.5 -100t12.5 -100t38.5 -87.5t67.5 -61.5t98.5 -23t98.5 23t67.5 61.5t38.5 87.5t12.5 100t-12.5 100t-38.5 87.5t-67.5 61.5t-98.5 23zM380 731q80 0 143.5 -30t107.5 -81t67.5 -119t23.5 -144q0 -77 -23.5 -145
t-67.5 -119t-107.5 -80.5t-143.5 -29.5t-143.5 29.5t-107.5 80.5t-67.5 119t-23.5 145q0 76 23.5 144t67.5 119t107.5 81t143.5 30zM323 781v108h114v-108h-114zM236 939v65h288v-65h-288z" />
    <glyph glyph-name="odotaccentmacron" unicode="&#x231;" horiz-adv-x="593" 
d="M297 -14q-62 0 -110.5 20.5t-82 56.5t-51 86t-17.5 110q0 59 17.5 109t51 86t82 56.5t110.5 20.5t110.5 -20.5t82 -56.5t51 -86t17.5 -109q0 -60 -17.5 -110t-51 -86t-82 -56.5t-110.5 -20.5zM297 76q38 0 66 16t46 42t26.5 58.5t8.5 66.5q0 33 -8.5 66t-26.5 58.5
t-46 41.5t-66 16t-66 -16t-46 -41.5t-26.5 -58.5t-8.5 -66q0 -34 8.5 -66.5t26.5 -58.5t46 -42t66 -16zM240 581v108h114v-108h-114zM153 739v65h288v-65h-288z" />
    <glyph glyph-name="Ymacron" unicode="&#x232;" horiz-adv-x="648" 
d="M262 280l-268 434h145l189 -320l186 320h140l-267 -434v-280h-125v280zM180 764v65h288v-65h-288z" />
    <glyph glyph-name="ymacron" unicode="&#x233;" horiz-adv-x="519" 
d="M3 517h125l135 -386h2l131 386h119l-201 -545q-14 -35 -27.5 -67t-33 -56.5t-48.5 -39t-74 -14.5q-40 0 -79 6v96q14 -2 27 -4.5t27 -2.5q20 0 33 5t21.5 14.5t14.5 22.5t11 30l13 40zM115 567v65h288v-65h-288z" />
    <glyph glyph-name="uni0237.dotlessj" unicode="&#x237;" horiz-adv-x="241" 
d="M63 517h114v-561q0 -77 -34 -119t-114 -42q-17 0 -28.5 1t-22.5 3v90q11 -2 21 -3t18 -1q31 0 38.5 19t7.5 57v556z" />
    <glyph glyph-name="uni0259.schwa" unicode="&#x259;" 
d="M141 213q2 -27 11.5 -52t26 -43.5t40 -30t52.5 -11.5q30 0 54.5 10.5t42 29t28 43.5t11.5 54h-266zM407 288q0 30 -8.5 58t-25.5 49t-43 33.5t-62 12.5q-51 0 -81 -21.5t-45 -64.5h-108q9 42 31 75t53 55.5t69.5 34t80.5 11.5q61 0 108 -20t79.5 -56t49 -86t16.5 -110
q0 -55 -17.5 -104.5t-50 -87t-78.5 -59.5t-104 -22q-61 0 -109.5 25.5t-81 67.5t-46.5 96.5t-7 112.5h380z" />
    <glyph glyph-name="commaturnedmod" unicode="&#x2bb;" horiz-adv-x="278" 
d="M202 656q-30 -11 -45.5 -34t-15.5 -55h61v-135h-125v135q0 28 10 52t27 42.5t39.5 31.5t48.5 21v-58z" />
    <glyph glyph-name="afii57929" unicode="&#x2bc;" horiz-adv-x="278" 
d="M77 490q36 5 48.5 30.5t12.5 58.5h-61v135h125v-135q0 -58 -33.5 -98.5t-91.5 -48.5v58z" />
    <glyph glyph-name="circumflex" unicode="&#x2c6;" horiz-adv-x="241" 
d="M120 679l-70 -90h-92l107 143h111l108 -143h-93z" />
    <glyph glyph-name="caron" unicode="&#x2c7;" horiz-adv-x="241" 
d="M283 732l-108 -143h-111l-107 143h92l70 -89l71 89h93z" />
    <glyph glyph-name="uni02C9" unicode="&#x2c9;" horiz-adv-x="241" 
d="M265 624h-288v65h288v-65z" />
    <glyph glyph-name="breve" unicode="&#x2d8;" horiz-adv-x="241" 
d="M-41 731h58q15 -76 107 -76q39 0 66 19.5t35 56.5h57q-8 -70 -51.5 -105.5t-114.5 -35.5q-69 0 -110 36t-47 105z" />
    <glyph glyph-name="dotaccent" unicode="&#x2d9;" horiz-adv-x="241" 
d="M178 602h-114v108h114v-108z" />
    <glyph glyph-name="ring" unicode="&#x2da;" horiz-adv-x="241" 
d="M61 674q0 -26 17.5 -43.5t42.5 -17.5q26 0 43 17.5t17 43.5q0 27 -17 44t-43 17q-25 0 -42.5 -17t-17.5 -44zM121 571q-44 0 -74 29t-30 74t30.5 74t73.5 29t73.5 -29t30.5 -74t-30.5 -74t-73.5 -29z" />
    <glyph glyph-name="ogonek" unicode="&#x2db;" horiz-adv-x="241" 
d="M162 0h54q-54 -43 -74 -71t-20 -58q0 -20 11.5 -32t27.5 -12q31 0 52 34l41 -9q-20 -75 -105 -75q-12 0 -24.5 2.5t-32 10t-32 27.5t-12.5 50q0 65 114 133z" />
    <glyph glyph-name="tilde" unicode="&#x2dc;" horiz-adv-x="241" 
d="M241 720h56q-9 -55 -33 -81q-28 -34 -78 -34q-31 0 -74 19q-43 18 -68 18q-35 0 -43 -41h-57q7 44 34.5 78.5t69.5 34.5q33 0 81 -20q42 -18 62 -18q39 0 50 44z" />
    <glyph glyph-name="hungarumlaut" unicode="&#x2dd;" horiz-adv-x="241" 
d="M164 589l90 143h136l-144 -143h-82zM-35 589l90 143h136l-144 -143h-82z" />
    <glyph glyph-name="uni02EE" unicode="&#x2ee;" horiz-adv-x="444" 
d="M259 490q31 11 46 34t15 55h-61v135h125v-135q0 -29 -10 -52.5t-27 -42t-39.5 -32t-48.5 -20.5v58zM60 490q31 11 46 34t15 55h-61v135h125v-135q0 -29 -10 -52.5t-27 -42t-39.5 -32t-48.5 -20.5v58z" />
    <glyph glyph-name="gravecmb" unicode="&#x300;" horiz-adv-x="241" 
d="M105 732l91 -143h-83l-142 143h134z" />
    <glyph glyph-name="acutecmb" unicode="&#x301;" horiz-adv-x="241" 
d="M135 732h135l-142 -143h-83z" />
    <glyph glyph-name="circumflexcmb" unicode="&#x302;" horiz-adv-x="241" 
d="M50 589h-92l107 143h111l108 -143h-93l-71 90z" />
    <glyph glyph-name="tildecmb" unicode="&#x303;" horiz-adv-x="241" 
d="M297 720q-4 -24 -11.5 -45t-21.5 -36q-13 -16 -32 -25t-46 -9q-17 0 -36 5.5t-38 13.5q-23 10 -37 14t-31 4q-18 0 -28.5 -10.5t-14.5 -30.5h-57q3 19 11 39t21 36.5t31 27t41 10.5q19 0 34.5 -3.5t46.5 -16.5q21 -9 34.5 -13.5t27.5 -4.5q22 0 33.5 12t16.5 32h56z" />
    <glyph glyph-name="macroncmb" unicode="&#x304;" horiz-adv-x="241" 
d="M-23 624v65h288v-65h-288z" />
    <glyph glyph-name="brevecmb" unicode="&#x306;" horiz-adv-x="241" 
d="M17 731q8 -42 37.5 -59t69.5 -17q38 0 65.5 19t35.5 57h57q-8 -71 -52.5 -106t-113.5 -35t-110 36t-47 105h58z" />
    <glyph glyph-name="dotaccentcmb" unicode="&#x307;" horiz-adv-x="241" 
d="M64 602v108h114v-108h-114z" />
    <glyph glyph-name="dieresiscmb" unicode="&#x308;" horiz-adv-x="241" 
d="M-23 602v108h114v-108h-114zM263 710v-108h-114v108h114z" />
    <glyph glyph-name="uni0309.hookAboveComb" unicode="&#x309;" horiz-adv-x="1" 
d="M-350 785q27 3 46 3q15 0 33.5 -4t34 -13.5t26 -25.5t10.5 -40q0 -21 -14 -41t-55 -29l-2 -22h-55v43q38 3 50.5 16t12.5 26q0 23 -11.5 32.5t-38.5 9.5q-19 0 -35 -4z" />
    <glyph glyph-name="ringcmb" unicode="&#x30a;" horiz-adv-x="241" 
d="M61 674q0 -26 17.5 -43.5t42.5 -17.5q26 0 43 17.5t17 43.5q0 27 -17 44t-43 17q-25 0 -42.5 -17t-17.5 -44zM121 571q-21 0 -40 7.5t-33.5 21t-22.5 32.5t-8 42t8.5 42t23 33t33 21t39.5 7t39.5 -7t33.5 -21t23 -33t8 -42t-8 -42t-23 -32.5t-33.5 -21t-39.5 -7.5z" />
    <glyph glyph-name="hungarumlautcmb" unicode="&#x30b;" horiz-adv-x="241" 
d="M254 732h136l-144 -143h-82zM55 732h136l-144 -143h-82z" />
    <glyph glyph-name="caroncmb" unicode="&#x30c;" horiz-adv-x="241" 
d="M175 589h-111l-107 143h92l70 -89l71 89h93z" />
    <glyph glyph-name="uni030F.doubleGraveComb" unicode="&#x30f;" horiz-adv-x="0" 
d="M-151 589h-82l-144 143h136zM-350 589h-82l-144 143h136z" />
    <glyph glyph-name="uni0311.breveInvertedComb" unicode="&#x311;" horiz-adv-x="0" 
d="M-173 590q-8 42 -37.5 59t-69.5 17q-38 0 -65.5 -19t-35.5 -57h-57q8 72 52.5 106.5t113.5 34.5t110 -36t47 -105h-58z" />
    <glyph glyph-name="uni031B.hornComb" unicode="&#x31b;" horiz-adv-x="0" 
d="M68 557l65 -113l-77 -44q-24 -14 -49 -23t-48 -9q-26 0 -49 13t-43 44l32 18q7 -8 16 -13t23 -5t32.5 6.5t44.5 20.5l-33 56z" />
    <glyph glyph-name="uni0323.dotBelowComb" unicode="&#x323;" horiz-adv-x="0" 
d="M-338 -198v108h114v-108h-114z" />
    <glyph glyph-name="uni0324.diaeresisBelowComb" unicode="&#x324;" horiz-adv-x="0" 
d="M-436 -198v108h114v-108h-114zM-150 -90v-108h-114v108h114z" />
    <glyph glyph-name="uni0325.ringBelowComb" unicode="&#x325;" horiz-adv-x="0" 
d="M-346 -146q0 -26 17.5 -43.5t42.5 -17.5q26 0 43 17.5t17 43.5q0 27 -17 44t-43 17q-25 0 -42.5 -17t-17.5 -44zM-286 -249q-21 0 -40 7.5t-33.5 21t-22.5 32.5t-8 42t8.5 42t23 33t33 21t39.5 7t39.5 -7t33.5 -21t23 -33t8 -42t-8 -42t-23 -32.5t-33.5 -21t-39.5 -7.5z
" />
    <glyph glyph-name="uni0326.commaBelowComb" unicode="&#x326;" horiz-adv-x="0" 
d="M-299 -68h128l-88 -143h-80z" />
    <glyph glyph-name="cedillacmb" unicode="&#x327;" horiz-adv-x="241" 
d="M27 -160q18 -8 33 -12t32 -4q10 0 21 1.5t20 6t14.5 12.5t5.5 21q0 19 -14.5 28.5t-31.5 9.5q-22 0 -39 -10l-22 19l66 88h48l-46 -59l1 -1q6 2 14 3t19 1q15 0 30 -4.5t27 -14t20 -23.5t8 -33q0 -26 -11 -43t-28 -27.5t-38.5 -16t-43.5 -5.5q-28 0 -54.5 5.5t-48.5 17.5
z" />
    <glyph glyph-name="ogonekcmb" unicode="&#x328;" horiz-adv-x="241" 
d="M216 0q-28 -22 -46.5 -39.5t-29 -33t-14.5 -29t-4 -27.5q0 -20 12 -32t27 -12t27 7t25 27l41 -9q-6 -22 -17.5 -36.5t-26 -23t-30.5 -12t-31 -3.5q-7 0 -23.5 2t-34 11t-30.5 27t-13 50q0 8 2 20t13 29t34 38t65 46h54z" />
    <glyph glyph-name="uni032D.circumflexBelowComb" unicode="&#x32d;" horiz-adv-x="0" 
d="M-344 -211h-92l107 143h111l108 -143h-93l-71 90z" />
    <glyph glyph-name="uni032E.breveBelowComb" unicode="&#x32e;" horiz-adv-x="0" 
d="M-390 -69q8 -42 37.5 -59t69.5 -17q38 0 65.5 19t35.5 57h57q-8 -71 -52.5 -106t-113.5 -35t-110 36t-47 105h58z" />
    <glyph glyph-name="uni0330.tildeBelowComb" unicode="&#x330;" horiz-adv-x="0" 
d="M-122 -80q-4 -24 -11.5 -45t-21.5 -36q-13 -16 -32 -25t-46 -9q-17 0 -36 5.5t-38 13.5q-23 10 -37 14t-31 4q-18 0 -28.5 -10.5t-14.5 -30.5h-57q3 19 11 39t21 36.5t31 27t41 10.5q19 0 34.5 -3.5t46.5 -16.5q21 -9 34.5 -13.5t27.5 -4.5q22 0 33.5 12t16.5 32h56z" />
    <glyph glyph-name="uni0331.macronBelowComb" unicode="&#x331;" horiz-adv-x="0" 
d="M-446 -176v65h288v-65h-288z" />
    <glyph glyph-name="uni0338.slashComb" unicode="&#x338;" horiz-adv-x="0" 
d="M-79 724h78l-418 -748h-79z" />
    <glyph glyph-name="uni0340.graveToneComb" unicode="&#x340;" horiz-adv-x="0" 
d="M-297 732l91 -143h-83l-142 143h134z" />
    <glyph glyph-name="uni0341.acuteToneComb" unicode="&#x341;" horiz-adv-x="0" 
d="M-272 732h135l-142 -143h-83z" />
    <glyph glyph-name="uni0344.diaeresisTonosComb" unicode="&#x344;" horiz-adv-x="0" 
d="M-484 605v108h114v-108h-114zM-322 732h128l-88 -143h-80zM-193 605v108h114v-108h-114z" />
    <glyph glyph-name="uni037E.semicolonGreek" unicode="&#x37e;" horiz-adv-x="278" 
d="M69 506h139v-135h-139v135zM69 135h139v-135q-1 -62 -38 -104t-97 -54v61q33 8 49.5 36.5t15.5 60.5h-69v135z" />
    <glyph glyph-name="uni0384.tonos" unicode="&#x384;" horiz-adv-x="241" 
d="M76 732h128l-88 -143h-80z" />
    <glyph glyph-name="uni0385.diaeresisTonos" unicode="&#x385;" horiz-adv-x="428" 
d="M11 605v108h114v-108h-114zM173 732h128l-88 -143h-80zM302 605v108h114v-108h-114z" />
    <glyph glyph-name="uni0386.AlphaTonos" unicode="&#x386;" horiz-adv-x="711" 
d="M63 732h128l-88 -143h-80zM311 714h133l275 -714h-134l-67 189h-285l-67 -189h-129zM267 284h218l-107 307h-3z" />
    <glyph glyph-name="uni0387.anoteleia" unicode="&#x387;" horiz-adv-x="278" 
d="M69 442h139v-135h-139v135z" />
    <glyph glyph-name="uni0388.EpsilonTonos" unicode="&#x388;" horiz-adv-x="800" 
d="M65 732h128l-88 -143h-80zM246 714h514v-108h-389v-187h360v-102h-360v-209h396v-108h-521v714z" />
    <glyph glyph-name="uni0389.EtaTonos" unicode="&#x389;" horiz-adv-x="892" 
d="M65 732h128l-88 -143h-80zM243 714h125v-284h325v284h125v-714h-125v322h-325v-322h-125v714z" />
    <glyph glyph-name="uni038A.IotaTonos" unicode="&#x38a;" horiz-adv-x="448" 
d="M65 732h128l-88 -143h-80zM246 714h125v-714h-125v714z" />
    <glyph glyph-name="uni038C.OmicronTonos" unicode="&#x38c;" horiz-adv-x="870" 
d="M65 732h128l-88 -143h-80zM490 629q-57 0 -98.5 -23t-67.5 -61.5t-38.5 -87.5t-12.5 -100t12.5 -100t38.5 -87.5t67.5 -61.5t98.5 -23t98.5 23t67.5 61.5t38.5 87.5t12.5 100t-12.5 100t-38.5 87.5t-67.5 61.5t-98.5 23zM490 731q80 0 143.5 -30t107.5 -81t67.5 -119
t23.5 -144q0 -77 -23.5 -145t-67.5 -119t-107.5 -80.5t-143.5 -29.5t-143.5 29.5t-107.5 80.5t-67.5 119t-23.5 145q0 76 23.5 144t67.5 119t107.5 81t143.5 30z" />
    <glyph glyph-name="uni038E.UpsilonTonos" unicode="&#x38e;" horiz-adv-x="858" 
d="M65 732h128l-88 -143h-80zM472 280l-268 434h145l189 -320l186 320h140l-267 -434v-280h-125v280z" />
    <glyph glyph-name="uni038F.OmegaTonos" unicode="&#x38f;" horiz-adv-x="864" 
d="M65 732h128l-88 -143h-80zM144 108h155v4q-65 49 -107 124t-42 177q0 76 24 135.5t68 100t106.5 61.5t140.5 21t140.5 -21t106.5 -61.5t68 -100t24 -135.5q0 -51 -11 -95.5t-31 -82t-47.5 -68.5t-59.5 -55v-4h155v-108h-282v110q73 56 109.5 126.5t36.5 170.5
q0 50 -13.5 91t-40 70.5t-65.5 45.5t-90 16t-90 -16t-65.5 -45.5t-40 -70.5t-13.5 -91q0 -100 36.5 -170.5t109.5 -126.5v-110h-282v108z" />
    <glyph glyph-name="uni0390.iotaDiaeresisTonos" unicode="&#x390;" horiz-adv-x="326" 
d="M213 113q0 -27 9.5 -32t22.5 -5h7q4 0 7.5 0.5t8.5 1.5v-79q-13 -5 -35.5 -9t-37.5 -4q-50 0 -73 26t-23 76v429h114v-404zM-24 603v88h94v-88h-94zM138 753h128l-88 -173h-80zM267 603v88h94v-88h-94z" />
    <glyph glyph-name="uni0391.Alpha" unicode="&#x391;" horiz-adv-x="667" 
d="M267 714h133l275 -714h-134l-67 189h-285l-67 -189h-129zM223 284h218l-107 307h-3z" />
    <glyph glyph-name="uni0392.Beta" unicode="&#x392;" horiz-adv-x="704" 
d="M201 415h204q45 0 75 25.5t30 73.5q0 54 -27 76t-78 22h-204v-197zM76 714h347q96 0 154 -44t58 -133q0 -54 -26.5 -92.5t-75.5 -59.5v-2q66 -14 100 -62.5t34 -121.5q0 -42 -15 -78.5t-47 -63t-82 -42t-119 -15.5h-328v714zM201 102h221q57 0 88.5 29.5t31.5 83.5
q0 53 -31.5 81.5t-88.5 28.5h-221v-223z" />
    <glyph glyph-name="uni0393.Gamma" unicode="&#x393;" horiz-adv-x="593" 
d="M76 714h493v-108h-368v-606h-125v714z" />
    <glyph glyph-name="uni0394" unicode="&#x394;" horiz-adv-x="683" 
d="M524 98l-190 490l-180 -490h370zM675 0h-666l272 712h110z" />
    <glyph glyph-name="uni0395.Epsilon" unicode="&#x395;" horiz-adv-x="630" 
d="M76 714h514v-108h-389v-187h360v-102h-360v-209h396v-108h-521v714z" />
    <glyph glyph-name="uni0396.Zeta" unicode="&#x396;" horiz-adv-x="630" 
d="M55 714h543v-95l-416 -511h426v-108h-585v102l416 504h-384v108z" />
    <glyph glyph-name="uni0397.Eta" unicode="&#x397;" horiz-adv-x="722" 
d="M73 714h125v-284h325v284h125v-714h-125v322h-325v-322h-125v714z" />
    <glyph glyph-name="uni0398.Theta" unicode="&#x398;" horiz-adv-x="760" 
d="M380 629q-57 0 -98.5 -23t-67.5 -61.5t-38.5 -87.5t-12.5 -100t12.5 -100t38.5 -87.5t67.5 -61.5t98.5 -23t98.5 23t67.5 61.5t38.5 87.5t12.5 100t-12.5 100t-38.5 87.5t-67.5 61.5t-98.5 23zM380 731q80 0 143.5 -30t107.5 -81t67.5 -119t23.5 -144q0 -77 -23.5 -145
t-67.5 -119t-107.5 -80.5t-143.5 -29.5t-143.5 29.5t-107.5 80.5t-67.5 119t-23.5 145q0 76 23.5 144t67.5 119t107.5 81t143.5 30zM234 414h291v-108h-291v108z" />
    <glyph glyph-name="uni0399.Iota" unicode="&#x399;" horiz-adv-x="278" 
d="M76 714h125v-714h-125v714z" />
    <glyph glyph-name="uni039A.Kappa" unicode="&#x39a;" horiz-adv-x="685" 
d="M76 714h125v-325l318 325h154l-285 -285l305 -429h-156l-234 341l-102 -101v-240h-125v714z" />
    <glyph glyph-name="uni039B.Lambda" unicode="&#x39b;" horiz-adv-x="667" 
d="M122 0h-129l274 714h133l275 -714h-134l-207 591h-3z" />
    <glyph glyph-name="uni039C.Mu" unicode="&#x39c;" horiz-adv-x="889" 
d="M74 714h176l197 -559h2l192 559h174v-714h-119v551h-2l-198 -551h-103l-198 551h-2v-551h-119v714z" />
    <glyph glyph-name="uni039D.Nu" unicode="&#x39d;" horiz-adv-x="722" 
d="M71 714h132l326 -526h2v526h119v-714h-132l-325 525h-3v-525h-119v714z" />
    <glyph glyph-name="uni039E.Xi" unicode="&#x39e;" horiz-adv-x="622" 
d="M38 0v108h546v-108h-546zM45 606v108h532v-108h-532zM74 317v102h474v-102h-474z" />
    <glyph glyph-name="uni039F.Omicron" unicode="&#x39f;" horiz-adv-x="760" 
d="M380 629q-57 0 -98.5 -23t-67.5 -61.5t-38.5 -87.5t-12.5 -100t12.5 -100t38.5 -87.5t67.5 -61.5t98.5 -23t98.5 23t67.5 61.5t38.5 87.5t12.5 100t-12.5 100t-38.5 87.5t-67.5 61.5t-98.5 23zM380 731q80 0 143.5 -30t107.5 -81t67.5 -119t23.5 -144q0 -77 -23.5 -145
t-67.5 -119t-107.5 -80.5t-143.5 -29.5t-143.5 29.5t-107.5 80.5t-67.5 119t-23.5 145q0 76 23.5 144t67.5 119t107.5 81t143.5 30z" />
    <glyph glyph-name="uni03A0.Pi" unicode="&#x3a0;" horiz-adv-x="722" 
d="M73 714h575v-714h-125v606h-325v-606h-125v714z" />
    <glyph glyph-name="uni03A1.Rho" unicode="&#x3a1;" horiz-adv-x="667" 
d="M76 714h315q76 0 124 -22t74 -55t35.5 -72t9.5 -72t-9.5 -71.5t-35.5 -71.5t-74 -54.5t-124 -21.5h-190v-274h-125v714zM201 376h183q21 0 43 6t40.5 19.5t30 36t11.5 56.5q0 35 -10 58t-27 36.5t-39 18.5t-47 5h-185v-236z" />
    <glyph glyph-name="uni03A3.Sigma" unicode="&#x3a3;" horiz-adv-x="605" 
d="M447 375l-247 -267h372v-108h-521v103l254 268l-254 253v90h514v-108h-351z" />
    <glyph glyph-name="uni03A4.Tau" unicode="&#x3a4;" horiz-adv-x="593" 
d="M8 714h578v-108h-227v-606h-125v606h-226v108z" />
    <glyph glyph-name="uni03A5.Upsilon" unicode="&#x3a5;" horiz-adv-x="648" 
d="M262 280l-268 434h145l189 -320l186 320h140l-267 -434v-280h-125v280z" />
    <glyph glyph-name="uni03A6.Phi" unicode="&#x3a6;" horiz-adv-x="746" 
d="M310 82q-69 6 -121 30t-87.5 61.5t-53 87t-17.5 107.5t16.5 108t51 87.5t87 61t124.5 29.5v90h125v-90q72 -6 124.5 -29.5t87 -61t51.5 -87.5t17 -108t-18 -107.5t-53 -87t-87.5 -61.5t-121.5 -30v-82h-125v82zM594 368q0 36 -8.5 67.5t-27 56t-49 41t-74.5 22.5v-373
q44 6 74.5 22.5t49 41t27 55.5t8.5 67zM152 368q0 -36 8 -67t27 -55.5t49 -41t74 -22.5v372q-44 -6 -74 -22.5t-49 -41t-27 -55.5t-8 -67z" />
    <glyph glyph-name="uni03A7.Chi" unicode="&#x3a7;" horiz-adv-x="648" 
d="M14 714h149l162 -252l169 252h140l-236 -344l253 -370h-152l-178 273l-181 -273h-143l253 370z" />
    <glyph glyph-name="uni03A8.Psi" unicode="&#x3a8;" horiz-adv-x="821" 
d="M347 157q-61 4 -112 18t-88 41t-58 69.5t-21 103.5v325h125v-314q0 -62 36.5 -94t117.5 -40v448h125v-448q81 8 118.5 40t37.5 94v314h125v-325q0 -61 -21 -103.5t-58.5 -69.5t-89 -41t-112.5 -18v-157h-125v157z" />
    <glyph glyph-name="uni03A9" unicode="&#x3a9;" horiz-adv-x="757" 
d="M698 0h-272v188q76 15 118 73.5t42 138.5q0 94 -60 158t-153 64q-94 0 -154 -64.5t-60 -159.5q0 -82 40 -137t118 -73v-188h-271v91h183v47q-89 29 -136 100.5t-47 167.5q0 136 94.5 225.5t231.5 89.5q138 0 232 -87t94 -225q0 -98 -47 -171t-137 -100v-47h184v-91z" />
    <glyph glyph-name="uni03AA.IotaDiaeresis" unicode="&#x3aa;" horiz-adv-x="278" 
d="M76 714h125v-714h-125v714zM-4 799v108h114v-108h-114zM282 907v-108h-114v108h114z" />
    <glyph glyph-name="uni03AB.UpsilonDiaeresis" unicode="&#x3ab;" horiz-adv-x="648" 
d="M262 280l-268 434h145l189 -320l186 320h140l-267 -434v-280h-125v280zM181 799v108h114v-108h-114zM467 907v-108h-114v108h114z" />
    <glyph glyph-name="uni03AC.alphaTonos" unicode="&#x3ac;" horiz-adv-x="606" 
d="M543 113q0 -27 9.5 -32t22.5 -5h7q4 0 7.5 0.5t8.5 1.5v-79q-13 -5 -35.5 -9t-37.5 -4q-48 0 -68 23t-24 67h-3q-24 -48 -67 -68t-98 -20q-58 0 -101 23t-71.5 61t-42.5 87t-14 101t14.5 101t44 87t75 60.5t107.5 22.5q48 0 88 -23t62 -60h2v69h114v-404zM150 260
q0 -32 8 -65t24.5 -59.5t42.5 -43t63 -16.5q41 0 69 16.5t45 43t24.5 60t7.5 68.5q0 37 -8.5 69t-26 56t-43.5 38t-61 14q-42 0 -70 -15.5t-44.5 -41t-23.5 -58t-7 -66.5zM259 732h128l-88 -143h-80z" />
    <glyph glyph-name="uni03AD.epsilonTonos" unicode="&#x3ad;" horiz-adv-x="540" 
d="M380 377q-7 37 -31.5 51t-74.5 14q-49 0 -80 -14.5t-31 -52.5q0 -35 21.5 -47.5t58.5 -12.5h84v-89h-83q-49 0 -71.5 -17t-22.5 -53q0 -43 34 -62.5t89 -19.5q23 0 44 4t37.5 14.5t27.5 27.5t16 43h114q-16 -95 -82 -136t-175 -41q-40 0 -79.5 8.5t-71 27t-51 48.5
t-19.5 74q0 50 29 82.5t71 40.5v2q-38 11 -59.5 39t-21.5 71q0 37 17.5 65t47.5 47.5t70 29.5t84 10q91 0 146.5 -37t69.5 -117h-108zM226 732h128l-88 -143h-80z" />
    <glyph glyph-name="uni03AE.etaTonos" unicode="&#x3ae;" horiz-adv-x="574" 
d="M60 517h108v-76l2 -2q26 43 68 67.5t93 24.5q85 0 134 -44t49 -132v-546h-114v516q0 61 -25 88.5t-76 27.5q-29 0 -52 -10.5t-39 -29t-25 -43.5t-9 -53v-305h-114v517zM243 732h128l-88 -143h-80z" />
    <glyph glyph-name="uni03AF.iotaTonos" unicode="&#x3af;" horiz-adv-x="240" 
d="M177 113q0 -27 9.5 -32t22.5 -5h7q4 0 7.5 0.5t8.5 1.5v-79q-13 -5 -35.5 -9t-37.5 -4q-50 0 -73 26t-23 76v429h114v-404zM76 732h128l-88 -143h-80z" />
    <glyph glyph-name="uni03B0.upsilonDiaeresisTonos" unicode="&#x3b0;" horiz-adv-x="575" 
d="M298 76q33 0 57.5 16t40 43.5t23 63.5t7.5 76q0 50 -6 88t-16 67.5t-22 50.5t-25 36h125q8 -14 18 -35t19 -50.5t15 -69t6 -90.5q0 -65 -17.5 -117.5t-50 -90t-79.5 -58t-105 -20.5q-64 0 -107.5 12.5t-70.5 38t-38.5 63.5t-11.5 89v328h114v-317q0 -68 29 -96t95 -28z
M82 603v88h94v-88h-94zM244 753h128l-88 -173h-80zM393 603v88h94v-88h-94z" />
    <glyph glyph-name="uni03B1.alpha" unicode="&#x3b1;" horiz-adv-x="606" 
d="M543 113q0 -27 9.5 -32t22.5 -5h7q4 0 7.5 0.5t8.5 1.5v-79q-13 -5 -35.5 -9t-37.5 -4q-48 0 -68 23t-24 67h-3q-24 -48 -67 -68t-98 -20q-58 0 -101 23t-71.5 61t-42.5 87t-14 101t14.5 101t44 87t75 60.5t107.5 22.5q48 0 88 -23t62 -60h2v69h114v-404zM150 260
q0 -32 8 -65t24.5 -59.5t42.5 -43t63 -16.5q41 0 69 16.5t45 43t24.5 60t7.5 68.5q0 37 -8.5 69t-26 56t-43.5 38t-61 14q-42 0 -70 -15.5t-44.5 -41t-23.5 -58t-7 -66.5z" />
    <glyph glyph-name="uni03B2.beta" unicode="&#x3b2;" horiz-adv-x="578" 
d="M63 523q0 49 16.5 87.5t45.5 65.5t69 41t88 14q40 0 78.5 -12t68.5 -35t48 -56.5t18 -76.5q0 -51 -25 -93t-77 -58v-2q63 -8 101.5 -56.5t38.5 -123.5q0 -49 -15.5 -91t-45.5 -73.5t-73.5 -49.5t-100.5 -18q-38 0 -68 9.5t-53 25.5v-212h-114v714zM177 136
q18 -26 47.5 -43t74.5 -17q34 0 57 12.5t37 32.5t20 46t6 52q0 40 -13.5 66t-37 41t-56 21t-69.5 8v75q28 0 53.5 5.5t44 18.5t29.5 34.5t11 51.5q0 101 -101 101q-17 0 -35.5 -5.5t-33.5 -20t-24.5 -39.5t-9.5 -65v-375z" />
    <glyph glyph-name="uni03B3.gamma" unicode="&#x3b3;" horiz-adv-x="522" 
d="M494 517q-13 -89 -33.5 -166t-46 -143.5t-56 -124.5t-64.5 -109v-165h-114v139q0 60 -16 137.5t-41.5 157t-56.5 152t-60 122.5h126q19 -32 39.5 -78.5t39.5 -98t33.5 -103.5t21.5 -94h3q20 39 36.5 79.5t30 85.5t23 96.5t16.5 112.5h119z" />
    <glyph glyph-name="uni03B4.delta" unicode="&#x3b4;" horiz-adv-x="593" 
d="M297 -14q-62 0 -110.5 20t-82 55.5t-51 84t-17.5 104.5q0 43 15 81t39.5 67t55 48.5t62.5 27.5q-43 19 -61 49t-18 60q0 42 17 70.5t44 46t61.5 24.5t69.5 7q42 0 85.5 -11t72.5 -25v-110q-39 32 -83.5 44t-82.5 12q-32 0 -50.5 -15.5t-18.5 -44.5q0 -23 11.5 -36.5
t39.5 -25.5q36 -16 80 -35.5t90 -49.5q39 -26 66 -73t27 -109q0 -57 -17.5 -105.5t-51 -84.5t-82 -56t-110.5 -20zM297 76q38 0 65.5 16t45.5 41.5t26.5 57t9.5 63.5t-6.5 54t-26.5 42q-20 20 -45 33.5t-69 28.5q-72 -13 -109.5 -51t-37.5 -113q0 -30 8.5 -60.5t26.5 -55
t46 -40.5t66 -16z" />
    <glyph glyph-name="uni03B5.epsilon" unicode="&#x3b5;" horiz-adv-x="540" 
d="M380 377q-7 37 -31.5 51t-74.5 14q-49 0 -80 -14.5t-31 -52.5q0 -35 21.5 -47.5t58.5 -12.5h84v-89h-83q-49 0 -71.5 -17t-22.5 -53q0 -43 34 -62.5t89 -19.5q23 0 44 4t37.5 14.5t27.5 27.5t16 43h114q-16 -95 -82 -136t-175 -41q-40 0 -79.5 8.5t-71 27t-51 48.5
t-19.5 74q0 50 29 82.5t71 40.5v2q-38 11 -59.5 39t-21.5 71q0 37 17.5 65t47.5 47.5t70 29.5t84 10q91 0 146.5 -37t69.5 -117h-108z" />
    <glyph glyph-name="uni03B6.zeta" unicode="&#x3b6;" horiz-adv-x="471" 
d="M338 76q72 0 102.5 -33.5t30.5 -93.5q0 -29 -2.5 -51.5t-10.5 -51.5h-112q8 31 10.5 51.5t2.5 36.5q0 27 -11.5 39.5t-43.5 12.5h-22q-55 0 -100 20t-77 56.5t-49.5 87.5t-17.5 112q0 63 18.5 118.5t50 102t73 82t88.5 59.5h-188v90h382v-83q-89 -33 -149 -71.5t-96 -84
t-51 -98.5t-13 -115q3 -92 41.5 -139t112.5 -47h31z" />
    <glyph glyph-name="uni03B7.eta" unicode="&#x3b7;" horiz-adv-x="574" 
d="M60 517h108v-76l2 -2q26 43 68 67.5t93 24.5q85 0 134 -44t49 -132v-546h-114v516q0 61 -25 88.5t-76 27.5q-29 0 -52 -10.5t-39 -29t-25 -43.5t-9 -53v-305h-114v517z" />
    <glyph glyph-name="uni03B8.theta" unicode="&#x3b8;" horiz-adv-x="593" 
d="M297 -14q-136 0 -198.5 92t-62.5 278t62.5 279t198.5 93t198.5 -93t62.5 -279t-62.5 -278t-198.5 -92zM297 76q67 0 103 55t42 175h-291q6 -120 42.5 -175t103.5 -55zM297 638q-66 0 -102 -54.5t-44 -169.5h291q-7 115 -43 169.5t-102 54.5z" />
    <glyph glyph-name="uni03B9.iota" unicode="&#x3b9;" horiz-adv-x="240" 
d="M177 113q0 -27 9.5 -32t22.5 -5h7q4 0 7.5 0.5t8.5 1.5v-79q-13 -5 -35.5 -9t-37.5 -4q-50 0 -73 26t-23 76v429h114v-404z" />
    <glyph glyph-name="uni03BA.kappa" unicode="&#x3ba;" horiz-adv-x="537" 
d="M63 517h114v-209l206 209h140l-198 -190l217 -327h-139l-158 251l-68 -66v-185h-114v517z" />
    <glyph glyph-name="uni03BB.lambda" unicode="&#x3bb;" horiz-adv-x="548" 
d="M271 386h-2l-135 -386h-125l196 515l-16 49q-5 16 -11 29.5t-15 23t-22 14.5t-32 5q-14 0 -27.5 -2t-26.5 -5v96q39 6 79 6q45 0 74.5 -14.5t49 -39t33 -56.5t26.5 -67l167 -456q6 -16 15.5 -19t18.5 -3h7q4 0 7.5 0.5t8.5 1.5v-79q-13 -5 -35.5 -9t-37.5 -4
q-37 0 -54 15t-27 44z" />
    <glyph glyph-name="uni03BC" unicode="&#x3bc;" horiz-adv-x="574" 
d="M514 517v-517h-112v72h-2q-21 -38 -60.5 -62t-75.5 -24q-59 0 -90 36v-213h-114v708h114v-317q0 -66 25 -95t74 -29q127 0 127 141v300h114z" />
    <glyph glyph-name="uni03BD.nu" unicode="&#x3bd;" horiz-adv-x="521" 
d="M9 517h124l132 -402h2q21 50 39 98t33 96.5t26.5 100t20.5 107.5h116q-24 -134 -73 -265.5t-114 -251.5h-118z" />
    <glyph glyph-name="uni03BE.xi" unicode="&#x3be;" horiz-adv-x="458" 
d="M257 -14q-57 0 -98 15t-68 42.5t-40 66t-13 84.5q0 72 34.5 118.5t99.5 66.5v2q-47 15 -78.5 57.5t-31.5 104.5q0 48 18 83.5t48.5 58.5t71.5 34.5t87 11.5q35 0 71 -4.5t66 -16.5v-105q-32 17 -67.5 26.5t-69.5 9.5q-54 0 -82.5 -23t-28.5 -80q0 -49 30 -80.5t101 -31.5
h93v-89h-97q-43 0 -72 -8t-46.5 -24.5t-25 -41.5t-7.5 -58q0 -129 122 -129h42q72 0 107 -29t35 -98q0 -29 -2 -51.5t-10 -51.5h-113q7 31 10 50.5t3 35.5q0 29 -9.5 41.5t-40.5 12.5h-39z" />
    <glyph glyph-name="uni03BF.omicron" unicode="&#x3bf;" horiz-adv-x="593" 
d="M297 -14q-62 0 -110.5 20.5t-82 56.5t-51 86t-17.5 110q0 59 17.5 109t51 86t82 56.5t110.5 20.5t110.5 -20.5t82 -56.5t51 -86t17.5 -109q0 -60 -17.5 -110t-51 -86t-82 -56.5t-110.5 -20.5zM297 76q38 0 66 16t46 42t26.5 58.5t8.5 66.5q0 33 -8.5 66t-26.5 58.5
t-46 41.5t-66 16t-66 -16t-46 -41.5t-26.5 -58.5t-8.5 -66q0 -34 8.5 -66.5t26.5 -58.5t46 -42t66 -16z" />
    <glyph glyph-name="pi" unicode="&#x3c0;" horiz-adv-x="589" 
d="M566 89v-76q-43 -20 -83 -20q-61 0 -80.5 33t-19.5 97v264h-211v-387h-101v387h-70v96h562v-96h-79v-249q0 -19 1.5 -29t10.5 -20t26 -10q23 0 44 10z" />
    <glyph glyph-name="uni03C1.rho" unicode="&#x3c1;" horiz-adv-x="611" 
d="M63 258q0 61 18 111.5t51 86.5t80 55.5t106 19.5q67 0 115.5 -21.5t80 -59t46.5 -87.5t15 -107q0 -53 -13.5 -101.5t-41 -86t-69.5 -60t-99 -22.5q-25 0 -50 4.5t-48 14.5t-42.5 25.5t-32.5 36.5h-2v-258h-114v449zM461 258q0 35 -9 68t-27 58.5t-45 41t-62 15.5
q-72 0 -108.5 -49.5t-36.5 -133.5q0 -39 9.5 -72.5t28.5 -57.5t45.5 -38t61.5 -14q39 0 66 16t44.5 41.5t25 58t7.5 66.5z" />
    <glyph glyph-name="uni03C2.sigma1" unicode="&#x3c2;" 
d="M409 344q-7 48 -38.5 72.5t-79.5 24.5q-22 0 -47 -7.5t-46 -28t-35 -57.5t-14 -95q0 -33 9 -65t28.5 -57t49.5 -40t71 -15h31q72 0 102.5 -33.5t30.5 -93.5q0 -29 -2.5 -51.5t-10.5 -51.5h-112q8 31 10.5 51.5t2.5 36.5q0 27 -11.5 39.5t-43.5 12.5h-22q-58 0 -104 21
t-77.5 57.5t-48.5 85t-17 103.5q0 58 16 109t48 88.5t79.5 59t111.5 21.5q45 0 85.5 -11.5t72 -34.5t51.5 -58t24 -83h-114z" />
    <glyph glyph-name="uni03C3.sigma" unicode="&#x3c3;" horiz-adv-x="610" 
d="M297 -14q-62 0 -110.5 20.5t-82 56.5t-51 86t-17.5 110q0 59 17.5 106.5t51 81.5t82 52t110.5 18h296v-85h-108q32 -30 49.5 -75t17.5 -98q0 -60 -16.5 -110t-49 -86t-80 -56.5t-109.5 -20.5zM297 76q38 0 66.5 16t47 42t27.5 58.5t9 66.5q0 33 -9 64t-27.5 54.5
t-47 37.5t-66.5 14t-66 -14t-46 -37.5t-26.5 -54.5t-8.5 -64q0 -34 8.5 -66.5t26.5 -58.5t46 -42t66 -16z" />
    <glyph glyph-name="uni03C4.tau" unicode="&#x3c4;" horiz-adv-x="481" 
d="M471 432h-171v-319q0 -27 9.5 -32t22.5 -5h7q4 0 7.5 0.5t8.5 1.5v-79q-13 -5 -35.5 -9t-37.5 -4q-50 0 -73 26t-23 76v344h-178v85h463v-85z" />
    <glyph glyph-name="uni03C5.upsilon" unicode="&#x3c5;" horiz-adv-x="575" 
d="M298 76q33 0 57.5 16t40 43.5t23 63.5t7.5 76q0 50 -6 88t-16 67.5t-22 50.5t-25 36h125q8 -14 18 -35t19 -50.5t15 -69t6 -90.5q0 -65 -17.5 -117.5t-50 -90t-79.5 -58t-105 -20.5q-64 0 -107.5 12.5t-70.5 38t-38.5 63.5t-11.5 89v328h114v-317q0 -68 29 -96t95 -28z
" />
    <glyph glyph-name="uni03C6.phi" unicode="&#x3c6;" horiz-adv-x="745" 
d="M316 -14q-62 0 -113.5 20.5t-88.5 56.5t-57.5 86t-20.5 110q0 59 20.5 109t57.5 86t88.5 56.5t113.5 20.5v135h114v-135q62 0 113.5 -20.5t88.5 -56.5t57.5 -86t20.5 -109q0 -60 -20.5 -110t-57.5 -86t-88.5 -56.5t-113.5 -20.5v-177h-114v177zM596 259q0 33 -9 66
t-29 58.5t-51.5 41.5t-76.5 16v-365q45 0 76.5 16t51.5 42t29 58.5t9 66.5zM316 441q-45 0 -76.5 -16t-51.5 -41.5t-29 -58.5t-9 -66q0 -34 9 -66.5t29 -58.5t51.5 -42t76.5 -16v365z" />
    <glyph glyph-name="uni03C7.chi" unicode="&#x3c7;" horiz-adv-x="557" 
d="M208 181l-183 336h131l120 -238l125 238h125l-180 -327l202 -381h-130l-143 282l-139 -282h-127z" />
    <glyph glyph-name="uni03C8.psi" unicode="&#x3c8;" horiz-adv-x="715" 
d="M304 -14q-129 0 -186.5 50t-57.5 153v328h114v-317q0 -69 32 -96.5t98 -27.5v590h114v-590q33 0 60.5 16t47 43.5t30 63.5t10.5 76q0 50 -6 88t-16 67.5t-22 50.5t-25 36h125q8 -14 18 -35t19 -50.5t15 -69t6 -90.5q0 -65 -19 -117.5t-53.5 -90t-83 -58t-106.5 -20.5
v-177h-114v177z" />
    <glyph glyph-name="uni03C9.omega" unicode="&#x3c9;" horiz-adv-x="796" 
d="M247 76q49 0 71.5 27.5t22.5 96.5v203h114v-202q0 -71 23.5 -98t70.5 -27q25 0 43.5 16t30.5 43.5t18 63.5t6 76q0 50 -6 88t-16 67.5t-22 50.5t-25 36h125q8 -14 18 -35t19 -50.5t15 -69t6 -90.5q0 -65 -14.5 -117.5t-42.5 -90t-69.5 -58t-95.5 -20.5q-51 0 -86.5 19.5
t-54.5 50.5q-20 -31 -55 -50.5t-86 -19.5q-54 0 -95.5 20.5t-69.5 58t-42.5 90t-14.5 117.5q0 51 6 90.5t15 69t19 50.5t18 35h125q-13 -15 -25.5 -36t-22 -50.5t-15.5 -67.5t-6 -88q0 -40 5.5 -76t17.5 -63.5t30.5 -43.5t44.5 -16z" />
    <glyph glyph-name="uni03CA.iotaDiaeresis" unicode="&#x3ca;" horiz-adv-x="240" 
d="M177 113q0 -27 9.5 -32t22.5 -5h7q4 0 7.5 0.5t8.5 1.5v-79q-13 -5 -35.5 -9t-37.5 -4q-50 0 -73 26t-23 76v429h114v-404zM-23 602v108h114v-108h-114zM263 710v-108h-114v108h114z" />
    <glyph glyph-name="uni03CB.upsilonDiaeresis" unicode="&#x3cb;" horiz-adv-x="575" 
d="M298 76q33 0 57.5 16t40 43.5t23 63.5t7.5 76q0 50 -6 88t-16 67.5t-22 50.5t-25 36h125q8 -14 18 -35t19 -50.5t15 -69t6 -90.5q0 -65 -17.5 -117.5t-50 -90t-79.5 -58t-105 -20.5q-64 0 -107.5 12.5t-70.5 38t-38.5 63.5t-11.5 89v328h114v-317q0 -68 29 -96t95 -28z
M144 602v108h114v-108h-114zM430 710v-108h-114v108h114z" />
    <glyph glyph-name="uni03CC.omicronTonos" unicode="&#x3cc;" horiz-adv-x="593" 
d="M297 -14q-62 0 -110.5 20.5t-82 56.5t-51 86t-17.5 110q0 59 17.5 109t51 86t82 56.5t110.5 20.5t110.5 -20.5t82 -56.5t51 -86t17.5 -109q0 -60 -17.5 -110t-51 -86t-82 -56.5t-110.5 -20.5zM297 76q38 0 66 16t46 42t26.5 58.5t8.5 66.5q0 33 -8.5 66t-26.5 58.5
t-46 41.5t-66 16t-66 -16t-46 -41.5t-26.5 -58.5t-8.5 -66q0 -34 8.5 -66.5t26.5 -58.5t46 -42t66 -16zM252 732h128l-88 -143h-80z" />
    <glyph glyph-name="uni03CD.upsilonTonos" unicode="&#x3cd;" horiz-adv-x="575" 
d="M298 76q33 0 57.5 16t40 43.5t23 63.5t7.5 76q0 50 -6 88t-16 67.5t-22 50.5t-25 36h125q8 -14 18 -35t19 -50.5t15 -69t6 -90.5q0 -65 -17.5 -117.5t-50 -90t-79.5 -58t-105 -20.5q-64 0 -107.5 12.5t-70.5 38t-38.5 63.5t-11.5 89v328h114v-317q0 -68 29 -96t95 -28z
M243 732h128l-88 -143h-80z" />
    <glyph glyph-name="uni03CE.omegaTonos" unicode="&#x3ce;" horiz-adv-x="796" 
d="M247 76q49 0 71.5 27.5t22.5 96.5v203h114v-202q0 -71 23.5 -98t70.5 -27q25 0 43.5 16t30.5 43.5t18 63.5t6 76q0 50 -6 88t-16 67.5t-22 50.5t-25 36h125q8 -14 18 -35t19 -50.5t15 -69t6 -90.5q0 -65 -14.5 -117.5t-42.5 -90t-69.5 -58t-95.5 -20.5q-51 0 -86.5 19.5
t-54.5 50.5q-20 -31 -55 -50.5t-86 -19.5q-54 0 -95.5 20.5t-69.5 58t-42.5 90t-14.5 117.5q0 51 6 90.5t15 69t19 50.5t18 35h125q-13 -15 -25.5 -36t-22 -50.5t-15.5 -67.5t-6 -88q0 -40 5.5 -76t17.5 -63.5t30.5 -43.5t44.5 -16zM354 732h128l-88 -143h-80z" />
    <glyph glyph-name="uni0400.EGraveCyrillic" unicode="&#x400;" horiz-adv-x="630" 
d="M76 714h514v-108h-389v-187h360v-102h-360v-209h396v-108h-521v714zM348 929l91 -143h-83l-142 143h134z" />
    <glyph glyph-name="afii10023" unicode="&#x401;" horiz-adv-x="630" 
d="M587 712v-105h-389v-189h361v-101h-361v-210h395v-107h-519v712h513zM484 881v-108h-111v108h111zM285 881v-108h-112v108h112z" />
    <glyph glyph-name="afii10051" unicode="&#x402;" horiz-adv-x="778" 
d="M752 160q0 -122 -70.5 -201.5t-173.5 -79.5q-10 0 -34 2v95q66 0 109.5 51t43.5 136q0 86 -37 133.5t-108 47.5q-67 0 -105 -48t-38 -133v-163h-125v604h-206v108h578v-108h-247v-243q56 81 162 81q117 0 184 -77.5t67 -204.5z" />
    <glyph glyph-name="afii10052" unicode="&#x403;" horiz-adv-x="563" 
d="M201 0h-125v712h483v-108h-358v-604zM431 900l-135 -143h-82l85 143h132z" />
    <glyph glyph-name="afii10053" unicode="&#x404;" horiz-adv-x="722" 
d="M682 239q-18 -117 -100 -186.5t-206 -69.5q-151 0 -242 102t-91 271q0 102 39 185.5t117 135t183 51.5q110 0 192.5 -59t103.5 -171h-125q-16 58 -62 91t-111 33q-89 0 -140.5 -57.5t-65.5 -146.5h301v-101h-304q8 -98 60 -163t148 -65q143 0 177 150h126z" />
    <glyph glyph-name="afii10054" unicode="&#x405;" horiz-adv-x="648" 
d="M587 502h-119q-11 125 -155 125q-64 0 -100 -26.5t-36 -72.5q0 -43 26.5 -59t117.5 -39q24 -7 37 -10q119 -30 162 -54q95 -51 95 -159q0 -47 -16 -85t-43 -63.5t-64 -42.5t-77 -24.5t-83 -7.5q-134 0 -217 64t-83 188h123q0 -78 51 -115.5t133 -37.5q72 0 112.5 29.5
t40.5 82.5q0 34 -21.5 55.5t-46.5 30.5t-87 25q-7 2 -11 3q-133 34 -175 56q-87 45 -93 139v14q0 95 71.5 151.5t191.5 56.5q116 0 189 -55t77 -169z" />
    <glyph glyph-name="afii10055" unicode="&#x406;" horiz-adv-x="278" 
d="M202 712v-712h-126v712h126z" />
    <glyph glyph-name="afii10056" unicode="&#x407;" horiz-adv-x="278" 
d="M202 712v-712h-126v712h126zM294 880v-109h-111v109h111zM95 880v-109h-112v109h112z" />
    <glyph glyph-name="afii10057" unicode="&#x408;" horiz-adv-x="537" 
d="M470 712v-501q0 -112 -55.5 -170t-163.5 -58q-121 0 -173.5 61t-52.5 179v27h119v-39q0 -61 22 -93.5t81 -32.5q27 0 46 8.5t29 20t15.5 32.5t6.5 37.5t1 44.5v484h125z" />
    <glyph glyph-name="afii10058" unicode="&#x409;" horiz-adv-x="1035" 
d="M1002 221q0 -106 -63.5 -163.5t-179.5 -57.5h-270v604h-202l-13 -339q-6 -142 -57.5 -210t-133.5 -68q-36 0 -75 13v96q20 -8 49 -8t47 14t32 62.5t17 134.5l14 413h447v-272h145q117 0 180 -57t63 -162zM877 218q0 56 -33 88t-92 32h-138v-236h140q123 0 123 116z" />
    <glyph glyph-name="afii10059" unicode="&#x40a;" horiz-adv-x="1035" 
d="M482 338h-284v-338h-125v712h125v-271h284v271h125v-272h152q117 0 180 -57t63 -162q0 -106 -63.5 -163.5t-179.5 -57.5h-277v338zM877 218q0 56 -33 88t-92 32h-145v-236h147q123 0 123 116z" />
    <glyph glyph-name="afii10060" unicode="&#x40b;" horiz-adv-x="778" 
d="M492 442q62 0 109.5 -15.5t73 -38t41.5 -53.5t21 -56.5t5 -53.5v-225h-125v187q0 24 -1 38t-9 37t-22 36t-43 23t-70 10q-65 0 -133 -11v-320h-125v604h-206v108h578v-108h-247v-176q94 14 153 14z" />
    <glyph glyph-name="afii10061" unicode="&#x40c;" horiz-adv-x="685" 
d="M671 712l-285 -284l303 -428h-155l-234 341l-102 -102v-239h-124v712h124v-323l315 323h158zM491 900l-135 -143h-82l85 143h132z" />
    <glyph glyph-name="uni040D.IGraveCyrillic" unicode="&#x40d;" horiz-adv-x="722" 
d="M73 714h125v-532l303 532h147v-714h-125v536l-307 -536h-143v714zM344 929l91 -143h-83l-142 143h134z" />
    <glyph glyph-name="afii10062" unicode="&#x40e;" horiz-adv-x="611" 
d="M241 200l-246 512h138l172 -382l176 382h135l-277 -567q-43 -88 -92 -125t-111 -37q-44 0 -84 18v105q29 -18 80 -18q32 0 54 25.5t54 85.5zM473 892q-8 -72 -48 -106.5t-116 -34.5t-116 34.5t-48 106.5h58q19 -76 106 -76t106 76h58z" />
    <glyph glyph-name="afii10145" unicode="&#x40f;" horiz-adv-x="722" 
d="M524 108v604h125v-712h-226v-177h-125v177h-225v712h125v-604h326z" />
    <glyph glyph-name="afii10017" unicode="&#x410;" horiz-adv-x="667" 
d="M400 713l275 -713h-134l-68 189h-282l-70 -189h-129l275 713h133zM440 283l-106 300l-111 -300h217z" />
    <glyph glyph-name="afii10018" unicode="&#x411;" horiz-adv-x="704" 
d="M657 221q0 -106 -63.5 -163.5t-179.5 -57.5h-338v712h524v-108h-399v-164h213q117 0 180 -57t63 -162zM532 218q0 56 -33 88t-92 32h-206v-236h208q123 0 123 116z" />
    <glyph glyph-name="afii10019" unicode="&#x412;" horiz-adv-x="704" 
d="M74 712h325q112 0 171.5 -48.5t59.5 -130.5q0 -51 -28 -91.5t-74 -58.5q62 -15 98 -60t36 -113q0 -94 -62.5 -152t-162.5 -58h-363v712zM196 611v-196h170q72 0 106 22.5t34 75.5q0 60 -35.5 79t-100.5 19h-174zM196 325v-223h187q72 0 113 24t41 87q0 35 -12.5 58.5
t-36 34.5t-48.5 15t-59 4h-185z" />
    <glyph glyph-name="afii10020" unicode="&#x413;" horiz-adv-x="563" 
d="M201 0h-125v712h483v-108h-358v-604z" />
    <glyph glyph-name="afii10021" unicode="&#x414;" horiz-adv-x="722" 
d="M711 -177h-121v177h-464v-177h-121v285h69q41 72 67 210t26 284v110h464v-604h80v-285zM506 108v496h-217v-43q0 -129 -23.5 -256.5t-57.5 -196.5h298z" />
    <glyph glyph-name="afii10022" unicode="&#x415;" horiz-adv-x="630" 
d="M587 712v-105h-389v-189h361v-101h-361v-210h395v-107h-519v712h513z" />
    <glyph glyph-name="afii10024" unicode="&#x416;" horiz-adv-x="1043" 
d="M382 320l-233 -320h-156l308 410l-274 302h154l278 -320v320h125v-320l278 320h154l-274 -302l308 -410h-156l-233 320l-77 -86v-234h-125v234z" />
    <glyph glyph-name="afii10025" unicode="&#x417;" horiz-adv-x="648" 
d="M604 206q0 -36 -15 -72.5t-45.5 -71t-85.5 -56.5t-126 -22q-134 0 -217 64t-83 188h123q0 -78 51 -115.5t133 -37.5q68 0 104 32t36 93q0 56 -35.5 85t-97.5 29h-87v97h87q49 0 81.5 31t32.5 80q0 47 -33 73.5t-93 26.5q-144 0 -155 -125h-119q4 114 77 169t189 55
q113 0 185 -48.5t72 -144.5q0 -54 -35 -98t-79 -55v-3q60 -12 97.5 -59.5t37.5 -114.5z" />
    <glyph glyph-name="afii10026" unicode="&#x418;" horiz-adv-x="722" 
d="M73 0v712h125v-546l306 546h145v-712h-125v546l-306 -546h-145z" />
    <glyph glyph-name="afii10027" unicode="&#x419;" horiz-adv-x="722" 
d="M525 892q-8 -72 -48 -106.5t-116 -34.5t-116 34.5t-48 106.5h58q19 -76 106 -76t106 76h58zM73 0v712h125v-546l306 546h145v-712h-125v546l-306 -546h-145z" />
    <glyph glyph-name="afii10028" unicode="&#x41a;" horiz-adv-x="685" 
d="M671 712l-285 -284l303 -428h-155l-234 341l-102 -102v-239h-124v712h124v-323l315 323h158z" />
    <glyph glyph-name="afii10029" unicode="&#x41b;" horiz-adv-x="704" 
d="M632 0h-125v604h-220l-13 -339q-6 -142 -57.5 -210t-133.5 -68q-36 0 -75 13v96q20 -8 49 -8t47 14t32 62.5t17 134.5l14 413h465v-712z" />
    <glyph glyph-name="afii10030" unicode="&#x41c;" horiz-adv-x="889" 
d="M815 712v-712h-119v549l-198 -549h-102l-203 549v-549h-118v712h175l199 -557l192 557h174z" />
    <glyph glyph-name="afii10031" unicode="&#x41d;" horiz-adv-x="722" 
d="M649 712v-712h-125v320h-326v-320h-125v712h125v-283h326v283h125z" />
    <glyph glyph-name="afii10032" unicode="&#x41e;" horiz-adv-x="760" 
d="M382 729q151 0 245.5 -103.5t94.5 -269.5t-95 -269.5t-247 -103.5q-153 0 -247.5 103t-94.5 270q0 162 92.5 267.5t251.5 105.5zM380 624q-98 0 -157 -72.5t-59 -193.5q0 -124 58.5 -197t159.5 -73q97 0 155.5 73.5t58.5 195.5t-58.5 194.5t-157.5 72.5z" />
    <glyph glyph-name="afii10033" unicode="&#x41f;" horiz-adv-x="722" 
d="M649 712v-712h-125v604h-326v-604h-125v712h576z" />
    <glyph glyph-name="afii10034" unicode="&#x420;" horiz-adv-x="667" 
d="M77 712h309q115 0 181.5 -54.5t66.5 -162.5q0 -102 -62 -161.5t-169 -59.5h-201v-274h-125v712zM202 608v-233h174q136 0 136 117q0 116 -147 116h-163z" />
    <glyph glyph-name="afii10035" unicode="&#x421;" horiz-adv-x="722" 
d="M685 271q-10 -131 -93.5 -209.5t-216.5 -78.5q-151 0 -242 102t-91 271q0 102 39 185.5t117 135t183 51.5q113 0 197 -62.5t101 -180.5h-124q-13 64 -60 100.5t-116 36.5q-71 0 -120.5 -40t-70 -98.5t-20.5 -127.5q0 -52 12 -98t36 -84.5t65.5 -61.5t96.5 -23
q159 0 182 182h125z" />
    <glyph glyph-name="afii10036" unicode="&#x422;" horiz-adv-x="593" 
d="M586 712v-108h-227v-604h-125v604h-227v108h579z" />
    <glyph glyph-name="afii10037" unicode="&#x423;" horiz-adv-x="611" 
d="M241 200l-246 512h138l172 -382l176 382h135l-277 -567q-43 -88 -92 -125t-111 -37q-44 0 -84 18v105q29 -18 80 -18q32 0 54 25t54 85z" />
    <glyph glyph-name="afii10038" unicode="&#x424;" horiz-adv-x="807" 
d="M773 359q0 -131 -91 -204t-216 -75v-80h-125v80q-79 2 -147 31.5t-114 94t-46 153.5q0 130 88.5 205t218.5 79v69h125v-69q132 -5 219.5 -79.5t87.5 -204.5zM648 359q0 157 -182 176v-347q88 11 135 50t47 121zM341 188v347q-182 -19 -182 -176q0 -82 47 -121t135 -50z
" />
    <glyph glyph-name="afii10039" unicode="&#x425;" horiz-adv-x="648" 
d="M-6 0l254 369l-236 343h149l162 -252l169 252h140l-236 -343l253 -369h-152l-178 272l-181 -272h-144z" />
    <glyph glyph-name="afii10040" unicode="&#x426;" horiz-adv-x="734" 
d="M646 108h78v-285h-121v177h-533v712h125v-604h326v604h125v-604z" />
    <glyph glyph-name="afii10041" unicode="&#x427;" horiz-adv-x="685" 
d="M487 312q-115 -20 -187 -20q-62 0 -109.5 15.5t-73 38t-41.5 53.5t-21 56.5t-5 53.5v203h125v-165q0 -24 1 -38t9 -37t22 -36t43 -23t70 -10q82 0 167 17v292h125v-712h-125v312z" />
    <glyph glyph-name="afii10042" unicode="&#x428;" horiz-adv-x="1073" 
d="M73 0v712h125v-604h276v604h125v-604h276v604h125v-712h-927z" />
    <glyph glyph-name="afii10043" unicode="&#x429;" horiz-adv-x="1085" 
d="M70 0v712h125v-604h276v604h125v-604h276v604h125v-604h78v-285h-121v177h-884z" />
    <glyph glyph-name="afii10044" unicode="&#x42a;" horiz-adv-x="813" 
d="M780 221q0 -106 -63.5 -163.5t-179.5 -57.5h-315v604h-214v108h339v-272h190q117 0 180 -57t63 -162zM655 218q0 56 -33 88t-92 32h-183v-236h185q123 0 123 116z" />
    <glyph glyph-name="afii10045" unicode="&#x42b;" horiz-adv-x="896" 
d="M614 221q0 -106 -63.5 -163.5t-179.5 -57.5h-295v712h125v-272h170q117 0 180 -57t63 -162zM489 218q0 56 -33 88t-92 32h-163v-236h165q123 0 123 116zM698 712h125v-712h-125v712z" />
    <glyph glyph-name="afii10046" unicode="&#x42c;" horiz-adv-x="667" 
d="M634 221q0 -106 -63.5 -163.5t-179.5 -57.5h-315v712h125v-272h190q117 0 180 -57t63 -162zM509 218q0 56 -33 88t-92 32h-183v-236h185q123 0 123 116z" />
    <glyph glyph-name="afii10047" unicode="&#x42d;" horiz-adv-x="722" 
d="M680 356q0 -169 -91 -271t-242 -102q-124 0 -206 69.5t-100 186.5h126q34 -150 177 -150q96 0 148 65t60 163h-304v101h301q-14 89 -65.5 146.5t-140.5 57.5q-65 0 -111 -33t-62 -91h-125q21 112 103.5 171t192.5 59q105 0 183 -51.5t117 -135t39 -185.5z" />
    <glyph glyph-name="afii10048" unicode="&#x42e;" horiz-adv-x="1018" 
d="M653 729q142 0 234.5 -104t92.5 -269t-93 -269t-236 -104q-137 0 -227.5 93.5t-100.5 245.5h-125v-322h-125v712h125v-283h129q21 134 107.5 217t218.5 83zM651 624q-90 0 -146.5 -73t-56.5 -193q0 -123 57 -196.5t148 -73.5q89 0 145 74t56 195q0 122 -55.5 194.5
t-147.5 72.5z" />
    <glyph glyph-name="afii10049" unicode="&#x42f;" horiz-adv-x="685" 
d="M612 0h-125v294h-142l-202 -294h-156l219 306q-88 27 -121 80t-33 129q0 90 62 143.5t174 53.5h324v-712zM487 389v221h-186q-64 0 -94 -25.5t-30 -80.5q0 -115 122 -115h188z" />
    <glyph glyph-name="afii10065" unicode="&#x430;" 
d="M55 357q18 175 226 175q97 0 154.5 -38t57.5 -118v-262q0 -22 5.5 -30t21.5 -8q12 0 26 2v-80q-44 -11 -74 -11q-73 0 -84 62q-65 -62 -181 -62q-80 0 -127 41.5t-47 112.5q0 22 5 41t11.5 33t21 26t24 20t31 15t32 10.5t36.5 7.5t34.5 5.5t35.5 4.5q61 8 83 13.5
t30 16.5q7 8 7 37q0 78 -106 78q-56 0 -82 -21t-33 -71h-108zM383 259q-13 -7 -30 -12.5t-27.5 -7t-33 -4.5t-29.5 -4q-21 -3 -33 -5.5t-29.5 -8.5t-27 -14.5t-16.5 -23t-7 -34.5q0 -37 24.5 -57t68.5 -20q76 0 117 41q23 23 23 89v61z" />
    <glyph glyph-name="afii10066" unicode="&#x431;" horiz-adv-x="593" 
d="M556 252q0 -121 -68 -193.5t-181 -72.5q-174 0 -234 143q-26 60 -26 163q0 203 65 303q34 52 83 77.5t124 30.5q9 1 24.5 2t22 1.5t17 2t15 3t10.5 4t9 6.5t6 9h114q-3 -18 -8.5 -33t-11.5 -26t-17.5 -20t-19 -15t-23.5 -11t-25 -7.5t-29 -5t-29.5 -3.5t-33 -2.5
t-33.5 -2.5q-138 -11 -181 -194h3q33 53 77 79.5t116 26.5q100 0 167 -73t67 -192zM442 252q0 79 -38.5 127t-101.5 48t-101.5 -47.5t-38.5 -127.5t38.5 -128t101.5 -48t101.5 48t38.5 128z" />
    <glyph glyph-name="afii10067" unicode="&#x432;" 
d="M521 146q0 -70 -49.5 -108t-140.5 -38h-271v516h285q72 0 112.5 -33t40.5 -93q0 -41 -18 -66t-56 -43v-2q97 -25 97 -133zM331 228h-157v-142h157q77 0 77 70q0 34 -20 53t-57 19zM316 430h-142v-119h145q66 0 66 62q0 57 -69 57z" />
    <glyph glyph-name="afii10068" unicode="&#x433;" horiz-adv-x="426" 
d="M421 426h-247v-426h-114v516h361v-90z" />
    <glyph glyph-name="afii10069" unicode="&#x434;" horiz-adv-x="600" 
d="M590 -164h-108v164h-367v-164h-108v254h65q61 143 61 368v58h388v-426h69v-254zM409 90v338h-167v-35q0 -81 -17 -169.5t-36 -133.5h220z" />
    <glyph glyph-name="afii10070" unicode="&#x435;" 
d="M522 161q-19 -84 -82.5 -131t-151.5 -47q-117 0 -185.5 75.5t-68.5 193.5q0 121 70.5 200t179.5 79q113 0 179 -77.5t66 -211.5v-12h-381q2 -78 39 -120.5t103 -42.5q47 0 76.5 22.5t46.5 71.5h109zM415 306q-5 65 -40.5 102.5t-91.5 37.5t-90.5 -36t-42.5 -104h265z" />
    <glyph glyph-name="afii10072" unicode="&#x436;" horiz-adv-x="778" 
d="M787 0h-137l-158 224l-48 -54v-170h-110v170l-48 54l-158 -224h-137l222 296l-197 220h138l177 -218h3v218h110v-218h3l177 218h138l-197 -220z" />
    <glyph glyph-name="afii10073" unicode="&#x437;" horiz-adv-x="519" 
d="M482 153q0 -79 -65.5 -123t-154.5 -44q-110 0 -169.5 46.5t-63.5 128.5h115q12 -87 117 -87q49 0 78 20.5t29 56.5q0 76 -101 76h-64v84h46q103 0 103 68q0 65 -94 65q-82 0 -99 -77h-115q15 164 225 164q87 0 141.5 -34t54.5 -105q0 -42 -24.5 -72t-58.5 -37v-2
q41 -8 70.5 -40.5t29.5 -87.5z" />
    <glyph glyph-name="afii10074" unicode="&#x438;" horiz-adv-x="574" 
d="M204 0h-144v516h114v-376h3l193 376h144v-516h-114v376h-3z" />
    <glyph glyph-name="afii10075" unicode="&#x439;" horiz-adv-x="574" 
d="M451 729q-8 -72 -48 -106.5t-116 -34.5t-116 34.5t-48 106.5h58q19 -76 106 -76t106 76h58zM204 0h-144v516h114v-376h3l193 376h144v-516h-114v376h-3z" />
    <glyph glyph-name="afii10076" unicode="&#x43a;" horiz-adv-x="537" 
d="M542 0h-138l-162 231l-68 -71v-160h-114v516h114v-229l206 229h139l-201 -207z" />
    <glyph glyph-name="afii10077" unicode="&#x43b;" horiz-adv-x="574" 
d="M516 0h-114v426h-158l-7 -226q-3 -101 -43.5 -156.5t-110.5 -55.5q-43 0 -70 11v89q10 -5 41 -5q68 0 72 128l9 305h381v-516z" />
    <glyph glyph-name="afii10078" unicode="&#x43c;" horiz-adv-x="704" 
d="M170 0h-110v516h150l144 -410h2l139 410h150v-516h-110v343h-2l-123 -343h-115l-123 343h-2v-343z" />
    <glyph glyph-name="afii10079" unicode="&#x43d;" horiz-adv-x="574" 
d="M174 0h-114v516h114v-202h226v202h114v-516h-114v224h-226v-224z" />
    <glyph glyph-name="afii10080" unicode="&#x43e;" horiz-adv-x="593" 
d="M299 531q118 0 188 -74t70 -199q0 -126 -69.5 -200t-188.5 -74q-121 0 -192 74t-71 200q0 125 71.5 199t191.5 74zM297 441q-68 0 -107 -49t-39 -134q0 -87 39 -136t108 -49q67 0 105.5 49.5t38.5 136.5q0 85 -38.5 133.5t-106.5 48.5z" />
    <glyph glyph-name="afii10081" unicode="&#x43f;" horiz-adv-x="574" 
d="M174 0h-114v516h454v-516h-114v426h-226v-426z" />
    <glyph glyph-name="afii10082" unicode="&#x440;" horiz-adv-x="611" 
d="M169 516v-69q52 84 168 84q107 0 171 -75t64 -200q0 -122 -62.5 -195.5t-166.5 -73.5q-110 0 -168 81v-259h-113v707h107zM314 439q-67 0 -105 -48t-38 -133q0 -84 38.5 -132t106.5 -48q65 0 103 48t38 130q0 84 -38.5 133.5t-104.5 49.5z" />
    <glyph glyph-name="afii10083" unicode="&#x441;" 
d="M528 195q-12 -95 -76 -151.5t-161 -56.5q-116 0 -185 73.5t-69 192.5q0 128 69.5 203.5t187.5 75.5q99 0 159.5 -50t70.5 -139h-113q-10 49 -40 75t-76 26q-66 0 -104 -49.5t-38 -135.5t36.5 -134t101.5 -48q51 0 83.5 30.5t41.5 87.5h112z" />
    <glyph glyph-name="afii10084" unicode="&#x442;" horiz-adv-x="464" 
d="M459 426h-170v-426h-114v426h-170v90h454v-90z" />
    <glyph glyph-name="afii10085" unicode="&#x443;" horiz-adv-x="519" 
d="M515 516l-191 -506q-3 -7 -11 -29.5t-11 -30.5t-11.5 -28t-13.5 -28l-15 -24q-10 -16 -18.5 -23t-21 -17.5t-25.5 -15t-29.5 -8t-35.5 -3.5q-32 0 -79 6v96q36 -7 60 -7q12 0 22 3.5t18 12t14 16t11.5 21t8.5 21t8 23.5t6 20l-198 501h125l138 -380l130 380h119z" />
    <glyph glyph-name="afii10086" unicode="&#x444;" horiz-adv-x="826" 
d="M790 266q0 -77 -19.5 -137.5t-68.5 -101.5t-122 -41q-28 0 -60 14.5t-47 33.5h-3v-225h-114v225h-3q-15 -19 -47 -33.5t-60 -14.5q-73 0 -122 41t-68.5 101.5t-19.5 137.5q0 122 55 193.5t148 71.5q32 0 65.5 -16t48.5 -37h3v234h114v-234h3q15 21 48.5 37t65.5 16
q93 0 148 -71.5t55 -193.5zM676 264q0 179 -113 179q-30 0 -56.5 -14.5t-36.5 -46.5v-251q5 -24 29 -40.5t59 -16.5q63 0 90.5 54t27.5 136zM356 131v251q-10 32 -36.5 46.5t-56.5 14.5q-113 0 -113 -179q0 -82 27.5 -136t90.5 -54q35 0 59 16.5t29 40.5z" />
    <glyph glyph-name="afii10087" unicode="&#x445;" horiz-adv-x="537" 
d="M198 271l-179 245h138l108 -159l113 159h132l-175 -239l197 -277h-137l-131 190l-127 -190h-134z" />
    <glyph glyph-name="afii10088" unicode="&#x446;" horiz-adv-x="590" 
d="M514 90h69v-254h-110v164h-413v516h114v-426h226v426h114v-426z" />
    <glyph glyph-name="afii10089" unicode="&#x447;" horiz-adv-x="537" 
d="M367 219q-86 -27 -168 -27q-78 0 -120.5 39.5t-42.5 114.5v170h114v-130q0 -98 94 -98q64 0 123 25v203h114v-516h-114v219z" />
    <glyph glyph-name="afii10090" unicode="&#x448;" horiz-adv-x="814" 
d="M60 0v516h114v-426h176v426h114v-426h176v426h114v-516h-694z" />
    <glyph glyph-name="afii10091" unicode="&#x449;" horiz-adv-x="830" 
d="M60 0v516h114v-426h176v426h114v-426h176v426h114v-426h69v-254h-110v164h-653z" />
    <glyph glyph-name="afii10092" unicode="&#x44a;" horiz-adv-x="630" 
d="M600 165q0 -77 -46 -121t-129 -44h-272v426h-147v90h261v-187h157q84 0 130 -43.5t46 -120.5zM486 163q0 35 -20 56t-56 21h-143v-151h145q37 0 55.5 20.5t18.5 53.5z" />
    <glyph glyph-name="afii10093" unicode="&#x44b;" horiz-adv-x="722" 
d="M553 516h114v-516h-114v516zM482 165q0 -77 -46 -121t-129 -44h-252v516h114v-187h137q84 0 130 -43.5t46 -120.5zM368 163q0 35 -20 56t-56 21h-123v-151h125q37 0 55.5 20.5t18.5 53.5z" />
    <glyph glyph-name="afii10094" unicode="&#x44c;" horiz-adv-x="537" 
d="M507 165q0 -77 -46 -121t-129 -44h-272v516h114v-187h157q84 0 130 -43.5t46 -120.5zM393 163q0 35 -20 56t-56 21h-143v-151h145q37 0 55.5 20.5t18.5 53.5z" />
    <glyph glyph-name="afii10095" unicode="&#x44d;" 
d="M520 253q0 -119 -69 -192.5t-185 -73.5q-91 0 -154 51t-80 138h113q25 -99 121 -99q58 0 93.5 39t42.5 109h-192v80h191q-10 66 -46 102.5t-93 36.5q-88 0 -113 -87h-114q14 83 73.5 129t154.5 46q118 0 187.5 -75.5t69.5 -203.5z" />
    <glyph glyph-name="afii10096" unicode="&#x44e;" horiz-adv-x="802" 
d="M518 531q114 0 181 -74t67 -199q0 -126 -67 -200t-181 -74q-108 0 -175.5 65t-75.5 177h-93v-226h-114v516h114v-204h95q14 102 80.5 160.5t168.5 58.5zM516 441q-64 0 -100 -49t-36 -134q0 -87 36 -136t101 -49q63 0 98.5 49.5t35.5 136.5q0 85 -35.5 133.5t-99.5 48.5z
" />
    <glyph glyph-name="afii10097" unicode="&#x44f;" 
d="M496 0h-114v208h-97l-159 -208h-134l172 221q-63 20 -87 58.5t-24 93.5q0 68 44 105.5t126 37.5h273v-516zM382 291v138h-138q-77 0 -77 -66q0 -72 76 -72h139z" />
    <glyph glyph-name="uni0450.eGraveCyrillic" unicode="&#x450;" 
d="M415 304q-2 27 -11.5 52t-26 43.5t-40 30t-52.5 11.5q-30 0 -54.5 -10.5t-42 -29t-28 -43.5t-11.5 -54h266zM149 229q0 -30 8.5 -58t25.5 -49t43 -33.5t62 -12.5q50 0 80.5 21.5t45.5 64.5h108q-9 -42 -31 -75t-53 -55.5t-69.5 -34t-80.5 -11.5q-61 0 -108 20t-79.5 56
t-49 86t-16.5 110q0 55 17.5 104.5t50 87t78.5 59.5t104 22q61 0 109.5 -25.5t80.5 -67.5t46.5 -96.5t7.5 -112.5h-380zM278 732l91 -143h-83l-142 143h134z" />
    <glyph glyph-name="afii10071" unicode="&#x451;" 
d="M433 712v-109h-111v109h111zM234 712v-109h-111v109h111zM522 161q-19 -84 -82.5 -131t-151.5 -47q-117 0 -185.5 75.5t-68.5 193.5q0 121 70.5 200t179.5 79q113 0 179 -77.5t66 -211.5v-12h-381q2 -78 39 -120.5t103 -42.5q47 0 76.5 22.5t46.5 71.5h109zM415 306
q-5 65 -40.5 102.5t-91.5 37.5t-90.5 -36t-42.5 -104h265z" />
    <glyph glyph-name="afii10099" unicode="&#x452;" horiz-adv-x="574" 
d="M521 103q0 -122 -86 -205.5t-208 -88.5v99q83 10 131.5 63t48.5 131v63q0 116 -99 116q-56 0 -91.5 -38t-35.5 -98v-145h-114v431h-52v85h52v196h114v-196h227v-85h-227v-142h2q54 82 160 82q83 0 130.5 -47t47.5 -129v-92z" />
    <glyph glyph-name="afii10100" unicode="&#x453;" horiz-adv-x="426" 
d="M421 426h-247v-426h-114v516h361v-90zM354 727l-134 -143h-82l85 143h131z" />
    <glyph glyph-name="afii10101" unicode="&#x454;" 
d="M525 176q-17 -87 -80 -138t-154 -51q-116 0 -185 73.5t-69 192.5q0 128 69.5 203.5t187.5 75.5q95 0 154.5 -46t73.5 -129h-114q-25 87 -113 87q-57 0 -93 -36.5t-46 -102.5h196v-80h-197q7 -70 42.5 -109t93.5 -39q96 0 121 99h113z" />
    <glyph glyph-name="afii10102" unicode="&#x455;" horiz-adv-x="519" 
d="M469 366h-109q-10 82 -112 82q-44 0 -68 -16t-24 -44q0 -9 1.5 -16t6 -12.5t8 -9.5t12.5 -8t14.5 -6.5t18.5 -6t20.5 -5.5t24.5 -5.5t26 -5.5q39 -9 56.5 -13.5t51 -18t49.5 -28t29.5 -40t13.5 -58.5q0 -78 -61 -124t-164 -46q-110 0 -169 46t-63 134h109q9 -97 125 -97
q50 0 80.5 20.5t30.5 54.5q0 17 -7.5 29t-24.5 20.5t-32.5 13t-41.5 10.5l-6 1q-2 1 -5 1.5t-6 1.5q-110 27 -140 42q-71 34 -71 113q0 73 56 114.5t155 41.5q95 0 155.5 -41t60.5 -124z" />
    <glyph glyph-name="afii10103" unicode="&#x456;" horiz-adv-x="241" 
d="M177 715v-112h-114v112h114zM177 516v-516h-114v516h114z" />
    <glyph glyph-name="afii10104" unicode="&#x457;" horiz-adv-x="241" 
d="M177 516v-516h-114v516h114zM276 712v-109h-112v109h112zM77 712v-109h-112v109h112z" />
    <glyph glyph-name="afii10105" unicode="&#x458;" horiz-adv-x="241" 
d="M181 516v-543q0 -91 -33.5 -131t-118.5 -40q-15 0 -48 3v93q26 -2 27 -2q32 0 45.5 9t13.5 38v573h114zM181 716v-113h-114v113h114z" />
    <glyph glyph-name="afii10106" unicode="&#x459;" horiz-adv-x="817" 
d="M787 160q0 -77 -45.5 -118.5t-129.5 -41.5h-236v426h-135l-7 -226q-3 -101 -43.5 -156.5t-110.5 -55.5q-42 0 -70 11v89q10 -5 41 -5q68 0 72 128l9 305h358v-197h121q85 0 130.5 -41.5t45.5 -117.5zM673 158q0 34 -20 53t-56 19h-107v-141h109q74 0 74 69z" />
    <glyph glyph-name="afii10107" unicode="&#x45a;" horiz-adv-x="817" 
d="M787 160q0 -77 -45.5 -118.5t-129.5 -41.5h-242v230h-196v-230h-114v516h114v-196h196v196h114v-197h127q85 0 130.5 -41.5t45.5 -117.5zM673 158q0 34 -20 53t-56 19h-113v-141h115q74 0 74 69z" />
    <glyph glyph-name="afii10108" unicode="&#x45b;" horiz-adv-x="574" 
d="M521 0h-114v165q0 116 -99 116q-56 0 -91.5 -38t-35.5 -98v-145h-114v431h-52v85h52v196h114v-196h227v-85h-227v-142h2q54 82 160 82q83 0 130.5 -47t47.5 -129v-195z" />
    <glyph glyph-name="afii10109" unicode="&#x45c;" horiz-adv-x="537" 
d="M417 727l-134 -143h-82l85 143h131zM542 0h-138l-162 231l-68 -71v-160h-114v516h114v-229l206 229h139l-201 -207z" />
    <glyph glyph-name="uni045D.iGraveCyrillic" unicode="&#x45d;" horiz-adv-x="611" 
d="M63 517h114v-355h2l227 355h141v-517h-114v358h-2l-232 -358h-136v517zM287 732l91 -143h-83l-142 143h134z" />
    <glyph glyph-name="afii10110" unicode="&#x45e;" horiz-adv-x="519" 
d="M429 729q-8 -72 -48 -106.5t-116 -34.5t-116 34.5t-48 106.5h58q19 -76 106 -76t106 76h58zM515 516l-191 -506q-3 -8 -11 -29.5t-11.5 -30t-11.5 -28t-13 -28.5t-15 -24t-18.5 -22.5t-21 -18t-25.5 -15t-29.5 -8t-35.5 -3.5q-32 0 -79 6v96q36 -7 60 -7q12 0 22 3.5
t18 12t14 16t11.5 21t8.5 21t8 23.5t6 20l-198 501h125l138 -380l130 380h119z" />
    <glyph glyph-name="afii10193" unicode="&#x45f;" horiz-adv-x="574" 
d="M400 90v426h114v-516h-171v-164h-114v164h-169v516h114v-426h226z" />
    <glyph glyph-name="uni0462.SemisoftSignCyrillic" unicode="&#x462;" horiz-adv-x="746" 
d="M155 606h-147v108h147v132h125v-132h159v-108h-159v-166h190q76 0 124 -21.5t74 -54.5t35.5 -71.5t9.5 -71.5t-9.5 -72t-35.5 -72t-74 -55t-124 -22h-315v606zM280 102h185q25 0 47 5t39 18.5t27 36.5t10 58q0 34 -11.5 56.5t-30 36t-40.5 19.5t-43 6h-183v-236z" />
    <glyph glyph-name="uni0463.semisoftSignCyrillic" unicode="&#x463;" horiz-adv-x="640" 
d="M158 517v113h114v-113h152v-85h-152v-113h152q58 0 93.5 -16t55.5 -39.5t27 -51.5t7 -52t-7 -52t-27 -52t-55.5 -40t-93.5 -16h-266v432h-148v85h148zM272 85h147q30 0 52 18t22 58t-22 55t-52 15h-147v-146z" />
    <glyph glyph-name="uni046A.YusCyrillic" unicode="&#x46a;" horiz-adv-x="970" 
d="M547 0h-125v343h-81q-72 0 -107.5 -22.5t-35.5 -83.5v-237h-125v267q0 44 17.5 77t48.5 55t74.5 33t95.5 11h48l-185 271h625l-185 -271h48q52 0 95.5 -11t74.5 -33t48.5 -55t17.5 -77v-267h-125v237q0 61 -35.5 83.5t-107.5 22.5h-81v-343zM484 439l107 172h-213z" />
    <glyph glyph-name="uni046B.yusCyrillic" unicode="&#x46b;" horiz-adv-x="786" 
d="M448 0h-111v244h-59q-29 0 -48.5 -3t-31 -11t-16.5 -22t-5 -36v-172h-114v193q0 32 14 57.5t38.5 43t59.5 27t77 9.5h39l-148 187h499l-148 -187h39q42 0 77 -9.5t59.5 -27t38.5 -43t14 -57.5v-193h-114v172q0 22 -5 36t-16.5 22t-31 11t-48.5 3h-59v-244zM392 334l66 98
h-131z" />
    <glyph glyph-name="uni0472.FitaCyrillic" unicode="&#x472;" horiz-adv-x="760" 
d="M380 731q80 0 143.5 -30t107.5 -81t67.5 -119t23.5 -144q0 -77 -23.5 -145t-67.5 -119t-107.5 -80.5t-143.5 -29.5t-143.5 29.5t-107.5 80.5t-67.5 119t-23.5 145q0 76 23.5 144t67.5 119t107.5 81t143.5 30zM169 285q21 -95 72.5 -147.5t138.5 -52.5q51 0 90.5 19.5
t66.5 52.5t41.5 76t16.5 90q-29 -23 -52.5 -31.5t-47.5 -8.5q-31 0 -57.5 9.5t-53.5 21.5t-57 21.5t-68 9.5q-26 0 -47 -14.5t-43 -45.5zM380 629q-52 0 -89.5 -18t-63 -49t-40.5 -71.5t-22 -86.5q27 17 49.5 25.5t50.5 8.5t59.5 -9.5t62.5 -21.5t59.5 -21.5t49.5 -9.5
q16 0 30 6t26 14.5t21.5 19t15.5 19.5q-6 40 -22.5 75.5t-43 61.5t-62.5 41.5t-81 15.5z" />
    <glyph glyph-name="uni0473.fitaCyrillic" unicode="&#x473;" horiz-adv-x="593" 
d="M297 -14q-62 0 -110.5 20.5t-82 56.5t-51 86t-17.5 110q0 59 17.5 109t51 86t82 56.5t110.5 20.5t110.5 -20.5t82 -56.5t51 -86t17.5 -109q0 -60 -17.5 -110t-51 -86t-82 -56.5t-110.5 -20.5zM297 76q35 0 61 13.5t44 36t28 51t13 59.5q-14 -15 -31 -25t-40 -10
q-22 0 -40 8t-36.5 17t-38 17t-44.5 8q-23 0 -36.5 -14t-21.5 -29q5 -27 16.5 -51t29 -42t41.5 -28.5t55 -10.5zM297 441q-32 0 -57 -11.5t-42.5 -30.5t-28.5 -44t-16 -53q12 11 27.5 17.5t35.5 6.5q19 0 40 -8t42 -17t40.5 -17t34.5 -8q21 0 36 15t27 32q-13 49 -47 83.5
t-92 34.5z" />
    <glyph glyph-name="uni0474.IzhitsaCyrillic" unicode="&#x474;" horiz-adv-x="671" 
d="M646 606q-34 0 -56.5 -18.5t-33.5 -50.5l-184 -537h-139l-238 714h130l179 -565h2l126 388q10 30 24 61t36.5 57t56 42.5t82.5 16.5q19 0 31.5 -1t24.5 -3v-108q-12 2 -21 3t-20 1z" />
    <glyph glyph-name="uni0475.izhitsaCyrillic" unicode="&#x475;" horiz-adv-x="564" 
d="M9 517h124l131 -397h2l90 284q8 24 18.5 45.5t29 37.5t48.5 25t77 9q16 0 27 -0.5t22 -2.5v-86q-11 2 -19.5 2.5t-24.5 0.5q-53 0 -77 -66l-132 -369h-128z" />
    <glyph glyph-name="uni048C.YatCyrillic" unicode="&#x48c;" horiz-adv-x="746" 
d="M155 606h-147v108h147v132h125v-132h159v-108h-159v-166h190q76 0 124 -21.5t74 -54.5t35.5 -71.5t9.5 -71.5t-9.5 -72t-35.5 -72t-74 -55t-124 -22h-315v606zM280 102h185q25 0 47 5t39 18.5t27 36.5t10 58q0 34 -11.5 56.5t-30 36t-40.5 19.5t-43 6h-183v-236z" />
    <glyph glyph-name="uni048D.yatCyrillic" unicode="&#x48d;" horiz-adv-x="640" 
d="M158 517v113h114v-113h152v-85h-152v-113h152q58 0 93.5 -16t55.5 -39.5t27 -51.5t7 -52t-7 -52t-27 -52t-55.5 -40t-93.5 -16h-266v432h-148v85h148zM272 85h147q30 0 52 18t22 58t-22 55t-52 15h-147v-146z" />
    <glyph glyph-name="afii10050" unicode="&#x490;" horiz-adv-x="563" 
d="M559 869v-265h-358v-604h-125v712h358v157h125z" />
    <glyph glyph-name="afii10098" unicode="&#x491;" horiz-adv-x="426" 
d="M423 670v-244h-249v-426h-114v516h249v154h114z" />
    <glyph glyph-name="uni0492.GheStrokeCyrillic" unicode="&#x492;" horiz-adv-x="603" 
d="M211 298v-298h-125v298h-86v92h86v324h493v-108h-368v-216h128v-92h-128z" />
    <glyph glyph-name="uni0493.gheStrokeCyrillic" unicode="&#x493;" horiz-adv-x="433" 
d="M187 206v-206h-114v206h-73v88h73v223h351v-85h-237v-138h100v-88h-100z" />
    <glyph glyph-name="uni0496.ZheDescenderCyrillic" unicode="&#x496;" horiz-adv-x="1130" 
d="M484 240l-102 101l-234 -341h-156l305 429l-285 285h154l318 -325v325h125v-325l318 325h154l-285 -285l228 -321h96v-285h-125v177h-50l-234 341l-102 -101v-240h-125v240z" />
    <glyph glyph-name="uni0497.zheDescenderCyrillic" unicode="&#x497;" horiz-adv-x="887" 
d="M360 185l-68 66l-158 -251h-139l217 327l-198 190h140l206 -209v209h114v-209l206 209h140l-198 -190l160 -242h95v-242h-105v157h-72l-158 251l-68 -66v-185h-114v185z" />
    <glyph glyph-name="uni0498.ZeDescenderCyrillic" unicode="&#x498;" horiz-adv-x="591" 
d="M201 -160q18 -8 33 -12t32 -4q10 0 21 1.5t20 6t14.5 12.5t5.5 21q0 19 -14.5 28.5t-31.5 9.5q-23 0 -39 -10l-22 19l53 72q-59 3 -102.5 22t-72 51.5t-42.5 77.5t-15 99h123q-2 -69 31 -109t102 -40q65 0 99 30.5t34 93.5q0 42 -11.5 66.5t-34.5 37t-57 15t-80 1.5v93
q79 -2 116.5 20.5t37.5 88.5q0 47 -28.5 72.5t-78.5 25.5q-30 0 -52.5 -11t-36.5 -30.5t-20.5 -45.5t-5.5 -56h-123q2 53 18.5 98t47 77.5t74.5 51t100 18.5q47 0 89 -12t73.5 -36t49.5 -60t18 -84q0 -55 -26 -95t-79 -59v-2q62 -12 98 -61t36 -119q0 -48 -17.5 -87.5
t-48.5 -67.5t-74 -44.5t-94 -19.5l-33 -43l1 -1q11 4 33 4q15 0 30 -4.5t27 -14t20 -23.5t8 -33q0 -25 -11 -42.5t-28 -28.5t-38.5 -16t-43.5 -5q-28 0 -54.5 5.5t-48.5 17.5z" />
    <glyph glyph-name="uni0499.zeDescenderCyrillic" unicode="&#x499;" horiz-adv-x="540" 
d="M176 -160q18 -8 33 -12t32 -4q10 0 21 1.5t20 6t14.5 12.5t5.5 21q0 19 -14.5 28.5t-31.5 9.5q-23 0 -39 -10l-22 19l56 75q-95 6 -152 47t-71 129h114q4 -26 15.5 -43t28 -27.5t37.5 -14.5t44 -4q55 0 89 19.5t34 62.5q0 36 -22.5 53t-71.5 17h-83v89h84q37 0 58.5 12.5
t21.5 47.5q0 38 -31 52.5t-80 14.5q-50 0 -74.5 -14t-31.5 -51h-108q14 80 69.5 117t146.5 37q44 0 84 -10t70 -29.5t47.5 -47.5t17.5 -65q0 -43 -21.5 -71t-59.5 -39v-2q42 -8 71 -40.5t29 -82.5q0 -42 -18 -71.5t-47.5 -48t-67 -28t-75.5 -10.5l-35 -45l1 -1q11 4 33 4
q15 0 30 -4.5t27 -14t20 -23.5t8 -33q0 -25 -11 -42.5t-28 -28.5t-38.5 -16t-43.5 -5q-28 0 -54.5 5.5t-48.5 17.5z" />
    <glyph glyph-name="uni049A.KaDescenderCyrillic" unicode="&#x49a;" horiz-adv-x="722" 
d="M76 714h125v-325l318 325h154l-285 -285l228 -321h96v-285h-125v177h-50l-234 341l-102 -101v-240h-125v714z" />
    <glyph glyph-name="uni049B.kaDescenderCyrillic" unicode="&#x49b;" horiz-adv-x="591" 
d="M64 517h114v-209l206 209h140l-198 -190l160 -242h95v-242h-105v157h-72l-158 251l-68 -66v-185h-114v517z" />
    <glyph glyph-name="uni049C.KaStrokeCyrillic" unicode="&#x49c;" horiz-adv-x="775" 
d="M261 623h77v-203h31l253 294h141l-284 -330l304 -384h-159l-254 328h-32v-211h-77v211h-60v-328h-125v714h125v-294h60v203z" />
    <glyph glyph-name="uni049D.kaStrokeCyrillic" unicode="&#x49d;" horiz-adv-x="629" 
d="M63 517h114v-202h43v126h82v-126h22l162 202h129l-200 -239l219 -278h-143l-173 232h-16v-155h-82v155h-43v-232h-114v517z" />
    <glyph glyph-name="uni04A0.KaBashkirCyrillic" unicode="&#x4a0;" horiz-adv-x="760" 
d="M280 389l318 325h154l-285 -285l305 -429h-156l-234 341l-102 -101v-240h-125v606h-147v108h272v-325z" />
    <glyph glyph-name="uni04A1.kaBashkirCyrillic" unicode="&#x4a1;" horiz-adv-x="638" 
d="M272 517v-209l206 209h140l-198 -190l217 -327h-139l-158 251l-68 -66v-185h-114v432h-148v85h262z" />
    <glyph glyph-name="uni04A2.EnDescenderCyrillic" unicode="&#x4a2;" horiz-adv-x="774" 
d="M73 714h125v-284h325v284h125v-606h116v-285h-125v177h-116v322h-325v-322h-125v714z" />
    <glyph glyph-name="uni04A3.enDescenderCyrillic" unicode="&#x4a3;" horiz-adv-x="650" 
d="M535 0h-101v218h-257v-218h-114v517h114v-214h257v214h114v-432h92v-242h-105v157z" />
    <glyph glyph-name="uni04A4.EnCyrillic_GheCyrillic" unicode="&#x4a4;" horiz-adv-x="803" 
d="M73 714h125v-284h325v284h272v-108h-147v-606h-125v322h-325v-322h-125v714z" />
    <glyph glyph-name="uni04A5.enCyrillic_gheCyrillic" unicode="&#x4a5;" horiz-adv-x="704" 
d="M63 517h114v-214h257v214h262v-85h-148v-432h-114v218h-257v-218h-114v517z" />
    <glyph glyph-name="uni04AA.EsDescenderCyrillic" unicode="&#x4aa;" horiz-adv-x="722" 
d="M684 272q-4 -63 -27 -116t-62 -91t-92 -59t-116 -22l-32 -42v-2q6 2 14 2.5t19 0.5q15 0 30 -4.5t27 -13.5t20 -23t8 -33q0 -26 -11 -43t-28 -27.5t-38.5 -15t-43.5 -4.5q-23 0 -53 5t-50 16l18 40q16 -5 32 -10.5t33 -5.5q10 0 21 1.5t20 6t14.5 12.5t5.5 21
q0 19 -14.5 28.5t-31.5 9.5q-22 0 -39 -10l-22 19l55 73q-71 7 -127.5 39t-95.5 82.5t-59.5 114.5t-20.5 136q0 76 23.5 144t67.5 119t107.5 81t143.5 30q60 0 113 -16.5t93.5 -48t65.5 -76.5t31 -103h-125q-8 31 -22 57t-36 45t-51.5 29.5t-68.5 10.5q-57 0 -98.5 -23
t-67.5 -61.5t-38.5 -87.5t-12.5 -100t12.5 -100t38.5 -87.5t67.5 -61.5t98.5 -23q42 0 74 14.5t55 40t36 59.5t17 73h122z" />
    <glyph glyph-name="uni04AB.esDescenderCyrillic" unicode="&#x4ab;" 
d="M191 -160q18 -8 33 -12t32 -4q10 0 21 1.5t20 6t14.5 12.5t5.5 21q0 19 -14.5 28.5t-31.5 9.5q-22 0 -39 -10l-22 19l56 75q-49 3 -88 19q-46 21 -78 56.5t-48.5 84.5t-16.5 106q0 58 16 109t48 88.5t79.5 59t111.5 21.5q45 0 85.5 -11.5t72 -34.5t51.5 -58t24 -83h-114
q-7 48 -38.5 72.5t-79.5 24.5q-22 0 -47 -7.5t-46 -28t-35 -57t-14 -95.5q0 -32 7.5 -64t24 -57t42.5 -40.5t63 -15.5q50 0 82.5 31t40.5 87h114q-16 -101 -77 -155q-51 -45 -132 -52l-36 -46l1 -1q6 2 14 3t19 1q15 0 30 -4.5t27 -14t20 -23.5t8 -33q0 -26 -11 -43
t-28 -27.5t-38.5 -16t-43.5 -5.5q-28 0 -54.5 5.5t-48.5 17.5z" />
    <glyph glyph-name="uni04AE.UStraightCyrillic" unicode="&#x4ae;" horiz-adv-x="648" 
d="M262 280l-268 434h145l189 -320l186 320h140l-267 -434v-280h-125v280z" />
    <glyph glyph-name="uni04AF.uStraightCyrillic" unicode="&#x4af;" horiz-adv-x="519" 
d="M9 517h124l131 -397h2l126 397h118l-192 -536v-172h-114v172z" />
    <glyph glyph-name="uni04B0.UStrokeCyrillic" unicode="&#x4b0;" horiz-adv-x="648" 
d="M102 138v80h160v62l-268 434h145l189 -320l186 320h140l-267 -434v-62h155v-80h-155v-138h-125v138h-160z" />
    <glyph glyph-name="uni04B1.uStrokeCyrillic" unicode="&#x4b1;" horiz-adv-x="519" 
d="M49 -20v85h124l-164 452h124l131 -397h2l126 397h118l-162 -452h130v-85h-160v-171h-114v171h-155z" />
    <glyph glyph-name="uni04B2.HaDescenderCyrillic" unicode="&#x4b2;" horiz-adv-x="744" 
d="M14 714h149l162 -252l169 252h140l-236 -344l179 -262h157v-285h-125v177h-110l-178 273l-181 -273h-143l253 370z" />
    <glyph glyph-name="uni04B3.haDescenderCyrillic" unicode="&#x4b3;" horiz-adv-x="592" 
d="M199 272l-179 245h138l108 -159l113 159h132l-176 -239l137 -193h110v-242h-105v157h-81l-131 191l-127 -191h-134z" />
    <glyph glyph-name="uni04B6.CheDescenderCyrillic" unicode="&#x4b6;" horiz-adv-x="724" 
d="M473 0v313q-14 -10 -34 -18t-43.5 -13t-49 -8t-50.5 -3q-52 0 -95.5 11t-74.5 33t-48.5 55t-17.5 77v267h125v-237q0 -61 35.5 -88.5t107.5 -27.5q21 0 43 5t42.5 13t36 18t23.5 19v298h125v-606h116v-285h-125v177h-116z" />
    <glyph glyph-name="uni04B7.cheDescenderCyrillic" unicode="&#x4b7;" horiz-adv-x="606" 
d="M491 0h-101v197q-23 -9 -57 -18t-79 -9q-101 0 -152.5 44t-51.5 132v171h114v-141q0 -61 26 -88.5t85 -27.5q32 0 65 8.5t50 15.5v233h114v-432h92v-242h-105v157z" />
    <glyph glyph-name="uni04B8.CheStrokeCyrillic" unicode="&#x4b8;" horiz-adv-x="672" 
d="M598 0h-125v313q-17 -14 -45 -23t-60 -14v-216h-77v211q-51 0 -93.5 11.5t-73 33.5t-47.5 54.5t-17 76.5v267h125v-237q0 -53 26 -80.5t80 -33.5v203h77v-201q34 8 63.5 22.5t41.5 28.5v298h125v-714z" />
    <glyph glyph-name="uni04B9.cheStrokeCyrillic" unicode="&#x4b9;" horiz-adv-x="564" 
d="M504 0h-114v197q-14 -6 -32 -11.5t-40 -9.5v-143h-82v137q-92 4 -139 47.5t-47 128.5v171h114v-141q0 -50 17 -77t55 -35v133h82v-133q22 4 41.5 9.5t30.5 10.5v233h114v-517z" />
    <glyph glyph-name="uni04BA.ShhaCyrillic" unicode="&#x4ba;" horiz-adv-x="672" 
d="M74 714h125v-313q13 10 33.5 18t44 13t49 8t50.5 3q52 0 95.5 -11t74.5 -33t48.5 -55t17.5 -77v-267h-125v237q0 61 -35.5 88.5t-107.5 27.5q-21 0 -43 -5t-42.5 -13t-36.5 -18t-23 -19v-298h-125v714z" />
    <glyph glyph-name="uni04BB.shhaCyrillic" unicode="&#x4bb;" horiz-adv-x="574" 
d="M60 714h114v-265h2q21 35 62.5 58.5t92.5 23.5q85 0 134 -44t49 -132v-355h-114v325q-2 61 -26 88.5t-75 27.5q-29 0 -52 -10.5t-39 -29t-25 -43.5t-9 -53v-305h-114v714z" />
    <glyph glyph-name="palochkacyrillic" unicode="&#x4c0;" horiz-adv-x="278" 
d="M76 714h125v-714h-125v714z" />
    <glyph glyph-name="uni04C1.ZheBreveCyrillic" unicode="&#x4c1;" horiz-adv-x="1093" 
d="M484 240l-102 101l-234 -341h-156l305 429l-285 285h154l318 -325v325h125v-325l318 325h154l-285 -285l305 -429h-156l-234 341l-102 -101v-240h-125v240zM443 928q8 -42 37.5 -59t69.5 -17q38 0 65.5 19t35.5 57h57q-8 -71 -52.5 -106t-113.5 -35t-110 36t-47 105h58z
" />
    <glyph glyph-name="uni04C2.zheBreveCyrillic" unicode="&#x4c2;" horiz-adv-x="834" 
d="M360 185l-68 66l-158 -251h-139l217 327l-198 190h140l206 -209v209h114v-209l206 209h140l-198 -190l217 -327h-139l-158 251l-68 -66v-185h-114v185zM313 731q8 -42 37.5 -59t69.5 -17q38 0 65.5 19t35.5 57h57q-8 -71 -52.5 -106t-113.5 -35t-110 36t-47 105h58z" />
    <glyph glyph-name="uni04D0.ABreveCyrillic" unicode="&#x4d0;" horiz-adv-x="667" 
d="M267 714h133l275 -714h-134l-67 189h-285l-67 -189h-129zM223 284h218l-107 307h-3zM230 928q8 -42 37.5 -59t69.5 -17q38 0 65.5 19t35.5 57h57q-8 -71 -52.5 -106t-113.5 -35t-110 36t-47 105h58z" />
    <glyph glyph-name="uni04D1.aBreveCyrillic" unicode="&#x4d1;" 
d="M493 115q0 -21 5.5 -30t21.5 -9h12q7 0 16 2v-79q-6 -2 -15.5 -4.5t-19.5 -4.5t-20 -3t-17 -1q-35 0 -58 14t-30 49q-34 -33 -83.5 -48t-95.5 -15q-35 0 -67 9.5t-56.5 28t-39 47t-14.5 66.5q0 48 17.5 78t46 47t64 24.5t71.5 11.5q31 6 59 8.5t49.5 8.5t34 18.5
t12.5 37.5q0 22 -10.5 36t-26 21.5t-34.5 10t-36 2.5q-48 0 -79 -20t-35 -62h-114q3 50 24 83t53.5 53t73.5 28t84 8q38 0 75 -8t66.5 -26t47.5 -46.5t18 -69.5v-266zM379 259q-26 -17 -64 -20.5t-76 -10.5q-18 -3 -35 -8.5t-30 -15t-20.5 -25t-7.5 -37.5q0 -19 11 -32
t26.5 -20.5t34 -10.5t33.5 -3q19 0 41 5t41.5 17t32.5 30.5t13 45.5v85zM174 731q8 -42 37.5 -59t69.5 -17q38 0 65.5 19t35.5 57h57q-8 -71 -52.5 -106t-113.5 -35t-110 36t-47 105h58z" />
    <glyph glyph-name="uni04D2.ADiaeresisCyrillic" unicode="&#x4d2;" horiz-adv-x="667" 
d="M267 714h133l275 -714h-134l-67 189h-285l-67 -189h-129zM223 284h218l-107 307h-3zM190 799v108h114v-108h-114zM476 907v-108h-114v108h114z" />
    </font>
</defs>
</svg>
