<svg width="20" height="20" viewBox="0 0 20 20" fill="none" xmlns="http://www.w3.org/2000/svg">
<rect width="20" height="20" rx="4" fill="#2B2B2B"/>
<path d="M7.96162 13.1215L15.2747 6.12448C15.3555 6.04709 15.4508 6.00575 15.5605 6.00045C15.6702 5.99515 15.7707 6.03649 15.8621 6.12448C15.9535 6.21246 15.9994 6.30707 16 6.4083C16.0005 6.50953 15.9549 6.60388 15.8629 6.69133L8.43188 13.8068C8.29728 13.9356 8.14053 14 7.96162 14C7.78271 14 7.62596 13.9356 7.49136 13.8068L4.12646 10.587C4.0456 10.5096 4.0035 10.4176 4.00018 10.3111C3.99685 10.2045 4.04061 10.1076 4.13145 10.0201C4.22229 9.93265 4.32116 9.88892 4.42806 9.88892C4.53496 9.88892 4.63383 9.93265 4.72467 10.0201L7.96162 13.1215Z" fill="white"/>
</svg>
